0
SECTION
2
HEADER
9
$INSUNITS
70
4
9
$ACADVER
1
AC1014
9
$HANDSEED
5
FFFF
0
ENDSEC
0
SECTION
2
TABLES
0
TABLE
2
VPORT
5
8
100
AcDbSymbolTable
0
ENDTAB
0
TABLE
2
LTYPE
5
5
100
AcDbSymbolTable
0
LTYPE
5
14
100
AcDbSymbolTableRecord
100
AcDbLinetypeTableRecord
2
BYBLOCK
70
0
0
LTYPE
5
15
100
AcDbSymbolTableRecord
100
AcDbLinetypeTableRecord
2
BYLAYER
70
0
0
ENDTAB
0
TABLE
2
LAYER
5
2
100
AcDbSymbolTable
70
2
0
LAYER
5
50
100
AcDbSymbolTableRecord
100
AcDbLayerTableRecord
2
0
70
0
6
CONTINUOUS
0
ENDTAB
0
TABLE
2
STYLE
5
3
100
AcDbSymbolTable
70
1
0
STYLE
5
11
100
AcDbSymbolTableRecord
100
AcDbTextStyleTableRecord
2
STANDARD
70
0
0
ENDTAB
0
TABLE
2
VIEW
5
6
100
AcDbSymbolTable
70
0
0
ENDTAB
0
TABLE
2
UCS
5
7
100
AcDbSymbolTable
70
0
0
ENDTAB
0
TABLE
2
APPID
5
9
100
AcDbSymbolTable
70
2
0
APPID
5
12
100
AcDbSymbolTableRecord
100
AcDbRegAppTableRecord
2
ACAD
70
0
0
ENDTAB
0
TABLE
2
DIMSTYLE
5
A
100
AcDbSymbolTable
70
1
0
ENDTAB
0
TABLE
2
BLOCK_RECORD
5
1
100
AcDbSymbolTable
70
1
0
BLOCK_RECORD
5
1F
100
AcDbSymbolTableRecord
100
AcDbBlockTableRecord
2
*MODEL_SPACE
0
BLOCK_RECORD
5
1B
100
AcDbSymbolTableRecord
100
AcDbBlockTableRecord
2
*PAPER_SPACE
0
ENDTAB
0
ENDSEC
0
SECTION
2
BLOCKS
0
BLOCK
5
20
100
AcDbEntity
100
AcDbBlockBegin
2
*MODEL_SPACE
0
ENDBLK
5
21
100
AcDbEntity
100
AcDbBlockEnd
0
BLOCK
5
1C
100
AcDbEntity
100
AcDbBlockBegin
2
*PAPER_SPACE
0
ENDBLK
5
1D
100
AcDbEntity
100
AcDbBlockEnd
0
ENDSEC
0
SECTION
2
ENTITIES
0
ELLIPSE
5
100
100
AcDbEntity
8
0
100
AcDbEllipse
10
207.80031938806246
20
-388.37963541593842
30
0
11
-0.60373518522870362
21
3.1059483483604726
31
0.0
40
0.99999991442543923
41
0
42
6.2831853071795862
0
LWPOLYLINE
5
101
100
AcDbEntity
8
0
100
AcDbPolyline
90
14
70
1
43
0.0
10
194.23903209418404
20
-286.19457021641563
10
199.90057112934539
20
-286.19400484798581
10
199.89994129438639
20
-280.18690487943388
10
194.23903209418404
20
-280.18110619349875
10
194.26768893673366
20
-261.30400067254533
42
-1.6038211448459241
10
211.9028508944109
20
-266.18184411660661
10
209.39047443439915
20
-279.56420116623076
10
213.5930268422149
20
-347.17963469528388
10
206.65790941463968
20
-347.61067821482612
10
207.03579343243828
20
-353.69050523605387
10
213.9709108600137
20
-353.25946171651162
10
215.58821902667768
20
-379.28055133711501
42
-1.6496741961214128
10
196.53218370869109
20
-385.35638196463418
10
194.14574198747428
20
-377.26810468131532
0
LWPOLYLINE
5
102
100
AcDbEntity
8
0
100
AcDbPolyline
90
13
70
1
43
0.0
10
13.531112772633136
20
-280.30125867402114
10
19.149934125953259
20
-291.59868369893883
10
135.68026548148399
20
-304.46381064990283
10
142.09689370478657
20
-305.17221622748639
42
0.22942815840805139
10
150.13226408080197
20
-302.31991327417302
10
157.12957119749652
20
-284.45874506472148
10
157.15144334529651
20
-275.71899351200278
42
0.19105310211383905
10
151.00838758509207
20
-272.72803203222986
10
140.86551830380563
20
-272.72803203222986
10
35.544673444451732
20
-272.8608720286939
10
35.554208508191934
20
-280.4206506769662
10
29.31312218548808
20
-280.42852248891523
10
29.433433450986193
20
-272.89734908158499
42
0.28718626426084942
0
SPLINE
5
103
100
AcDbEntity
8
0
100
AcDbSpline
70
1064
71
3
72
8
73
4
74
0
42
0.000000001
43
0.0000000001
44
0.0000000001
40
0
40
0
40
0
40
0
40
1
40
1
40
1
40
1
10
59.262349803295287
20
-4.2770654871240685
30
0
10
29.280916996270967
20
-4.2770654871240685
30
0
10
5.1444237798835335
20
-28.413550071932416
30
0
10
5.1444237798835335
20
-58.394994747377986
30
0
0
LINE
5
104
100
AcDbEntity
8
0
100
AcDbLine
10
5.1444237798835317
20
-58.394994747377986
30
0
11
5.1444237798835335
21
-79.548284759610439
31
0
0
LINE
5
105
100
AcDbEntity
8
0
100
AcDbLine
10
5.1444237798835335
20
-79.548284759610439
30
0
11
5.1444237798835335
21
-83.657503349647456
31
0
0
LINE
5
106
100
AcDbEntity
8
0
100
AcDbLine
10
5.1444237798835335
20
-83.657503349647456
30
0
11
8.0943910887862742
21
-83.65750334964747
31
0
0
LINE
5
107
100
AcDbEntity
8
0
100
AcDbLine
10
8.0943910887862742
20
-83.65750334964747
30
0
11
8.0943910887862742
21
-113.65716928853348
31
0
0
LINE
5
108
100
AcDbEntity
8
0
100
AcDbLine
10
8.0943910887862742
20
-113.65716928853348
30
0
11
5.1444237798835326
21
-113.65716928853348
31
0
0
LINE
5
109
100
AcDbEntity
8
0
100
AcDbLine
10
5.1444237798835326
20
-113.65716928853348
30
0
11
5.1444237798835335
21
-143.5810715420341
31
0
0
LINE
5
110
100
AcDbEntity
8
0
100
AcDbLine
10
5.1444237798835335
20
-143.5810715420341
30
0
11
8.1142394048835325
21
-143.6142297530746
31
0
0
LINE
5
111
100
AcDbEntity
8
0
100
AcDbLine
10
8.1142394048835325
20
-143.6142297530746
30
0
11
8.0435295090502006
21
-173.45380795263605
31
0
0
LINE
5
112
100
AcDbEntity
8
0
100
AcDbLine
10
8.0435295090502006
20
-173.45380795263605
30
0
11
5.1444237798835335
21
-173.45380795263605
31
0
0
LINE
5
113
100
AcDbEntity
8
0
100
AcDbLine
10
5.1444237798835335
20
-173.45380795263605
30
0
11
5.1444237798835335
21
-198.54919623652452
31
0
0
LINE
5
114
100
AcDbEntity
8
0
100
AcDbLine
10
5.1444237798835335
20
-198.54919623652452
30
0
11
253.68642331820982
21
-198.54919623652452
31
0
0
LINE
5
115
100
AcDbEntity
8
0
100
AcDbLine
10
253.68642331820982
20
-198.54919623652452
30
0
11
253.68642331820979
21
-173.52451784846937
31
0
0
LINE
5
116
100
AcDbEntity
8
0
100
AcDbLine
10
253.68642331820979
20
-173.52451784846937
30
0
11
250.64589779737645
21
-173.52451784846937
31
0
0
LINE
5
117
100
AcDbEntity
8
0
100
AcDbLine
10
250.64589779737645
20
-173.52451784846937
30
0
11
250.64589779737651
21
-143.6142297530746
31
0
0
LINE
5
118
100
AcDbEntity
8
0
100
AcDbLine
10
250.64589779737651
20
-143.6142297530746
30
0
11
253.68642331820982
21
-143.5810715420341
31
0
0
LINE
5
119
100
AcDbEntity
8
0
100
AcDbLine
10
253.68642331820982
20
-143.5810715420341
30
0
11
253.68642331820979
21
-113.56252402390793
31
0
0
LINE
5
120
100
AcDbEntity
8
0
100
AcDbLine
10
253.68642331820979
20
-113.56252402390793
30
0
11
250.68125274529314
21
-113.52716907599125
31
0
0
LINE
5
121
100
AcDbEntity
8
0
100
AcDbLine
10
250.68125274529314
20
-113.52716907599125
30
0
11
250.64589779737651
21
-83.652238086407934
31
0
0
LINE
5
122
100
AcDbEntity
8
0
100
AcDbLine
10
250.64589779737651
20
-83.652238086407934
30
0
11
253.68642331820982
21
-83.652238086407934
31
0
0
LINE
5
123
100
AcDbEntity
8
0
100
AcDbLine
10
253.68642331820982
20
-83.652238086407934
30
0
11
253.68642331820979
21
-79.548284759610439
31
0
0
LINE
5
124
100
AcDbEntity
8
0
100
AcDbLine
10
253.68642331820979
20
-79.548284759610439
30
0
11
253.68642331820979
21
-58.394994747377986
31
0
0
SPLINE
5
125
100
AcDbEntity
8
0
100
AcDbSpline
70
1064
71
3
72
8
73
4
74
0
42
0.000000001
43
0.0000000001
44
0.0000000001
40
0
40
0
40
0
40
0
40
1
40
1
40
1
40
1
10
253.68642331820979
20
-58.394994747377986
30
0
10
253.68642331820979
20
-28.413550071932416
30
0
10
229.54993873340146
20
-4.2770654871240685
30
0
10
199.56846816321868
20
-4.2770654871240685
30
0
0
LINE
5
126
100
AcDbEntity
8
0
100
AcDbLine
10
199.56846816321868
20
-4.2770654871240721
30
0
11
174.73435346232907
21
-4.2770654871240685
31
0
0
LINE
5
127
100
AcDbEntity
8
0
100
AcDbLine
10
174.73435346232907
20
-4.2770654871240685
30
0
11
174.66364356649569
21
-7.3883009037907357
31
0
0
LINE
5
128
100
AcDbEntity
8
0
100
AcDbLine
10
174.66364356649569
20
-7.3883009037907357
30
0
11
143.95188961656748
21
-7.3883009037907339
31
0
0
LINE
5
129
100
AcDbEntity
8
0
100
AcDbLine
10
143.95188961656748
20
-7.3883009037907339
30
0
11
143.95188961656746
21
-4.2770654871240676
31
0
0
LINE
5
130
100
AcDbEntity
8
0
100
AcDbLine
10
143.95188961656746
20
-4.2770654871240676
30
0
11
114.84335221781589
21
-4.2770654871240685
31
0
0
LINE
5
131
100
AcDbEntity
8
0
100
AcDbLine
10
114.84335221781589
20
-4.2770654871240685
30
0
11
114.84335221781589
21
-7.3883009037907357
31
0
0
LINE
5
132
100
AcDbEntity
8
0
100
AcDbLine
10
114.84335221781589
20
-7.3883009037907357
30
0
11
84.060161161516675
21
-7.3883009037907339
31
0
0
LINE
5
133
100
AcDbEntity
8
0
100
AcDbLine
10
84.060161161516675
20
-7.3883009037907339
30
0
11
84.060161161516675
21
-4.2770654871240676
31
0
0
LINE
5
134
100
AcDbEntity
8
0
100
AcDbLine
10
84.060161161516675
20
-4.2770654871240676
30
0
11
59.262349803295287
21
-4.2770654871240685
31
0
0
ELLIPSE
5
135
100
AcDbEntity
8
0
100
AcDbEllipse
10
128.85501086854165
20
-134.34523830458338
30
0
11
-35.978080287895835
21
0
31
0.0
40
0.99999992138558236
41
-1.5707963267948966
42
4.7123889803846897
0
ELLIPSE
5
136
100
AcDbEntity
8
0
100
AcDbEllipse
10
92.841536883706254
20
-187.37178249020215
30
0
11
1.8584748672016669
21
0
31
0.0
40
0.99999992390545933
41
-1.5707963267948966
42
4.7123889803846897
0
ELLIPSE
5
137
100
AcDbEntity
8
0
100
AcDbEllipse
10
165.31919906312504
20
-187.37178249020215
30
0
11
1.8584751500412502
21
0
31
0.0
40
0.99999984781094142
41
-1.5707963267948966
42
4.7123889803846897
0
ELLIPSE
5
138
100
AcDbEntity
8
0
100
AcDbEllipse
10
86.798129245025009
20
-99.530330146354231
30
0
11
1.8584748672016669
21
0
31
0.0
40
0.99999992390545933
41
-1.5707963267948966
42
4.7123889803846897
0
ELLIPSE
5
139
100
AcDbEntity
8
0
100
AcDbEllipse
10
170.75963259052085
20
-99.530330146354231
30
0
11
1.8584751500412502
21
0
31
0.0
40
0.99999984781094142
41
-1.5707963267948966
42
4.7123889803846897
0
SPLINE
5
140
100
AcDbEntity
8
0
100
AcDbSpline
70
1064
71
3
72
8
73
4
74
0
42
0.000000001
43
0.0000000001
44
0.0000000001
40
0
40
0
40
0
40
0
40
1
40
1
40
1
40
1
10
186.56289680364782
20
-47.796399635658211
30
0
10
186.6885553319122
20
-46.120060662294975
30
0
10
186.38943659043167
20
-44.38172968797042
30
0
10
185.78278331786649
20
-42.813958716290735
30
0
0
SPLINE
5
141
100
AcDbEntity
8
0
100
AcDbSpline
70
1064
71
3
72
8
73
4
74
0
42
0.000000001
43
0.0000000001
44
0.0000000001
40
0
40
0
40
0
40
0
40
1
40
1
40
1
40
1
10
185.78278331786649
20
-42.813958716290735
30
0
10
185.05307825391947
20
-40.928217634417166
30
0
10
184.13594708180284
20
-39.053041605338997
30
0
10
182.44269021344041
20
-37.750329164085336
30
0
0
SPLINE
5
142
100
AcDbEntity
8
0
100
AcDbSpline
70
1064
71
3
72
8
73
4
74
0
42
0.000000001
43
0.0000000001
44
0.0000000001
40
0
40
0
40
0
40
0
40
1
40
1
40
1
40
1
10
76.387634674118516
20
-38.316008330752005
30
0
10
74.567879316952386
20
-39.716084984041792
30
0
10
73.667134388510945
20
-41.401832378603558
30
0
10
72.9249920283184
20
-43.276904828732761
30
0
0
SPLINE
5
143
100
AcDbEntity
8
0
100
AcDbSpline
70
1064
71
3
72
8
73
4
74
0
42
0.000000001
43
0.0000000001
44
0.0000000001
40
0
40
0
40
0
40
0
40
1
40
1
40
1
40
1
10
72.9249920283184
20
-43.276904828732761
30
0
10
72.364750621604486
20
-44.692397482261597
30
0
10
72.143685091860647
20
-46.279140664761805
30
0
10
72.267928445760973
20
-47.796399635658211
30
0
0
ELLIPSE
5
144
100
AcDbEntity
8
0
100
AcDbEllipse
10
94.783057525464585
20
-106.8678790666042
30
0
11
0
21
6.2461951347437505
31
0.0
40
0.99999995471809988
41
0
42
6.2831853071795862
0
ELLIPSE
5
145
100
AcDbEntity
8
0
100
AcDbEllipse
10
128.57698521491668
20
-177.69611894135838
30
0
11
0
21
6.2461951347437505
31
0.0
40
0.99999995471809988
41
0
42
6.2831853071795862
0
ELLIPSE
5
146
100
AcDbEntity
8
0
100
AcDbEllipse
10
162.38170068891668
20
-106.8678790666042
30
0
11
0
21
6.2461951347437505
31
0.0
40
0.99999995471809988
41
0
42
6.2831853071795862
0
ELLIPSE
5
147
100
AcDbEntity
8
0
100
AcDbEllipse
10
305.64002174071425
20
-199.93543701037504
30
0
11
-0.60373518522870362
21
3.1059483483604722
31
0.0
40
0.99999991442543912
41
0
42
6.2831853071795862
0
ELLIPSE
5
148
100
AcDbEntity
8
0
100
AcDbEllipse
10
305.46685747904166
20
-199.4589991169334
30
0
11
11.299868724777086
21
0
31
0.0
40
0.97435075734682464
41
-1.5707963267948966
42
4.7123889803846897
0
LWPOLYLINE
5
149
100
AcDbEntity
8
0
100
AcDbPolyline
90
10
70
1
43
0.0
10
93.367865238734495
20
-52.849243669346905
10
93.388740712742418
20
-59.908010936701231
10
152.89503247760575
20
-59.90630188404316
42
2.1880096767316557
10
147.54854157702692
20
-45.132257504669894
10
143.57913317525032
20
-45.869662508483671
10
108.59309463272533
20
-46.013706300191032
10
100.69685703659495
20
-55.235823495829052
10
98.389640263975068
20
-53.292319886743968
10
104.6113774130865
20
-45.939233035878281
10
99.873857550148585
20
-45.939233035878281
0
ELLIPSE
5
150
100
AcDbEntity
8
0
100
AcDbEllipse
10
301.56967707766671
20
-322.10384833807893
30
0
11
-1.2429397755451024e-07
21
35.978086609595891
31
0.0
40
0.99999970093485346
41
0
42
6.2831853071795862
0
CIRCLE
5
151
100
AcDbEntity
8
0
100
AcDbCircle
10
265.92809845027767
20
-375.14338332910972
30
0
40
1.8584750086214588
0
ELLIPSE
5
152
100
AcDbEntity
8
0
100
AcDbEllipse
10
338.405766679679
20
-375.14338320391494
30
0
11
-6.4204985996271333e-09
21
1.8584750382846842
31
0.0
40
0.99999999765365566
41
0
42
6.2831853071795862
0
SPLINE
5
153
100
AcDbEntity
8
0
100
AcDbSpline
70
1064
71
3
72
8
73
4
74
0
42
0.000000001
43
0.0000000001
44
0.0000000001
40
0
40
0
40
0
40
0
40
1
40
1
40
1
40
1
10
249.08582496456495
20
-280.99083267941177
30
0
10
265.68916797531472
20
-274.2681099420447
30
0
10
283.59385965858695
20
-270.7766015738091
30
0
10
301.50658736005988
20
-270.76852232293913
30
0
0
SPLINE
5
154
100
AcDbEntity
8
0
100
AcDbSpline
70
1064
71
3
72
8
73
4
74
0
42
0.000000001
43
0.0000000001
44
0.0000000001
40
0
40
0
40
0
40
0
40
1
40
1
40
1
40
1
10
301.50658736005988
20
-270.76852232293913
30
0
10
319.46135948336735
20
-270.76042580869307
30
0
10
337.41117709840398
20
-274.25232241218799
30
0
10
354.05349175858277
20
-280.99082350388289
30
0
0
LINE
5
155
100
AcDbEntity
8
0
100
AcDbLine
10
354.05349228098044
20
-381.79951064161685
30
0
11
249.08582548732082
21
-381.86863718685203
31
0
0
CIRCLE
5
156
100
AcDbEntity
8
0
100
AcDbCircle
10
259.8847135979409
20
-287.30193882346856
30
0
40
1.8584750086214588
0
ELLIPSE
5
157
100
AcDbEntity
8
0
100
AcDbEllipse
10
343.84617943373246
20
-287.30193867843718
30
0
11
-6.4204985996271333e-09
21
1.8584750382846842
31
0.0
40
0.99999999765365566
41
0
42
6.2831853071795862
0
CIRCLE
5
158
100
AcDbEntity
8
0
100
AcDbCircle
10
156.65242790429235
20
-50.225899628666973
30
0
40
1.6170918145497728
0
CIRCLE
5
159
100
AcDbEntity
8
0
100
AcDbCircle
10
307.96600113032633
20
-93.423435081078537
30
0
40
49.862452878475231
0
CIRCLE
5
160
100
AcDbEntity
8
0
100
AcDbCircle
10
307.96600113032633
20
-93.423435081078537
30
0
40
40.452762837825517
0
CIRCLE
5
161
100
AcDbEntity
8
0
100
AcDbCircle
10
341.76529870299692
20
-65.96236373640437
30
0
40
2.8641392023086572
0
CIRCLE
5
162
100
AcDbEntity
8
0
100
AcDbCircle
10
274.16665770739786
20
-65.962368052191863
30
0
40
2.8641348865219567
0
LWPOLYLINE
5
163
100
AcDbEntity
8
0
100
AcDbPolyline
90
10
70
1
43
0.0
10
287.11609463272532
20
-87.704706300191049
10
279.21985703659499
20
-96.926823495829069
10
276.91264026397511
20
-94.983319886743971
10
283.13437741308655
20
-87.630233035878305
10
278.39685755014864
20
-87.630233035878305
10
271.89086523873448
20
-94.540243669346921
10
271.91174071274241
20
-101.59901093670126
10
331.41803247760578
20
-101.59730188404316
42
2.1837962068347618
10
326.15465092230284
20
-86.790673864964631
10
322.1021331752504
20
-87.560662508483702
0
CIRCLE
5
164
100
AcDbEntity
8
0
100
AcDbCircle
10
335.17542790429241
20
-91.916899628666982
30
0
40
1.6170918145497728
0
CIRCLE
5
165
100
AcDbEntity
8
0
100
AcDbCircle
10
308.29927314465363
20
-136.79058988735815
30
0
40
2.8641343469681062
0
CIRCLE
5
166
100
AcDbEntity
8
0
100
AcDbCircle
10
305.64002174071425
20
-199.93543701037504
30
0
40
35.979091632276962
0
CIRCLE
5
167
100
AcDbEntity
8
0
100
AcDbCircle
10
305.64002174071425
20
-199.93543701037504
30
0
40
49.880871757535573
0
CIRCLE
5
168
100
AcDbEntity
8
0
100
AcDbCircle
10
339.45770230473471
20
-172.34608955815006
30
0
40
2.8641305707370783
0
CIRCLE
5
169
100
AcDbEntity
8
0
100
AcDbCircle
10
305.99168915427646
20
-243.17434160386773
30
0
40
2.8641478340675688
0
CIRCLE
5
170
100
AcDbEntity
8
0
100
AcDbCircle
10
271.85908019069768
20
-172.34608955814502
30
0
40
2.8641305707295377
0
LWPOLYLINE
5
171
100
AcDbEntity
8
0
100
AcDbPolyline
90
14
70
1
43
0.0
10
214.97590211860242
20
-209.5240031221509
10
206.31700211860237
20
-209.5240031221509
10
206.31700211860237
20
-217.92634312215088
10
200.11680211860241
20
-217.92634312215088
10
200.11680211860241
20
-213.86414312215092
10
196.46616711860236
20
-213.86414312215092
10
196.46616711860236
20
-220.27814312215094
42
0.26706388831557776
10
206.31700211860237
20
-225.94384312215089
10
214.97590211860242
20
-225.94384312215089
42
0.26706388831558248
10
224.82673711860241
20
-220.27814312215094
10
224.82673711860241
20
-213.86414312215092
10
221.17610211860239
20
-213.86414312215092
10
221.17610211860239
20
-217.92634312215088
10
214.97590211860242
20
-217.92634312215088
0
LWPOLYLINE
5
172
100
AcDbEntity
8
0
100
AcDbPolyline
90
14
70
1
43
0.0
10
200.11680211860241
20
-230.96814312215091
10
200.11680211860241
20
-235.03034312215092
10
206.31700211860237
20
-235.03034312215092
10
206.31700211860237
20
-226.62800312215091
10
214.97590211860242
20
-226.62800312215091
10
214.97590211860242
20
-235.03034312215092
10
221.17610211860239
20
-235.03034312215092
10
221.17610211860239
20
-230.96814312215091
10
224.82673711860241
20
-230.96814312215091
10
224.82673711860241
20
-237.38214312215098
42
-0.26706388831558242
10
214.97590211860242
20
-243.04784312215091
10
206.31700211860237
20
-243.04784312215094
42
-0.26706388831557776
10
196.46616711860236
20
-237.38214312215095
10
196.46616711860236
20
-230.96814312215091
0
LWPOLYLINE
5
173
100
AcDbEntity
8
0
100
AcDbPolyline
90
17
70
1
43
0.0
10
245.33550261241197
20
-226.62800307436285
10
239.45600261241196
20
-226.62800307436285
10
239.45600261241196
20
-235.1800032017976
10
233.14890261241197
20
-235.1800032017976
10
233.14890261241197
20
-231.11780320179759
10
230.04880261241198
20
-231.11780320179759
10
230.04880261241198
20
-237.31800323365627
42
0.096827946081716451
10
232.597278288859
20
-240.36012048314046
42
0.15921845765924303
10
235.69767727222242
20
-241.59027673598243
42
0.083440201905362249
10
239.71584516278281
20
-240.93234449623634
42
-0.13083140990410239
10
244.96180397102663
20
-240.83921062739407
42
0.13931251179341195
10
249.46273674761682
20
-241.55525355539439
42
0.22394829223918244
10
254.74270261241196
20
-237.31800323365627
10
254.74270261241196
20
-231.11780320179759
10
251.64260261241196
20
-231.11780320179759
10
251.64260261241196
20
-235.1800032017976
10
245.33550261241197
20
-235.1800032017976
0
LWPOLYLINE
5
174
100
AcDbEntity
8
0
100
AcDbPolyline
90
14
70
1
43
0.0
10
168.69158287243698
20
-324.67036855900403
10
168.69158287243698
20
-321.30833796014002
10
164.90589443561089
20
-321.30833796014002
10
164.90589443561089
20
-305.84296354220373
10
189.01131036308615
20
-286.4873187801777
10
189.01131036308615
20
-307.22601532682302
42
0.47850711781844679
10
189.01131036308615
20
-363.26440676726736
10
189.01131036308615
20
-383.69506942939506
10
164.90589443561089
20
-364.31906330975391
10
164.90589443561089
20
-348.68359929322389
10
168.77778968439083
20
-348.69516722877057
10
168.80652313048077
20
-345.48343293674043
10
164.90589443561089
20
-345.49497228017862
10
164.90589443561089
20
-324.6991052465338
0
CIRCLE
5
175
100
AcDbEntity
8
0
100
AcDbCircle
10
335.37439114813458
20
-294.62714553500075
30
0
40
5.1641867779953579
0
CIRCLE
5
176
100
AcDbEntity
8
0
100
AcDbCircle
10
267.77576278027811
20
-294.62713783868691
30
0
40
5.164176928764368
0
CIRCLE
5
177
100
AcDbEntity
8
0
100
AcDbCircle
10
301.56969417950188
20
-365.45538400997395
30
0
40
5.1641706008368482
0
LWPOLYLINE
5
178
100
AcDbEntity
8
0
100
AcDbPolyline
90
14
70
1
43
0.0
10
240.17521902667764
20
-379.28055133711501
10
238.55791086001375
20
-353.25946171651162
10
231.62279343243827
20
-353.69050523605387
10
231.24548739687356
20
-347.61997744908467
10
238.18060482444895
20
-347.18893392954243
10
233.97747443439914
20
-279.56420116623076
10
236.48985089441089
20
-266.18184411660661
42
1.6038211448459241
10
218.85468893673368
20
-261.30400067254533
10
218.82603209418406
20
-280.18110619349875
10
224.48694129438638
20
-280.18690487943388
10
224.48757112934541
20
-286.19400484798581
10
218.82603209418406
20
-286.19457021641563
10
218.73274198747427
20
-377.26810468131532
10
221.11918370869108
20
-385.35638196463418
42
1.649674196121417
0
ELLIPSE
5
179
100
AcDbEntity
8
0
100
AcDbEllipse
10
232.38731938806245
20
-388.37963541593842
30
0
11
-0.60373518522870373
21
3.1059483483604722
31
0.0
40
0.99999991442543912
41
0
42
6.2831853071795862
0
LINE
5
180
100
AcDbEntity
8
0
100
AcDbLine
10
249.08582496456495
20
-280.99083267941177
30
0
11
249.08582548732082
21
-381.86863718685203
31
0
0
LINE
5
181
100
AcDbEntity
8
0
100
AcDbLine
10
354.05349175858277
20
-280.99082350388295
30
0
11
354.05349228098044
21
-381.79951064161685
31
0
0
CIRCLE
5
182
100
AcDbEntity
8
0
100
AcDbCircle
10
141.14394393133549
20
-296.01942641884875
30
0
40
3.1640811628104708
0
LWPOLYLINE
5
183
100
AcDbEntity
8
0
100
AcDbPolyline
90
13
70
1
43
0.0
10
150.13226408080195
20
-366.45991327417306
42
-0.22942815840805159
10
142.09689370478657
20
-369.31221622748643
10
135.68026548148399
20
-368.60381064990287
10
19.149934125953223
20
-355.73868369893876
10
13.531112772633039
20
-344.44125867402101
42
-0.28718626426084803
10
29.433433450986193
20
-337.03734908158492
10
29.31312218548808
20
-344.56852248891528
10
35.554208508191934
20
-344.56065067696625
10
35.544673444451732
20
-337.00087202869383
10
140.86551830380563
20
-336.86803203222985
10
151.00838758509207
20
-336.86803203222985
42
-0.19105310211383761
10
157.15144334529651
20
-339.85899351200271
10
157.12957119749652
20
-348.59874506472153
0
CIRCLE
5
184
100
AcDbEntity
8
0
100
AcDbCircle
10
141.14394393133549
20
-360.15942641884874
30
0
40
3.1640811628104708
0
LWPOLYLINE
5
185
100
AcDbEntity
8
0
100
AcDbPolyline
90
13
70
1
43
0.0
10
28.780265481483966
20
-299.1188106499028
10
35.196893704786575
20
-299.82721622748636
10
151.72722506031732
20
-312.69234317845053
10
157.34604641363748
20
-323.98976820336821
42
-0.28718626426084776
10
141.44372573528437
20
-331.39367779580425
10
141.56403700078243
20
-323.86250438847401
10
135.3229506780786
20
-323.87037620042298
10
135.3324857418188
20
-331.43015484869534
10
30.011640882464896
20
-331.56299484515932
10
19.868771601178462
20
-331.56299484515932
42
-0.19105310211383988
10
13.725715840974024
20
-328.5720333653864
10
13.747587988774018
20
-319.83228181266776
10
20.744895105468583
20
-301.97111360321622
42
-0.22942815840805159
0
CIRCLE
5
186
100
AcDbEntity
8
0
100
AcDbCircle
10
29.733215254935061
20
-308.27160045854049
30
0
40
3.1640811628104708
0
LWPOLYLINE
5
187
100
AcDbEntity
8
0
100
AcDbPolyline
90
13
70
1
43
0.0
10
151.99513159834308
20
-387.45578630380948
42
-0.28718626426084803
10
136.09281091998997
20
-394.85969589624551
10
136.21312218548806
20
-387.32852248891527
10
129.97203586278422
20
-387.3363943008643
10
129.98157092652443
20
-394.89617294913671
10
24.660726067170515
20
-395.0290129456007
10
14.517856785884081
20
-395.0290129456007
42
-0.19105310211383827
10
8.3748010256796448
20
-392.03805146582772
10
8.3966731734796412
20
-383.29829991310902
10
15.393980290174202
20
-365.43713170365749
42
-0.22942815840805159
10
23.429350666189585
20
-362.58482875034417
10
29.845978889492191
20
-363.29323432792768
10
146.37631024502292
20
-376.15836127889179
0
CIRCLE
5
188
100
AcDbEntity
8
0
100
AcDbCircle
10
24.38230043964068
20
-371.73761855898186
30
0
40
3.1640811628104708
0
LINE
5
189
100
AcDbEntity
8
0
100
AcDbLine
10
116.5529691718538
20
-244.73999399443142
30
0
11
116.55296921600427
21
-238.32501696312823
31
0
0
LINE
5
190
100
AcDbEntity
8
0
100
AcDbLine
10
144.55369137400578
20
-254.82207547424503
30
0
11
138.73268421064398
21
-254.72046940119043
31
0
0
LINE
5
191
100
AcDbEntity
8
0
100
AcDbLine
10
169.12669860654069
20
-241.28546228813082
30
0
11
165.73604140937454
21
-227.68640783378208
31
0
0
CIRCLE
5
192
100
AcDbEntity
8
0
100
AcDbCircle
10
95.650368778308462
20
-256.82434458813128
30
0
40
3.1640815493339396
0
ARC
5
193
100
AcDbEntity
8
0
100
AcDbCircle
10
144.66663812851797
20
-248.35136120167533
30
0
40
6.4716999441099023
100
AcDbArc
50
-91.000000148292401
51
88.999999851707329
0
LINE
5
194
100
AcDbEntity
8
0
100
AcDbLine
10
178.13130098403636
20
-252.49633108145363
30
0
11
172.28529530308069
21
-253.95391278842516
31
0
0
LINE
5
195
100
AcDbEntity
8
0
100
AcDbLine
10
172.28529530308069
20
-253.95391278842516
30
0
11
176.11907239139455
21
-269.33026015242143
31
0
0
ARC
5
196
100
AcDbEntity
8
0
100
AcDbCircle
10
138.84563096502467
20
-248.24975513615371
30
0
40
6.4716999365757957
100
AcDbArc
50
88.999999851707514
51
268.99999985170774
0
LINE
5
197
100
AcDbEntity
8
0
100
AcDbLine
10
169.12669860654069
20
-241.28546228813082
30
0
11
174.97268482968107
21
-239.82788590341687
31
0
0
LINE
5
198
100
AcDbEntity
8
0
100
AcDbLine
10
162.82226173583047
20
-215.99990437262676
30
0
11
159.46598651649157
21
-202.53863835171376
31
0
0
LINE
5
199
100
AcDbEntity
8
0
100
AcDbLine
10
171.5720253497976
20
-226.188725028958
30
0
11
165.73604140937454
21
-227.68640783378208
31
0
0
LINE
5
200
100
AcDbEntity
8
0
100
AcDbLine
10
168.64840567522336
20
-214.46272345724532
30
0
11
162.82226173583047
21
-215.99990437262676
31
0
0
LINE
5
201
100
AcDbEntity
8
0
100
AcDbLine
10
171.5720253497976
20
-226.188725028958
30
0
11
168.64840567522336
21
-214.46272345724532
31
0
0
LINE
5
202
100
AcDbEntity
8
0
100
AcDbLine
10
174.97268482968107
20
-239.82788590341687
30
0
11
178.13130098403636
21
-252.49633108145363
31
0
0
LINE
5
203
100
AcDbEntity
8
0
100
AcDbLine
10
116.55296921600427
20
-238.32501696312823
30
0
11
113.34596921600431
21
-238.3250169410567
31
0
0
LINE
5
204
100
AcDbEntity
8
0
100
AcDbLine
10
116.55296938559928
20
-226.72229132803892
30
0
11
116.55296943414038
21
-219.66925655221127
31
0
0
LINE
5
205
100
AcDbEntity
8
0
100
AcDbLine
10
116.55296943414038
20
-219.66925655221127
30
0
11
113.3459694341404
21
-219.66925653013973
31
0
0
LINE
5
206
100
AcDbEntity
8
0
100
AcDbLine
10
113.34596943414039
20
-206.6296666031692
30
0
11
116.55296952388275
21
-206.62966662524065
31
0
0
LINE
5
207
100
AcDbEntity
8
0
100
AcDbLine
10
113.3459694341404
20
-219.66925653013973
30
0
11
113.34596943414039
21
-206.6296666031692
31
0
0
LINE
5
208
100
AcDbEntity
8
0
100
AcDbLine
10
176.11907239139455
20
-269.33026015242143
30
0
11
89.651650972475068
21
-269.34694460730037
31
0
0
LINE
5
209
100
AcDbEntity
8
0
100
AcDbLine
10
116.5529691718538
20
-244.73999399443142
30
0
11
89.651713681339388
21
-244.73999433000571
31
0
0
LINE
5
210
100
AcDbEntity
8
0
100
AcDbLine
10
113.34596929585697
20
-226.72229130596742
30
0
11
116.55296938559928
21
-226.72229132803892
31
0
0
LINE
5
211
100
AcDbEntity
8
0
100
AcDbLine
10
113.34596921600431
20
-238.3250169410567
30
0
11
113.34596929585697
21
-226.72229130596742
31
0
0
LINE
5
212
100
AcDbEntity
8
0
100
AcDbLine
10
138.95857771940538
20
-241.77904087111696
30
0
11
144.7795848830302
21
-241.88064692910561
31
0
0
ARC
5
213
100
AcDbEntity
8
0
100
AcDbCircle
10
108.62959748538776
20
-257.04351783236706
30
0
40
22.617178521051638
100
AcDbArc
50
147.0443154795025
51
212.95539249298318
0
LWPOLYLINE
5
214
100
AcDbEntity
8
0
100
AcDbPolyline
90
17
70
1
43
0.0
10
239.71584516278281
20
-221.69034449623632
42
-0.083440201905362402
10
235.69767727222242
20
-222.34827673598238
42
-0.15921845765924308
10
232.597278288859
20
-221.11812048314047
42
-0.096827946081714661
10
230.04880261241198
20
-218.07600323365625
10
230.04880261241198
20
-211.87580320179759
10
233.14890261241197
20
-211.87580320179759
10
233.14890261241197
20
-215.93800320179756
10
239.45600261241196
20
-215.93800320179756
10
239.45600261241196
20
-207.38600307436283
10
245.33550261241197
20
-207.38600307436283
10
245.33550261241197
20
-215.93800320179756
10
251.64260261241196
20
-215.93800320179756
10
251.64260261241196
20
-211.87580320179759
10
254.74270261241196
20
-211.87580320179759
10
254.74270261241199
20
-218.07600323365625
42
-0.22394829223918242
10
249.46273674761682
20
-222.3132535553944
42
-0.13931251179341
10
244.96180397102663
20
-221.59721062739408
42
0.13083140990410272
0
LWPOLYLINE
5
215
100
AcDbEntity
8
0
100
AcDbPolyline
90
11
70
1
43
0.0
10
174.66364356649569
20
-59.162010312319836
42
-0.13832128635086768
10
85.631156793221891
20
-59.90823373867773
42
-0.13560619924118153
10
74.016634847877981
20
-53.297477615699705
42
-0.414934909071077
10
77.648133754354248
20
-37.41366702758846
42
-0.16417550004654013
10
94.690076552891469
20
-33.620150492292851
42
0.0012553989689036689
10
124.08599665464584
20
-38.666865435290021
42
0.081681182680876763
10
144.00227325985784
20
-37.078227736157118
42
-0.044120348125882981
10
165.50280097572772
20
-33.365308710018695
42
-0.1142165004370982
10
177.87039452261007
20
-35.113557398590643
42
-0.24955901056602306
10
185.78278331786649
20
-42.813958716290735
42
-0.23431974625158855
10
184.72077972245074
20
-53.648679305356296
42
-0.13473712541096694
0
LINE
5
216
100
AcDbEntity
8
0
100
AcDbLine
10
159.46598651649157
20
-202.53863835171376
30
0
11
116.72988544223384
21
-202.53863835171376
31
0
0
LINE
5
217
100
AcDbEntity
8
0
100
AcDbLine
10
116.55296952388275
20
-206.62966662524065
30
0
11
116.55296952388275
21
-202.53863835171376
31
0
0
LINE
5
218
100
AcDbEntity
8
0
100
AcDbLine
10
116.55296952388275
20
-202.53863835171376
30
0
11
116.72988544223384
21
-202.53863835171376
31
0
0
ARC
5
219
100
AcDbEntity
8
0
100
AcDbCircle
10
85.940993120773626
20
-215.86430774448328
30
0
40
22.617178521051638
100
AcDbArc
50
-32.955684520497485
51
32.95539249298313
0
LINE
5
220
100
AcDbEntity
8
0
100
AcDbLine
10
19.597905776480328
20
-233.07993967343347
30
0
11
16.439289622125028
21
-220.41149449539671
31
0
0
LINE
5
221
100
AcDbEntity
8
0
100
AcDbLine
10
50.016899232155595
20
-218.08575010260535
30
0
11
55.837906395517422
21
-218.18735617565991
31
0
0
LINE
5
222
100
AcDbEntity
8
0
100
AcDbLine
10
22.998565256363793
20
-246.71910054789234
30
0
11
28.834549196786842
21
-245.22141774306823
31
0
0
LINE
5
223
100
AcDbEntity
8
0
100
AcDbLine
10
25.922184930938034
20
-258.44510211960505
30
0
11
31.748328870330905
21
-256.90792120422361
31
0
0
LINE
5
224
100
AcDbEntity
8
0
100
AcDbLine
10
78.017621390157103
20
-234.58280861372208
30
0
11
81.224621390157083
21
-234.58280863579364
31
0
0
ARC
5
225
100
AcDbEntity
8
0
100
AcDbCircle
10
55.724959641136707
20
-224.65807044069663
30
0
40
6.4716999365758054
100
AcDbArc
50
-91.000000148292315
51
88.999999851707514
0
LINE
5
226
100
AcDbEntity
8
0
100
AcDbLine
10
78.017621434307586
20
-228.16783158241893
30
0
11
78.017621390157103
21
-234.58280861372208
31
0
0
LINE
5
227
100
AcDbEntity
8
0
100
AcDbLine
10
22.998565256363793
20
-246.71910054789234
30
0
11
25.922184930938034
21
-258.44510211960505
31
0
0
ARC
5
228
100
AcDbEntity
8
0
100
AcDbCircle
10
49.903952477643436
20
-224.55646437517501
30
0
40
6.4716999441098775
100
AcDbArc
50
88.999999851707884
51
268.9999998517074
0
LINE
5
229
100
AcDbEntity
8
0
100
AcDbLine
10
55.612012886756013
20
-231.12878470573338
30
0
11
49.791005723131221
21
-231.02717864774473
31
0
0
LINE
5
230
100
AcDbEntity
8
0
100
AcDbLine
10
31.748328870330905
20
-256.90792120422361
30
0
11
35.104604089669841
21
-270.36918722513656
31
0
0
LINE
5
231
100
AcDbEntity
8
0
100
AcDbLine
10
78.017621434307586
20
-228.16783158241893
30
0
11
104.918876924822
21
-228.16783124684463
31
0
0
LINE
5
232
100
AcDbEntity
8
0
100
AcDbLine
10
25.443891999620693
20
-231.62236328871953
30
0
11
28.834549196786842
21
-245.22141774306823
31
0
0
LINE
5
233
100
AcDbEntity
8
0
100
AcDbLine
10
16.439289622125028
20
-220.41149449539671
30
0
11
22.285295303080691
21
-218.95391278842516
31
0
0
LINE
5
234
100
AcDbEntity
8
0
100
AcDbLine
10
22.285295303080691
20
-218.95391278842516
30
0
11
18.451518214766832
21
-203.57756542442894
31
0
0
LINE
5
235
100
AcDbEntity
8
0
100
AcDbLine
10
81.224621172021017
20
-253.23856904671061
30
0
11
81.224621172021031
21
-266.27815897368117
31
0
0
LINE
5
236
100
AcDbEntity
8
0
100
AcDbLine
10
18.451518214766832
20
-203.57756542442894
30
0
11
104.91893963368632
21
-203.56088096955
31
0
0
LINE
5
237
100
AcDbEntity
8
0
100
AcDbLine
10
78.017621220562106
20
-246.18553424881142
30
0
11
78.017621172021023
21
-253.23856902463911
31
0
0
LINE
5
238
100
AcDbEntity
8
0
100
AcDbLine
10
25.443891999620693
20
-231.62236328871953
30
0
11
19.597905776480328
21
-233.07993967343347
31
0
0
LINE
5
239
100
AcDbEntity
8
0
100
AcDbLine
10
78.017621172021023
20
-253.23856902463911
30
0
11
81.224621172021017
21
-253.23856904671061
31
0
0
LINE
5
240
100
AcDbEntity
8
0
100
AcDbLine
10
81.224621172021031
20
-266.27815897368117
30
0
11
78.017621082278652
21
-266.27815895160973
31
0
0
CIRCLE
5
241
100
AcDbEntity
8
0
100
AcDbCircle
10
98.920221827852941
20
-216.08348098871903
30
0
40
3.1640815493339396
0
LINE
5
242
100
AcDbEntity
8
0
100
AcDbLine
10
78.017621082278652
20
-270.36918722513656
30
0
11
77.840705163927581
21
-270.36918722513656
31
0
0
LINE
5
243
100
AcDbEntity
8
0
100
AcDbLine
10
78.017621082278652
20
-266.27815895160973
30
0
11
78.017621082278652
21
-270.36918722513656
31
0
0
LINE
5
244
100
AcDbEntity
8
0
100
AcDbLine
10
35.104604089669841
20
-270.36918722513656
30
0
11
77.840705163927581
21
-270.36918722513656
31
0
0
LINE
5
245
100
AcDbEntity
8
0
100
AcDbLine
10
81.224621390157083
20
-234.58280863579364
30
0
11
81.224621310304428
21
-246.18553427088295
31
0
0
LINE
5
246
100
AcDbEntity
8
0
100
AcDbLine
10
81.224621310304428
20
-246.18553427088295
30
0
11
78.017621220562106
21
-246.18553424881142
31
0
0
LWPOLYLINE
5
247
100
AcDbEntity
8
0
100
AcDbPolyline
90
4
70
1
43
0.0
10
313.7398161329042
20
49.518699886211444
10
105.86383957040434
20
49.518699886211444
10
105.86383957040432
20
79.518699886211422
10
313.7398161329042
20
79.518699886211436
0
LWPOLYLINE
5
248
100
AcDbEntity
8
0
100
AcDbPolyline
90
4
70
1
43
0.0
10
609.60418386684887
20
26.488609223876558
10
106.39129324184934
20
26.488609223876558
10
106.39129324184935
20
46.488609223876551
10
609.60418386684887
20
46.488609223876551
0
LWPOLYLINE
5
249
100
AcDbEntity
8
0
100
AcDbPolyline
90
4
70
1
43
0.0
10
393.93595683269518
20
1.1365794172428938
10
106.69962870769579
20
1.1365794172428711
10
106.69962870769581
20
21.136579417242835
10
393.93595683269518
20
21.13657941724286
0
ENDSEC
0
SECTION
2
OBJECTS
0
DICTIONARY
5
C
100
AcDbDictionary
3
ACAD_GROUP
350
D
3
ACAD_MLINESTYLE
350
17
0
DICTIONARY
5
D
100
AcDbDictionary
0
DICTIONARY
5
1A
330
C
100
AcDbDictionary
0
DICTIONARY
5
17
100
AcDbDictionary
0
ENDSEC
0
EOF
