0
SECTION
2
HEADER
9
$INSUNITS
70
4
9
$ACADVER
1
AC1014
9
$HANDSEED
5
FFFF
0
ENDSEC
0
SECTION
2
TABLES
0
TABLE
2
VPORT
5
8
100
AcDbSymbolTable
0
ENDTAB
0
TABLE
2
LTYPE
5
5
100
AcDbSymbolTable
0
LTYPE
5
14
100
AcDbSymbolTableRecord
100
AcDbLinetypeTableRecord
2
BYBLOCK
70
0
0
LTYPE
5
15
100
AcDbSymbolTableRecord
100
AcDbLinetypeTableRecord
2
BYLAYER
70
0
0
ENDTAB
0
TABLE
2
LAYER
5
2
100
AcDbSymbolTable
70
2
0
LAYER
5
50
100
AcDbSymbolTableRecord
100
AcDbLayerTableRecord
2
0
70
0
6
CONTINUOUS
0
ENDTAB
0
TABLE
2
STYLE
5
3
100
AcDbSymbolTable
70
1
0
STYLE
5
11
100
AcDbSymbolTableRecord
100
AcDbTextStyleTableRecord
2
STANDARD
70
0
0
ENDTAB
0
TABLE
2
VIEW
5
6
100
AcDbSymbolTable
70
0
0
ENDTAB
0
TABLE
2
UCS
5
7
100
AcDbSymbolTable
70
0
0
ENDTAB
0
TABLE
2
APPID
5
9
100
AcDbSymbolTable
70
2
0
APPID
5
12
100
AcDbSymbolTableRecord
100
AcDbRegAppTableRecord
2
ACAD
70
0
0
ENDTAB
0
TABLE
2
DIMSTYLE
5
A
100
AcDbSymbolTable
70
1
0
ENDTAB
0
TABLE
2
BLOCK_RECORD
5
1
100
AcDbSymbolTable
70
1
0
BLOCK_RECORD
5
1F
100
AcDbSymbolTableRecord
100
AcDbBlockTableRecord
2
*MODEL_SPACE
0
BLOCK_RECORD
5
1B
100
AcDbSymbolTableRecord
100
AcDbBlockTableRecord
2
*PAPER_SPACE
0
ENDTAB
0
ENDSEC
0
SECTION
2
BLOCKS
0
BLOCK
5
20
100
AcDbEntity
100
AcDbBlockBegin
2
*MODEL_SPACE
0
ENDBLK
5
21
100
AcDbEntity
100
AcDbBlockEnd
0
BLOCK
5
1C
100
AcDbEntity
100
AcDbBlockBegin
2
*PAPER_SPACE
0
ENDBLK
5
1D
100
AcDbEntity
100
AcDbBlockEnd
0
ENDSEC
0
SECTION
2
ENTITIES
0
LINE
5
100
100
AcDbEntity
8
0
100
AcDbLine
10
230.32092523451144
20
-52.296982703150128
30
0
11
227.6296746469107
21
-49.432134211771341
31
0
0
LINE
5
101
100
AcDbEntity
8
0
100
AcDbLine
10
227.6296746469107
20
-49.432134211771341
30
0
11
38.581367651534094
21
-49.568966350000714
31
0
0
LINE
5
102
100
AcDbEntity
8
0
100
AcDbLine
10
38.607231789628059
20
-203.58399313781962
30
0
11
38.607231789628059
21
-291.32907258055343
31
0
0
LINE
5
103
100
AcDbEntity
8
0
100
AcDbLine
10
38.607231789628059
20
-291.32907258055343
30
0
11
230.32094248733429
21
-291.32907258055343
31
0
0
LINE
5
104
100
AcDbEntity
8
0
100
AcDbLine
10
230.32094248733429
20
-291.32907258055343
30
0
11
230.32094248733429
21
-203.58399313781962
31
0
0
LWPOLYLINE
5
105
100
AcDbEntity
8
0
100
AcDbPolyline
90
57
70
1
43
0.0
10
475.48852436794954
20
-301.39576692505108
10
450.29450316732698
20
-301.39576692505108
10
343.12666155703647
20
-301.39578417787396
10
343.13259652810575
20
-294.83966835294569
10
312.80713723077298
20
-294.83966835294569
10
312.80713723077304
20
-301.28356319147719
10
282.90111131037816
20
-301.28073372852549
10
282.90111131037816
20
-294.85518726712263
10
252.57608333361728
20
-294.85518726712263
10
252.57608333361728
20
-301.28115642268602
10
137.52982642112642
20
-301.39484389902725
10
120.16536915473084
20
-301.39484389902725
10
120.15632004913238
20
-294.87878912881695
10
89.831085038496994
20
-294.87878912881695
10
89.783027300375977
20
-301.39484389902725
10
60.301959973444966
20
-301.39484389902725
10
60.325704170928027
20
-294.89526557466354
10
29.954507640151053
20
-294.89526557466354
10
29.919794960524584
20
-301.39484389902725
10
5.5427639343710178
20
-301.39484389902725
10
5.5427639343710178
20
-493.66470149874345
10
29.969713846913368
20
-493.70058737032542
10
30.000751675267246
20
-496.85833703566971
10
60.325699857722313
20
-496.85833703566971
10
60.351704175002119
20
-493.70058737032542
10
89.832517022795713
20
-493.70058737032542
10
89.829687559844047
20
-496.87479622869341
10
120.15517273641115
20
-496.87479622869341
10
120.11432667825225
20
-493.70058737032542
10
186.86479101966765
20
-493.70058737032542
10
252.57889554374603
20
-493.70058737032542
10
252.57522069247347
20
-496.85257459282917
10
282.90011064665134
20
-496.85257459282917
10
282.91113520046906
20
-493.70058737032542
10
312.79292090472319
20
-493.70058737032542
10
312.80620557833765
20
-496.86903378585282
10
343.13166487567048
20
-496.86903378585282
10
343.1756250683585
20
-493.70058737032542
10
367.98149225991727
20
-493.70058737032542
10
452.33351078610144
20
-493.70058737032542
10
475.48942151473909
20
-493.70058737032542
10
475.49563253097438
20
-496.82483205364457
10
505.72030083706574
20
-496.82483205364457
10
505.72030083706574
20
-493.70058737032542
10
535.30195643456932
20
-493.70058737032542
10
535.32514422851466
20
-496.84129124666822
10
565.55008857977202
20
-496.84129124666822
10
565.53425048837187
20
-493.70058737032542
10
590.06866176480025
20
-493.70058737032542
10
590.1080672122489
20
-301.43198060026782
10
565.65029297503565
20
-301.28207944870985
10
565.65029297503577
20
-294.81743809067001
10
535.325109722869
20
-294.81743809067001
10
535.30192192892366
20
-301.39576692505108
10
505.81940105166541
20
-301.23209802083818
10
505.81940105166541
20
-294.78394173505632
10
475.49445933901887
20
-294.83391453651655
0
LINE
5
106
100
AcDbEntity
8
0
100
AcDbLine
10
313.8499123653728
20
-429.60210687623709
30
0
11
313.8499123653728
21
-461.65291061549709
31
0
0
LINE
5
107
100
AcDbEntity
8
0
100
AcDbLine
10
313.8499123653728
20
-461.65291061549709
30
0
11
281.79910579941031
21
-461.65291061549709
31
0
0
LINE
5
108
100
AcDbEntity
8
0
100
AcDbLine
10
9.4965588472128193
20
-63.541128245550595
30
0
11
9.496558847212814
21
-88.864642713182803
31
0
0
LINE
5
109
100
AcDbEntity
8
0
100
AcDbLine
10
9.496558847212814
20
-88.864642713182803
30
0
11
12.464585689198518
21
-88.864642713182803
31
0
0
LINE
5
110
100
AcDbEntity
8
0
100
AcDbLine
10
12.464585689198518
20
-88.864642713182803
30
0
11
12.429259456058526
21
-118.79234680552136
31
0
0
LINE
5
111
100
AcDbEntity
8
0
100
AcDbLine
10
12.429259456058526
20
-118.79234680552136
30
0
11
9.496558847212814
21
-118.79234680552136
31
0
0
LINE
5
112
100
AcDbEntity
8
0
100
AcDbLine
10
9.496558847212814
20
-118.79234680552136
30
0
11
9.496558847212814
21
-148.67612952402342
31
0
0
LINE
5
113
100
AcDbEntity
8
0
100
AcDbLine
10
9.496558847212814
20
-148.67612952402342
30
0
11
12.429259456058526
21
-148.67587935809169
31
0
0
LINE
5
114
100
AcDbEntity
8
0
100
AcDbLine
10
12.429259456058526
20
-148.67587935809169
30
0
11
12.446881058023475
21
-178.59478235416066
31
0
0
LINE
5
115
100
AcDbEntity
8
0
100
AcDbLine
10
12.446881058023475
20
-178.59478235416066
30
0
11
9.4965038538398971
21
-178.61227024674835
31
0
0
LINE
5
116
100
AcDbEntity
8
0
100
AcDbLine
10
9.4965038538398971
20
-178.61227024674835
30
0
11
9.4965038538398971
21
-203.61114908102644
31
0
0
LINE
5
117
100
AcDbEntity
8
0
100
AcDbLine
10
9.4965038538398971
20
-203.61114908102644
30
0
11
38.611387563338312
21
-203.61114908102647
31
0
0
LINE
5
118
100
AcDbEntity
8
0
100
AcDbLine
10
38.611387563338312
20
-203.61114908102647
30
0
11
38.611387563338312
21
-104.35883359494244
31
0
0
LINE
5
119
100
AcDbEntity
8
0
100
AcDbLine
10
38.611387563338312
20
-80.087993693590505
30
0
11
38.611387563338312
21
-49.006541577066756
31
0
0
LINE
5
120
100
AcDbEntity
8
0
100
AcDbLine
10
230.33683233720308
20
-49.571864824243889
30
0
11
230.33683233720308
21
-203.61112320179211
31
0
0
LINE
5
121
100
AcDbEntity
8
0
100
AcDbLine
10
230.33683233720308
20
-203.61112320179211
30
0
11
257.88822749713046
21
-203.61112320179211
31
0
0
LINE
5
122
100
AcDbEntity
8
0
100
AcDbLine
10
257.88822749713046
20
-203.61112320179211
30
0
11
257.88822749713046
21
-178.38934220916207
31
0
0
LINE
5
123
100
AcDbEntity
8
0
100
AcDbLine
10
257.88822749713046
20
-178.38934220916207
30
0
11
254.92020712495329
21
-178.45828233277166
31
0
0
LINE
5
124
100
AcDbEntity
8
0
100
AcDbLine
10
254.92020712495329
20
-178.45828233277166
30
0
11
254.90203990246496
21
-148.67816104391704
31
0
0
LINE
5
125
100
AcDbEntity
8
0
100
AcDbLine
10
254.90203990246496
20
-148.67816104391704
30
0
11
257.8880722217246
21
-148.6753358941711
31
0
0
LINE
5
126
100
AcDbEntity
8
0
100
AcDbLine
10
257.8880722217246
20
-148.6753358941711
30
0
11
257.8880722217246
21
-118.67519151178203
31
0
0
LINE
5
127
100
AcDbEntity
8
0
100
AcDbLine
10
257.8880722217246
20
-118.67519151178203
30
0
11
254.8399469929343
21
-118.67519151178203
31
0
0
LINE
5
128
100
AcDbEntity
8
0
100
AcDbLine
10
254.8399469929343
20
-118.67519151178203
30
0
11
254.88992842080597
21
-88.743450258890491
31
0
0
LINE
5
129
100
AcDbEntity
8
0
100
AcDbLine
10
254.88992842080597
20
-88.743450258890491
30
0
11
257.8880722217246
21
-88.743450258890491
31
0
0
LINE
5
130
100
AcDbEntity
8
0
100
AcDbLine
10
257.8880722217246
20
-88.743450258890491
30
0
11
257.8880722217246
21
-63.540233303675031
31
0
0
LINE
5
131
100
AcDbEntity
8
0
100
AcDbLine
10
178.58165899844269
20
-9.4547384318793739
30
0
11
178.58165899844269
21
-12.452916738443706
31
0
0
LINE
5
132
100
AcDbEntity
8
0
100
AcDbLine
10
178.58165899844269
20
-12.452916738443706
30
0
11
148.59995357050235
21
-12.502898166315411
31
0
0
LINE
5
133
100
AcDbEntity
8
0
100
AcDbLine
10
148.59995357050235
20
-12.502898166315411
30
0
11
148.59995357050229
21
-9.4547384318793739
31
0
0
LINE
5
134
100
AcDbEntity
8
0
100
AcDbLine
10
148.59995357050229
20
-9.4547384318793739
30
0
11
118.76814066770842
21
-9.4547384318793739
31
0
0
LINE
5
135
100
AcDbEntity
8
0
100
AcDbLine
10
118.76814066770842
20
-9.4547384318793739
30
0
11
118.71820237189391
21
-12.485438309564923
31
0
0
LINE
5
136
100
AcDbEntity
8
0
100
AcDbLine
10
118.71820237189391
20
-12.485438309564923
30
0
11
88.476127974849192
21
-12.485438309564923
31
0
0
LINE
5
137
100
AcDbEntity
8
0
100
AcDbLine
10
63.581728153461512
20
-9.4549735221922511
30
0
11
63.581712975756673
21
-9.4555320617316703
31
0
0
LINE
5
138
100
AcDbEntity
8
0
100
AcDbLine
10
360.3014326623221
20
-320.21453364295428
30
0
11
360.3014326623221
21
-402.93193346575401
31
0
0
LINE
5
139
100
AcDbEntity
8
0
100
AcDbLine
10
235.3475179266043
20
-402.9319334657539
30
0
11
235.34751792660433
21
-320.21453364295428
31
0
0
LINE
5
140
100
AcDbEntity
8
0
100
AcDbLine
10
259.42491085989406
20
-180.91742942950756
30
0
11
259.42489364294744
21
-240.83787634233795
31
0
0
LINE
5
141
100
AcDbEntity
8
0
100
AcDbLine
10
313.39848913252683
20
-293.52135694219817
30
0
11
446.42691480795861
21
-293.52135694219817
31
0
0
LINE
5
142
100
AcDbEntity
8
0
100
AcDbLine
10
446.42691480795861
20
-293.52135694219817
30
0
11
446.42691480795861
21
-293.45269001617351
31
0
0
LINE
5
143
100
AcDbEntity
8
0
100
AcDbLine
10
446.42691480795861
20
-216.15317517760727
30
0
11
446.42691480795861
21
-216.21611145708903
31
0
0
LINE
5
144
100
AcDbEntity
8
0
100
AcDbLine
10
446.42691480795861
20
-187.00196440323543
30
0
11
446.42691480795861
21
-187.00186357074494
31
0
0
LINE
5
145
100
AcDbEntity
8
0
100
AcDbLine
10
446.42691480795861
20
-157.79270772517066
30
0
11
446.42691480795861
21
-157.8212265145647
31
0
0
LINE
5
146
100
AcDbEntity
8
0
100
AcDbLine
10
446.42691480795861
20
-128.56788923274007
30
0
11
446.42691480795861
21
-128.56953616341809
31
0
0
SPLINE
5
147
100
AcDbEntity
8
0
100
AcDbSpline
70
1064
71
3
72
8
73
4
74
0
42
0.000000001
43
0.0000000001
44
0.0000000001
40
0
40
0
40
0
40
0
40
1
40
1
40
1
40
1
10
446.42691480795861
20
-53.422778191430112
30
0
10
401.11371896251143
20
-53.544079677491368
30
0
10
358.71180549660068
20
-53.520148766414678
30
0
10
313.39852356642018
20
-53.520148766414678
30
0
0
LINE
5
148
100
AcDbEntity
8
0
100
AcDbLine
10
259.42492807684079
20
-106.20310839840739
30
0
11
259.42491085989411
21
-166.02682334202626
31
0
0
LINE
5
149
100
AcDbEntity
8
0
100
AcDbLine
10
259.42491085989411
20
-166.02682334202626
30
0
11
260.93029180858031
21
-166.02655445538494
31
0
0
LINE
5
150
100
AcDbEntity
8
0
100
AcDbLine
10
260.93029180858031
20
-166.02655445538494
30
0
11
270.78654613423788
21
-166.02655445538494
31
0
0
LINE
5
151
100
AcDbEntity
8
0
100
AcDbLine
10
270.78654613423788
20
-166.02655445538494
30
0
11
270.78654613423788
21
-166.59494720428543
31
0
0
LINE
5
152
100
AcDbEntity
8
0
100
AcDbLine
10
270.78654613423788
20
-166.59494720428543
30
0
11
270.78654613423788
21
-180.48808468499482
31
0
0
LINE
5
153
100
AcDbEntity
8
0
100
AcDbLine
10
270.78654613423788
20
-180.48808468499482
30
0
11
270.78654613423788
21
-180.91747984575278
31
0
0
LINE
5
154
100
AcDbEntity
8
0
100
AcDbLine
10
270.78654613423788
20
-180.91747984575278
30
0
11
260.93029180858031
21
-180.91747984575281
31
0
0
LINE
5
155
100
AcDbEntity
8
0
100
AcDbLine
10
260.93029180858031
20
-180.91747984575281
30
0
11
259.42491085989406
21
-180.91742942950756
31
0
0
ELLIPSE
5
156
100
AcDbEntity
8
0
100
AcDbEllipse
10
389.52475781922055
20
-241.18308208504388
30
0
11
0
21
1.6501431480426967
31
0.0
40
0.99922003239944324
41
0
42
6.2831853071795862
0
ELLIPSE
5
157
100
AcDbEntity
8
0
100
AcDbEllipse
10
389.52475781922055
20
-219.08600991040171
30
0
11
0
21
1.6501431480426967
31
0.0
40
0.99922003239944324
41
0
42
6.2831853071795862
0
ELLIPSE
5
158
100
AcDbEntity
8
0
100
AcDbEllipse
10
335.35159257994644
20
-162.68379025264437
30
0
11
0
21
1.6501431480426967
31
0.0
40
0.99922003239944324
41
0
42
6.2831853071795862
0
ELLIPSE
5
159
100
AcDbEntity
8
0
100
AcDbEllipse
10
335.2809337459999
20
-184.23740475200242
30
0
11
0
21
1.6501431480426967
31
0.0
40
0.99922003239944324
41
0
42
6.2831853071795862
0
LINE
5
160
100
AcDbEntity
8
0
100
AcDbLine
10
347.37834370965481
20
-258.03273325565181
30
0
11
347.37827469836333
21
-258.03275482168044
31
0
0
ELLIPSE
5
161
100
AcDbEntity
8
0
100
AcDbEllipse
10
316.45286722898521
20
-255.95769315356705
30
0
11
5.8954023930680011
21
0
31
0.0
40
0.9760975104084596
41
0
42
6.2831853071795862
0
LWPOLYLINE
5
162
100
AcDbEntity
8
0
100
AcDbPolyline
90
4
70
1
43
0.0
10
434.57065353405488
20
-159.83936780544292
10
408.55654148948543
20
-159.83936780544292
10
408.51878284807333
20
-163.07183588156971
10
434.57065353405483
20
-163.07183588156971
0
LWPOLYLINE
5
163
100
AcDbEntity
8
0
100
AcDbPolyline
90
4
70
1
43
0.0
10
434.47538733181102
20
-183.87193058666463
10
408.46127528724162
20
-183.87193058666463
10
408.42351664582958
20
-187.10439866279137
10
434.47538733181102
20
-187.10439866279137
0
ELLIPSE
5
164
100
AcDbEntity
8
0
100
AcDbEllipse
10
284.55346297590842
20
-476.95666042494156
30
0
11
1.8573626119437503
21
0
31
0.0
40
0.99999993912438023
41
0
42
6.2831853071795862
0
ELLIPSE
5
165
100
AcDbEntity
8
0
100
AcDbEllipse
10
311.09554648263094
20
-476.95666042494156
30
0
11
1.8573628946140004
21
0
31
0.0
40
0.99999984781097395
41
0
42
6.2831853071795862
0
LINE
5
166
100
AcDbEntity
8
0
100
AcDbLine
10
401.1366560484305
20
-312.44398931238919
30
0
11
401.1366560484305
21
-355.86324323812914
31
0
0
LINE
5
167
100
AcDbEntity
8
0
100
AcDbLine
10
407.84514017858794
20
-312.44398931238919
30
0
11
407.84514017858794
21
-355.86324323812914
31
0
0
LINE
5
168
100
AcDbEntity
8
0
100
AcDbLine
10
414.71459314617823
20
-312.44398931238919
30
0
11
414.71459314617823
21
-355.86324323812914
31
0
0
LINE
5
169
100
AcDbEntity
8
0
100
AcDbLine
10
421.1546923636771
20
-312.44398931238919
30
0
11
421.1546923636771
21
-355.86324323812914
31
0
0
LINE
5
170
100
AcDbEntity
8
0
100
AcDbLine
10
427.59482608682157
20
-312.44398931238919
30
0
11
427.59482608682157
21
-355.86324323812914
31
0
0
LINE
5
171
100
AcDbEntity
8
0
100
AcDbLine
10
434.24961943218904
20
-312.44398931238919
30
0
11
434.24961943218904
21
-355.86324323812914
31
0
0
LINE
5
172
100
AcDbEntity
8
0
100
AcDbLine
10
440.90441277755644
20
-312.44398931238919
30
0
11
440.90441277755644
21
-355.86324323812914
31
0
0
LINE
5
173
100
AcDbEntity
8
0
100
AcDbLine
10
447.3445119950552
20
-312.44398931238919
30
0
11
447.3445119950552
21
-355.86324323812914
31
0
0
LINE
5
174
100
AcDbEntity
8
0
100
AcDbLine
10
374.48097569375523
20
-312.44398931238919
30
0
11
374.48097569375523
21
-355.86324323812914
31
0
0
LINE
5
175
100
AcDbEntity
8
0
100
AcDbLine
10
380.92107491125398
20
-312.44398931238919
30
0
11
380.92107491125398
21
-355.86324323812914
31
0
0
LINE
5
176
100
AcDbEntity
8
0
100
AcDbLine
10
387.36120863439851
20
-312.44398931238919
30
0
11
387.36120863439851
21
-355.86324323812914
31
0
0
LINE
5
177
100
AcDbEntity
8
0
100
AcDbLine
10
394.01600197976592
20
-312.44398931238919
30
0
11
394.01600197976592
21
-355.86324323812914
31
0
0
LINE
5
178
100
AcDbEntity
8
0
100
AcDbLine
10
404.56727636038119
20
-301.33671889220835
30
0
11
404.56727636038119
21
-323.45253462427684
31
0
0
LINE
5
179
100
AcDbEntity
8
0
100
AcDbLine
10
411.28052226965247
20
-301.43547878736138
30
0
11
411.28052226965247
21
-323.55125973257009
31
0
0
LINE
5
180
100
AcDbEntity
8
0
100
AcDbLine
10
418.15484053329379
20
-301.43547878736138
30
0
11
418.15484053329379
21
-323.55125973257009
31
0
0
LINE
5
181
100
AcDbEntity
8
0
100
AcDbLine
10
424.59949449603187
20
-301.43547878736138
30
0
11
424.59949449603187
21
-323.55125973257009
31
0
0
LINE
5
182
100
AcDbEntity
8
0
100
AcDbLine
10
431.0441829644156
20
-301.43547878736138
30
0
11
431.0441829644156
21
-323.55125973257009
31
0
0
LINE
5
183
100
AcDbEntity
8
0
100
AcDbLine
10
437.70370358325101
20
-301.43547878736138
30
0
11
437.70370358325101
21
-323.55125973257009
31
0
0
LINE
5
184
100
AcDbEntity
8
0
100
AcDbLine
10
444.36318969644077
20
-301.43547878736138
30
0
11
444.36318969644077
21
-323.55125973257009
31
0
0
LINE
5
185
100
AcDbEntity
8
0
100
AcDbLine
10
450.80784365917879
20
-301.43547878736138
30
0
11
450.80784365917879
21
-323.55125973257009
31
0
0
LINE
5
186
100
AcDbEntity
8
0
100
AcDbLine
10
371.01840315383816
20
-301.42132053539689
30
0
11
371.01840315383816
21
-323.53710148060549
31
0
0
LINE
5
187
100
AcDbEntity
8
0
100
AcDbLine
10
377.89272141747949
20
-301.42132053539689
30
0
11
377.89272141747949
21
-323.53710148060549
31
0
0
LINE
5
188
100
AcDbEntity
8
0
100
AcDbLine
10
384.33740988586328
20
-301.42132053539689
30
0
11
384.33740988586328
21
-323.53710148060549
31
0
0
LINE
5
189
100
AcDbEntity
8
0
100
AcDbLine
10
390.78209835424718
20
-301.42132053539689
30
0
11
390.78209835424718
21
-323.53710148060549
31
0
0
LINE
5
190
100
AcDbEntity
8
0
100
AcDbLine
10
397.44158446743683
20
-301.42132053539689
30
0
11
397.44158446743683
21
-323.53710148060549
31
0
0
LINE
5
191
100
AcDbEntity
8
0
100
AcDbLine
10
404.57196912820342
20
-343.56100939477028
30
0
11
404.57196912820342
21
-387.28997073387688
31
0
0
LINE
5
192
100
AcDbEntity
8
0
100
AcDbLine
10
411.28021171884063
20
-343.75626803918527
30
0
11
411.28021171884063
21
-387.48515980457216
31
0
0
LINE
5
193
100
AcDbEntity
8
0
100
AcDbLine
10
418.14949215820218
20
-343.75626803918527
30
0
11
418.14949215820218
21
-387.48515980457216
31
0
0
LINE
5
194
100
AcDbEntity
8
0
100
AcDbLine
10
424.58945335311796
20
-343.75626803918527
30
0
11
424.58945335311796
21
-387.48515980457216
31
0
0
LINE
5
195
100
AcDbEntity
8
0
100
AcDbLine
10
431.02938004238803
20
-343.75626803918527
30
0
11
431.02938004238803
21
-387.48515980457216
31
0
0
LINE
5
196
100
AcDbEntity
8
0
100
AcDbLine
10
437.68396635388092
20
-343.75626803918527
30
0
11
437.68396635388092
21
-387.48515980457216
31
0
0
LINE
5
197
100
AcDbEntity
8
0
100
AcDbLine
10
444.33858717101964
20
-343.75626803918527
30
0
11
444.33858717101964
21
-387.48515980457216
31
0
0
LINE
5
198
100
AcDbEntity
8
0
100
AcDbLine
10
450.77847935464382
20
-343.75626803918527
30
0
11
450.77847935464382
21
-387.48515980457216
31
0
0
LINE
5
199
100
AcDbEntity
8
0
100
AcDbLine
10
371.04776745837313
20
-343.72826461699498
30
0
11
371.04776745837313
21
-387.45715638238175
31
0
0
LINE
5
200
100
AcDbEntity
8
0
100
AcDbLine
10
377.9170133920889
20
-343.72826461699498
30
0
11
377.9170133920889
21
-387.45715638238175
31
0
0
LINE
5
201
100
AcDbEntity
8
0
100
AcDbLine
10
384.35697458700469
20
-343.72826461699498
30
0
11
384.35697458700469
21
-387.45715638238175
31
0
0
LINE
5
202
100
AcDbEntity
8
0
100
AcDbLine
10
390.79690127627475
20
-343.72826461699498
30
0
11
390.79690127627475
21
-387.45715638238175
31
0
0
LINE
5
203
100
AcDbEntity
8
0
100
AcDbLine
10
397.45152209341342
20
-343.72826461699498
30
0
11
397.45152209341342
21
-387.45715638238175
31
0
0
LINE
5
204
100
AcDbEntity
8
0
100
AcDbLine
10
404.57196912820342
20
-407.44387714335227
30
0
11
404.57196912820342
21
-451.17283848245881
31
0
0
LINE
5
205
100
AcDbEntity
8
0
100
AcDbLine
10
411.2802462244864
20
-407.63913578776726
30
0
11
411.2802462244864
21
-451.36802755315409
31
0
0
LINE
5
206
100
AcDbEntity
8
0
100
AcDbLine
10
418.14952666384795
20
-407.63913578776726
30
0
11
418.14952666384795
21
-451.36802755315409
31
0
0
LINE
5
207
100
AcDbEntity
8
0
100
AcDbLine
10
424.58948785876373
20
-407.63913578776726
30
0
11
424.58948785876373
21
-451.36802755315409
31
0
0
LINE
5
208
100
AcDbEntity
8
0
100
AcDbLine
10
431.02941454803374
20
-407.63913578776726
30
0
11
431.02941454803374
21
-451.36802755315409
31
0
0
LINE
5
209
100
AcDbEntity
8
0
100
AcDbLine
10
437.68400085952669
20
-407.63913578776726
30
0
11
437.68400085952669
21
-451.36802755315409
31
0
0
LINE
5
210
100
AcDbEntity
8
0
100
AcDbLine
10
444.33858717101964
20
-407.63913578776726
30
0
11
444.33858717101964
21
-451.36802755315409
31
0
0
LINE
5
211
100
AcDbEntity
8
0
100
AcDbLine
10
450.77851386028965
20
-407.63913578776726
30
0
11
450.77851386028965
21
-451.36802755315409
31
0
0
LINE
5
212
100
AcDbEntity
8
0
100
AcDbLine
10
371.04776745837313
20
-407.61113236557696
30
0
11
371.04776745837313
21
-451.34002413096374
31
0
0
LINE
5
213
100
AcDbEntity
8
0
100
AcDbLine
10
377.9170133920889
20
-407.61113236557696
30
0
11
377.9170133920889
21
-451.34002413096374
31
0
0
LINE
5
214
100
AcDbEntity
8
0
100
AcDbLine
10
384.35697458700469
20
-407.61113236557696
30
0
11
384.35697458700469
21
-451.34002413096374
31
0
0
LINE
5
215
100
AcDbEntity
8
0
100
AcDbLine
10
390.79693578192041
20
-407.61113236557696
30
0
11
390.79693578192041
21
-451.34002413096374
31
0
0
LINE
5
216
100
AcDbEntity
8
0
100
AcDbLine
10
397.45155659905919
20
-407.61113236557696
30
0
11
397.45155659905919
21
-451.34002413096374
31
0
0
LINE
5
217
100
AcDbEntity
8
0
100
AcDbLine
10
404.56727636038119
20
-471.43980218649131
30
0
11
404.56727636038119
21
-493.5556179185599
31
0
0
LINE
5
218
100
AcDbEntity
8
0
100
AcDbLine
10
411.28052226965247
20
-471.53856208164433
30
0
11
411.28052226965247
21
-493.65434302685298
31
0
0
LINE
5
219
100
AcDbEntity
8
0
100
AcDbLine
10
418.15484053329379
20
-471.53856208164433
30
0
11
418.15484053329379
21
-493.65434302685298
31
0
0
LINE
5
220
100
AcDbEntity
8
0
100
AcDbLine
10
424.59949449603187
20
-471.53856208164433
30
0
11
424.59949449603187
21
-493.65434302685298
31
0
0
LINE
5
221
100
AcDbEntity
8
0
100
AcDbLine
10
431.0441829644156
20
-471.53856208164433
30
0
11
431.0441829644156
21
-493.65434302685298
31
0
0
LINE
5
222
100
AcDbEntity
8
0
100
AcDbLine
10
437.70370358325101
20
-471.53856208164433
30
0
11
437.70370358325101
21
-493.65434302685298
31
0
0
LINE
5
223
100
AcDbEntity
8
0
100
AcDbLine
10
444.36318969644077
20
-471.53856208164433
30
0
11
444.36318969644077
21
-493.65434302685298
31
0
0
LINE
5
224
100
AcDbEntity
8
0
100
AcDbLine
10
450.80784365917879
20
-471.53856208164433
30
0
11
450.80784365917879
21
-493.65434302685298
31
0
0
LINE
5
225
100
AcDbEntity
8
0
100
AcDbLine
10
371.01840315383816
20
-471.5244038296799
30
0
11
371.01840315383816
21
-493.6401847748885
31
0
0
LINE
5
226
100
AcDbEntity
8
0
100
AcDbLine
10
377.89272141747949
20
-471.5244038296799
30
0
11
377.89272141747949
21
-493.6401847748885
31
0
0
LINE
5
227
100
AcDbEntity
8
0
100
AcDbLine
10
384.33740988586328
20
-471.5244038296799
30
0
11
384.33740988586328
21
-493.6401847748885
31
0
0
LINE
5
228
100
AcDbEntity
8
0
100
AcDbLine
10
390.78209835424718
20
-471.5244038296799
30
0
11
390.78209835424718
21
-493.6401847748885
31
0
0
LINE
5
229
100
AcDbEntity
8
0
100
AcDbLine
10
397.44158446743683
20
-471.5244038296799
30
0
11
397.44158446743683
21
-493.6401847748885
31
0
0
LINE
5
230
100
AcDbEntity
8
0
100
AcDbLine
10
401.13655253149324
20
-376.06285958146549
30
0
11
401.13655253149324
21
-419.4821135072055
31
0
0
LINE
5
231
100
AcDbEntity
8
0
100
AcDbLine
10
407.84503666165074
20
-376.06285958146549
30
0
11
407.84503666165074
21
-419.4821135072055
31
0
0
LINE
5
232
100
AcDbEntity
8
0
100
AcDbLine
10
414.71448962924109
20
-376.06285958146549
30
0
11
414.71448962924109
21
-419.4821135072055
31
0
0
LINE
5
233
100
AcDbEntity
8
0
100
AcDbLine
10
421.15458884673978
20
-376.06285958146549
30
0
11
421.15458884673978
21
-419.4821135072055
31
0
0
LINE
5
234
100
AcDbEntity
8
0
100
AcDbLine
10
427.59472256988437
20
-376.06285958146549
30
0
11
427.59472256988437
21
-419.4821135072055
31
0
0
LINE
5
235
100
AcDbEntity
8
0
100
AcDbLine
10
434.24951591525178
20
-376.06285958146549
30
0
11
434.24951591525178
21
-419.4821135072055
31
0
0
LINE
5
236
100
AcDbEntity
8
0
100
AcDbLine
10
440.90430926061919
20
-376.06285958146549
30
0
11
440.90430926061919
21
-419.4821135072055
31
0
0
LINE
5
237
100
AcDbEntity
8
0
100
AcDbLine
10
447.34440847811805
20
-376.06285958146549
30
0
11
447.34440847811805
21
-419.4821135072055
31
0
0
LINE
5
238
100
AcDbEntity
8
0
100
AcDbLine
10
374.48087217681797
20
-376.06285958146549
30
0
11
374.48087217681797
21
-419.4821135072055
31
0
0
LINE
5
239
100
AcDbEntity
8
0
100
AcDbLine
10
380.92097139431672
20
-376.06285958146549
30
0
11
380.92097139431672
21
-419.4821135072055
31
0
0
LINE
5
240
100
AcDbEntity
8
0
100
AcDbLine
10
387.36110511746125
20
-376.06285958146549
30
0
11
387.36110511746125
21
-419.4821135072055
31
0
0
LINE
5
241
100
AcDbEntity
8
0
100
AcDbLine
10
394.01589846282866
20
-376.06285958146549
30
0
11
394.01589846282866
21
-419.4821135072055
31
0
0
LINE
5
242
100
AcDbEntity
8
0
100
AcDbLine
10
401.13655253149324
20
-439.70538491524928
30
0
11
401.13655253149324
21
-483.12463884098923
31
0
0
LINE
5
243
100
AcDbEntity
8
0
100
AcDbLine
10
407.84503666165074
20
-439.70538491524928
30
0
11
407.84503666165074
21
-483.12463884098923
31
0
0
LINE
5
244
100
AcDbEntity
8
0
100
AcDbLine
10
414.71448962924109
20
-439.70538491524928
30
0
11
414.71448962924109
21
-483.12463884098923
31
0
0
LINE
5
245
100
AcDbEntity
8
0
100
AcDbLine
10
421.15458884673978
20
-439.70538491524928
30
0
11
421.15458884673978
21
-483.12463884098923
31
0
0
LINE
5
246
100
AcDbEntity
8
0
100
AcDbLine
10
427.59472256988437
20
-439.70538491524928
30
0
11
427.59472256988437
21
-483.12463884098923
31
0
0
LINE
5
247
100
AcDbEntity
8
0
100
AcDbLine
10
434.24951591525178
20
-439.70538491524928
30
0
11
434.24951591525178
21
-483.12463884098923
31
0
0
LINE
5
248
100
AcDbEntity
8
0
100
AcDbLine
10
440.90430926061919
20
-439.70538491524928
30
0
11
440.90430926061919
21
-483.12463884098923
31
0
0
LINE
5
249
100
AcDbEntity
8
0
100
AcDbLine
10
447.34440847811805
20
-439.70538491524928
30
0
11
447.34440847811805
21
-483.12463884098923
31
0
0
LINE
5
250
100
AcDbEntity
8
0
100
AcDbLine
10
374.48087217681797
20
-439.70538491524928
30
0
11
374.48087217681797
21
-483.12463884098923
31
0
0
LINE
5
251
100
AcDbEntity
8
0
100
AcDbLine
10
380.92097139431672
20
-439.70538491524928
30
0
11
380.92097139431672
21
-483.12463884098923
31
0
0
LINE
5
252
100
AcDbEntity
8
0
100
AcDbLine
10
387.36110511746125
20
-439.70538491524928
30
0
11
387.36110511746125
21
-483.12463884098923
31
0
0
LINE
5
253
100
AcDbEntity
8
0
100
AcDbLine
10
394.01589846282866
20
-439.70538491524928
30
0
11
394.01589846282866
21
-483.12463884098923
31
0
0
LINE
5
254
100
AcDbEntity
8
0
100
AcDbLine
10
175.42388194941796
20
-312.5877440947292
30
0
11
175.42388194941796
21
-356.00699802046927
31
0
0
LINE
5
255
100
AcDbEntity
8
0
100
AcDbLine
10
182.13236607957549
20
-312.5877440947292
30
0
11
182.13236607957549
21
-356.00699802046927
31
0
0
LINE
5
256
100
AcDbEntity
8
0
100
AcDbLine
10
189.00181904716575
20
-312.5877440947292
30
0
11
189.00181904716575
21
-356.00699802046927
31
0
0
LINE
5
257
100
AcDbEntity
8
0
100
AcDbLine
10
195.44191826466457
20
-312.5877440947292
30
0
11
195.44191826466457
21
-356.00699802046927
31
0
0
LINE
5
258
100
AcDbEntity
8
0
100
AcDbLine
10
201.88205198780909
20
-312.5877440947292
30
0
11
201.88205198780909
21
-356.00699802046927
31
0
0
LINE
5
259
100
AcDbEntity
8
0
100
AcDbLine
10
208.53684533317653
20
-312.5877440947292
30
0
11
208.53684533317653
21
-356.00699802046927
31
0
0
LINE
5
260
100
AcDbEntity
8
0
100
AcDbLine
10
215.19163867854394
20
-312.5877440947292
30
0
11
215.19163867854394
21
-356.00699802046927
31
0
0
LINE
5
261
100
AcDbEntity
8
0
100
AcDbLine
10
221.63173789604275
20
-312.5877440947292
30
0
11
221.63173789604275
21
-356.00699802046927
31
0
0
LINE
5
262
100
AcDbEntity
8
0
100
AcDbLine
10
148.76820159474266
20
-312.5877440947292
30
0
11
148.76820159474266
21
-356.00699802046927
31
0
0
LINE
5
263
100
AcDbEntity
8
0
100
AcDbLine
10
155.20830081224145
20
-312.5877440947292
30
0
11
155.20830081224145
21
-356.00699802046927
31
0
0
LINE
5
264
100
AcDbEntity
8
0
100
AcDbLine
10
161.64843453538597
20
-312.5877440947292
30
0
11
161.64843453538597
21
-356.00699802046927
31
0
0
LINE
5
265
100
AcDbEntity
8
0
100
AcDbLine
10
168.30322788075341
20
-312.5877440947292
30
0
11
168.30322788075341
21
-356.00699802046927
31
0
0
LINE
5
266
100
AcDbEntity
8
0
100
AcDbLine
10
178.85450226136865
20
-301.48047367454831
30
0
11
178.85450226136865
21
-323.59628940661679
31
0
0
LINE
5
267
100
AcDbEntity
8
0
100
AcDbLine
10
185.5677481706399
20
-301.57923356970139
30
0
11
185.5677481706399
21
-323.6950145149101
31
0
0
LINE
5
268
100
AcDbEntity
8
0
100
AcDbLine
10
192.44206643428126
20
-301.57923356970139
30
0
11
192.44206643428126
21
-323.6950145149101
31
0
0
LINE
5
269
100
AcDbEntity
8
0
100
AcDbLine
10
198.8867203970193
20
-301.57923356970139
30
0
11
198.8867203970193
21
-323.6950145149101
31
0
0
LINE
5
270
100
AcDbEntity
8
0
100
AcDbLine
10
205.33140886540306
20
-301.57923356970139
30
0
11
205.33140886540306
21
-323.6950145149101
31
0
0
LINE
5
271
100
AcDbEntity
8
0
100
AcDbLine
10
211.99092948423853
20
-301.57923356970139
30
0
11
211.99092948423853
21
-323.6950145149101
31
0
0
LINE
5
272
100
AcDbEntity
8
0
100
AcDbLine
10
218.65041559742824
20
-301.57923356970139
30
0
11
218.65041559742824
21
-323.6950145149101
31
0
0
LINE
5
273
100
AcDbEntity
8
0
100
AcDbLine
10
225.09506956016628
20
-301.57923356970139
30
0
11
225.09506956016628
21
-323.6950145149101
31
0
0
LINE
5
274
100
AcDbEntity
8
0
100
AcDbLine
10
145.30562905482566
20
-301.5650753177369
30
0
11
145.30562905482566
21
-323.6808562629455
31
0
0
LINE
5
275
100
AcDbEntity
8
0
100
AcDbLine
10
152.17994731846704
20
-301.5650753177369
30
0
11
152.17994731846704
21
-323.6808562629455
31
0
0
LINE
5
276
100
AcDbEntity
8
0
100
AcDbLine
10
158.62463578685083
20
-301.5650753177369
30
0
11
158.62463578685083
21
-323.6808562629455
31
0
0
LINE
5
277
100
AcDbEntity
8
0
100
AcDbLine
10
165.06932425523462
20
-301.5650753177369
30
0
11
165.06932425523462
21
-323.6808562629455
31
0
0
LINE
5
278
100
AcDbEntity
8
0
100
AcDbLine
10
171.72881036842432
20
-301.5650753177369
30
0
11
171.72881036842432
21
-323.6808562629455
31
0
0
LINE
5
279
100
AcDbEntity
8
0
100
AcDbLine
10
178.85919502919091
20
-343.70476417711029
30
0
11
178.85919502919091
21
-387.4337255162169
31
0
0
LINE
5
280
100
AcDbEntity
8
0
100
AcDbLine
10
185.56743761982813
20
-343.90002282152523
30
0
11
185.56743761982813
21
-387.62891458691206
31
0
0
LINE
5
281
100
AcDbEntity
8
0
100
AcDbLine
10
192.43671805918973
20
-343.90002282152523
30
0
11
192.43671805918973
21
-387.62891458691206
31
0
0
LINE
5
282
100
AcDbEntity
8
0
100
AcDbLine
10
198.87667925410551
20
-343.90002282152523
30
0
11
198.87667925410551
21
-387.62891458691206
31
0
0
LINE
5
283
100
AcDbEntity
8
0
100
AcDbLine
10
205.31660594337549
20
-343.90002282152523
30
0
11
205.31660594337549
21
-387.62891458691206
31
0
0
LINE
5
284
100
AcDbEntity
8
0
100
AcDbLine
10
211.97119225486844
20
-343.90002282152523
30
0
11
211.97119225486844
21
-387.62891458691206
31
0
0
LINE
5
285
100
AcDbEntity
8
0
100
AcDbLine
10
218.62581307200708
20
-343.90002282152523
30
0
11
218.62581307200708
21
-387.62891458691206
31
0
0
LINE
5
286
100
AcDbEntity
8
0
100
AcDbLine
10
225.06570525563137
20
-343.90002282152523
30
0
11
225.06570525563137
21
-387.62891458691206
31
0
0
LINE
5
287
100
AcDbEntity
8
0
100
AcDbLine
10
145.3349933593606
20
-343.87201939933504
30
0
11
145.3349933593606
21
-387.60091116472188
31
0
0
LINE
5
288
100
AcDbEntity
8
0
100
AcDbLine
10
152.2042392930764
20
-343.87201939933504
30
0
11
152.2042392930764
21
-387.60091116472188
31
0
0
LINE
5
289
100
AcDbEntity
8
0
100
AcDbLine
10
158.64420048799218
20
-343.87201939933504
30
0
11
158.64420048799218
21
-387.60091116472188
31
0
0
LINE
5
290
100
AcDbEntity
8
0
100
AcDbLine
10
165.08412717726219
20
-343.87201939933504
30
0
11
165.08412717726219
21
-387.60091116472188
31
0
0
LINE
5
291
100
AcDbEntity
8
0
100
AcDbLine
10
171.73874799440088
20
-343.87201939933504
30
0
11
171.73874799440088
21
-387.60091116472188
31
0
0
LINE
5
292
100
AcDbEntity
8
0
100
AcDbLine
10
178.85919502919091
20
-407.58763192569234
30
0
11
178.85919502919091
21
-451.31659326479883
31
0
0
LINE
5
293
100
AcDbEntity
8
0
100
AcDbLine
10
185.56747212547384
20
-407.78289057010727
30
0
11
185.56747212547384
21
-451.5117823354941
31
0
0
LINE
5
294
100
AcDbEntity
8
0
100
AcDbLine
10
192.43675256483544
20
-407.78289057010727
30
0
11
192.43675256483544
21
-451.5117823354941
31
0
0
LINE
5
295
100
AcDbEntity
8
0
100
AcDbLine
10
198.87671375975123
20
-407.78289057010727
30
0
11
198.87671375975123
21
-451.5117823354941
31
0
0
LINE
5
296
100
AcDbEntity
8
0
100
AcDbLine
10
205.31664044902126
20
-407.78289057010727
30
0
11
205.31664044902126
21
-451.5117823354941
31
0
0
LINE
5
297
100
AcDbEntity
8
0
100
AcDbLine
10
211.97122676051418
20
-407.78289057010727
30
0
11
211.97122676051418
21
-451.5117823354941
31
0
0
LINE
5
298
100
AcDbEntity
8
0
100
AcDbLine
10
218.62581307200708
20
-407.78289057010727
30
0
11
218.62581307200708
21
-451.5117823354941
31
0
0
LINE
5
299
100
AcDbEntity
8
0
100
AcDbLine
10
225.06573976127711
20
-407.78289057010727
30
0
11
225.06573976127711
21
-451.5117823354941
31
0
0
LINE
5
300
100
AcDbEntity
8
0
100
AcDbLine
10
145.3349933593606
20
-407.75488714791697
30
0
11
145.3349933593606
21
-451.48377891330381
31
0
0
LINE
5
301
100
AcDbEntity
8
0
100
AcDbLine
10
152.2042392930764
20
-407.75488714791697
30
0
11
152.2042392930764
21
-451.48377891330381
31
0
0
LINE
5
302
100
AcDbEntity
8
0
100
AcDbLine
10
158.64420048799218
20
-407.75488714791697
30
0
11
158.64420048799218
21
-451.48377891330381
31
0
0
LINE
5
303
100
AcDbEntity
8
0
100
AcDbLine
10
165.08416168290796
20
-407.75488714791697
30
0
11
165.08416168290796
21
-451.48377891330381
31
0
0
LINE
5
304
100
AcDbEntity
8
0
100
AcDbLine
10
171.73878250004665
20
-407.75488714791697
30
0
11
171.73878250004665
21
-451.48377891330381
31
0
0
LINE
5
305
100
AcDbEntity
8
0
100
AcDbLine
10
178.85450226136865
20
-471.58355696883126
30
0
11
178.85450226136865
21
-493.69937270089991
31
0
0
LINE
5
306
100
AcDbEntity
8
0
100
AcDbLine
10
185.5677481706399
20
-471.68231686398434
30
0
11
185.5677481706399
21
-493.798097809193
31
0
0
LINE
5
307
100
AcDbEntity
8
0
100
AcDbLine
10
192.44206643428126
20
-471.68231686398434
30
0
11
192.44206643428126
21
-493.798097809193
31
0
0
LINE
5
308
100
AcDbEntity
8
0
100
AcDbLine
10
198.8867203970193
20
-471.68231686398434
30
0
11
198.8867203970193
21
-493.798097809193
31
0
0
LINE
5
309
100
AcDbEntity
8
0
100
AcDbLine
10
205.33140886540306
20
-471.68231686398434
30
0
11
205.33140886540306
21
-493.798097809193
31
0
0
LINE
5
310
100
AcDbEntity
8
0
100
AcDbLine
10
211.99092948423853
20
-471.68231686398434
30
0
11
211.99092948423853
21
-493.798097809193
31
0
0
LINE
5
311
100
AcDbEntity
8
0
100
AcDbLine
10
218.65041559742824
20
-471.68231686398434
30
0
11
218.65041559742824
21
-493.798097809193
31
0
0
LINE
5
312
100
AcDbEntity
8
0
100
AcDbLine
10
225.09506956016628
20
-471.68231686398434
30
0
11
225.09506956016628
21
-493.798097809193
31
0
0
LINE
5
313
100
AcDbEntity
8
0
100
AcDbLine
10
145.30562905482566
20
-471.66815861201985
30
0
11
145.30562905482566
21
-493.78393955722851
31
0
0
LINE
5
314
100
AcDbEntity
8
0
100
AcDbLine
10
152.17994731846704
20
-471.66815861201985
30
0
11
152.17994731846704
21
-493.78393955722851
31
0
0
LINE
5
315
100
AcDbEntity
8
0
100
AcDbLine
10
158.62463578685083
20
-471.66815861201985
30
0
11
158.62463578685083
21
-493.78393955722851
31
0
0
LINE
5
316
100
AcDbEntity
8
0
100
AcDbLine
10
165.06932425523462
20
-471.66815861201985
30
0
11
165.06932425523462
21
-493.78393955722851
31
0
0
LINE
5
317
100
AcDbEntity
8
0
100
AcDbLine
10
171.72881036842432
20
-471.66815861201985
30
0
11
171.72881036842432
21
-493.78393955722851
31
0
0
LINE
5
318
100
AcDbEntity
8
0
100
AcDbLine
10
175.42377843248073
20
-376.2066143638055
30
0
11
175.42377843248073
21
-419.62586828954551
31
0
0
LINE
5
319
100
AcDbEntity
8
0
100
AcDbLine
10
182.1322625626382
20
-376.2066143638055
30
0
11
182.1322625626382
21
-419.62586828954551
31
0
0
LINE
5
320
100
AcDbEntity
8
0
100
AcDbLine
10
189.00171553022852
20
-376.2066143638055
30
0
11
189.00171553022852
21
-419.62586828954551
31
0
0
LINE
5
321
100
AcDbEntity
8
0
100
AcDbLine
10
195.44181474772731
20
-376.2066143638055
30
0
11
195.44181474772731
21
-419.62586828954551
31
0
0
LINE
5
322
100
AcDbEntity
8
0
100
AcDbLine
10
201.88194847087181
20
-376.2066143638055
30
0
11
201.88194847087181
21
-419.62586828954551
31
0
0
LINE
5
323
100
AcDbEntity
8
0
100
AcDbLine
10
208.53674181623927
20
-376.2066143638055
30
0
11
208.53674181623927
21
-419.62586828954551
31
0
0
LINE
5
324
100
AcDbEntity
8
0
100
AcDbLine
10
215.19153516160668
20
-376.2066143638055
30
0
11
215.19153516160668
21
-419.62586828954551
31
0
0
LINE
5
325
100
AcDbEntity
8
0
100
AcDbLine
10
221.63163437910549
20
-376.2066143638055
30
0
11
221.63163437910549
21
-419.62586828954551
31
0
0
LINE
5
326
100
AcDbEntity
8
0
100
AcDbLine
10
148.76809807780543
20
-376.2066143638055
30
0
11
148.76809807780543
21
-419.62586828954551
31
0
0
LINE
5
327
100
AcDbEntity
8
0
100
AcDbLine
10
155.20819729530422
20
-376.2066143638055
30
0
11
155.20819729530422
21
-419.62586828954551
31
0
0
LINE
5
328
100
AcDbEntity
8
0
100
AcDbLine
10
161.64833101844874
20
-376.2066143638055
30
0
11
161.64833101844874
21
-419.62586828954551
31
0
0
LINE
5
329
100
AcDbEntity
8
0
100
AcDbLine
10
168.30312436381618
20
-376.2066143638055
30
0
11
168.30312436381618
21
-419.62586828954551
31
0
0
LINE
5
330
100
AcDbEntity
8
0
100
AcDbLine
10
175.42377843248073
20
-439.84913969758929
30
0
11
175.42377843248073
21
-483.26839362332919
31
0
0
LINE
5
331
100
AcDbEntity
8
0
100
AcDbLine
10
182.1322625626382
20
-439.84913969758929
30
0
11
182.1322625626382
21
-483.26839362332919
31
0
0
LINE
5
332
100
AcDbEntity
8
0
100
AcDbLine
10
189.00171553022852
20
-439.84913969758929
30
0
11
189.00171553022852
21
-483.26839362332919
31
0
0
LINE
5
333
100
AcDbEntity
8
0
100
AcDbLine
10
195.44181474772731
20
-439.84913969758929
30
0
11
195.44181474772731
21
-483.26839362332919
31
0
0
LINE
5
334
100
AcDbEntity
8
0
100
AcDbLine
10
201.88194847087181
20
-439.84913969758929
30
0
11
201.88194847087181
21
-483.26839362332919
31
0
0
LINE
5
335
100
AcDbEntity
8
0
100
AcDbLine
10
208.53674181623927
20
-439.84913969758929
30
0
11
208.53674181623927
21
-483.26839362332919
31
0
0
LINE
5
336
100
AcDbEntity
8
0
100
AcDbLine
10
215.19153516160668
20
-439.84913969758929
30
0
11
215.19153516160668
21
-483.26839362332919
31
0
0
LINE
5
337
100
AcDbEntity
8
0
100
AcDbLine
10
221.63163437910549
20
-439.84913969758929
30
0
11
221.63163437910549
21
-483.26839362332919
31
0
0
LINE
5
338
100
AcDbEntity
8
0
100
AcDbLine
10
148.76809807780543
20
-439.84913969758929
30
0
11
148.76809807780543
21
-483.26839362332919
31
0
0
LINE
5
339
100
AcDbEntity
8
0
100
AcDbLine
10
155.20819729530422
20
-439.84913969758929
30
0
11
155.20819729530422
21
-483.26839362332919
31
0
0
LINE
5
340
100
AcDbEntity
8
0
100
AcDbLine
10
161.64833101844874
20
-439.84913969758929
30
0
11
161.64833101844874
21
-483.26839362332919
31
0
0
LINE
5
341
100
AcDbEntity
8
0
100
AcDbLine
10
168.30312436381618
20
-439.84913969758929
30
0
11
168.30312436381618
21
-483.26839362332919
31
0
0
ELLIPSE
5
342
100
AcDbEntity
8
0
100
AcDbEllipse
10
240.97449594553862
20
-182.80518953725635
30
0
11
-2.0903333498709284
21
0
31
0.0
40
0.99923172971465501
41
-1.5707963267948966
42
4.7123889803846897
0
ELLIPSE
5
343
100
AcDbEntity
8
0
100
AcDbEllipse
10
240.97449594553862
20
-59.969419048506289
30
0
11
-2.0903333498709284
21
0
31
0.0
40
0.99923172971465501
41
-1.5707963267948966
42
4.7123889803846897
0
ELLIPSE
5
344
100
AcDbEntity
8
0
100
AcDbEllipse
10
28.960436621381117
20
-59.996159654156394
30
0
11
-2.0903333498709284
21
0
31
0.0
40
0.99923172971465501
41
-1.5707963267948966
42
4.7123889803846897
0
ELLIPSE
5
345
100
AcDbEntity
8
0
100
AcDbEllipse
10
29.714999413433606
20
-182.80513300320652
30
0
11
-2.0903333498709284
21
0
31
0.0
40
0.99923172971465501
41
-1.5707963267948966
42
4.7123889803846897
0
ELLIPSE
5
346
100
AcDbEntity
8
0
100
AcDbEllipse
10
306.70361130886369
20
-67.206851595456257
30
0
11
-2.0903333498709284
21
0
31
0.0
40
0.99923172971465501
41
-1.5707963267948966
42
4.7123889803846897
0
ELLIPSE
5
347
100
AcDbEntity
8
0
100
AcDbEllipse
10
429.53932526356368
20
-67.206851595456257
30
0
11
-2.0903333498709284
21
0
31
0.0
40
0.99923172971465501
41
-1.5707963267948966
42
4.7123889803846897
0
ELLIPSE
5
348
100
AcDbEntity
8
0
100
AcDbEllipse
10
429.53932526356368
20
-278.4663142071314
30
0
11
-2.0903333498709284
21
0
31
0.0
40
0.99923172971465501
41
-1.5707963267948966
42
4.7123889803846897
0
ELLIPSE
5
349
100
AcDbEntity
8
0
100
AcDbEllipse
10
306.73035191451362
20
-279.22087417248156
30
0
11
-2.0903333498709284
21
0
31
0.0
40
0.99923172971465501
41
-1.5707963267948966
42
4.7123889803846897
0
ELLIPSE
5
350
100
AcDbEntity
8
0
100
AcDbEllipse
10
192.62513034402116
20
-170.38056280179873
30
0
11
-2.276187022023866
21
0
31
0.0
40
0.99921783797847341
41
-1.5707963267948966
42
4.7123889803846897
0
ELLIPSE
5
351
100
AcDbEntity
8
0
100
AcDbEllipse
10
73.840459849956162
20
-170.38056280179873
30
0
11
-2.276187022023866
21
0
31
0.0
40
0.99921783797847341
41
-1.5707963267948966
42
4.7123889803846897
0
LINE
5
352
100
AcDbEntity
8
0
100
AcDbLine
10
281.79051969056655
20
-429.56028403192698
30
0
11
313.84132060312402
21
-429.56028403192698
31
0
0
LINE
5
353
100
AcDbEntity
8
0
100
AcDbLine
10
281.79051969056655
20
-461.6110849444845
30
0
11
281.79051969056655
21
-429.56028403192698
31
0
0
LINE
5
354
100
AcDbEntity
8
0
100
AcDbLine
10
247.77645752215881
20
-307.73525618691798
30
0
11
347.85539025787665
21
-307.73525618691798
31
0
0
LINE
5
355
100
AcDbEntity
8
0
100
AcDbLine
10
347.85539025787659
20
-415.32763800971765
30
0
11
247.77645752215881
21
-415.32763800971765
31
0
0
LWPOLYLINE
5
356
100
AcDbEntity
8
0
100
AcDbPolyline
90
4
70
1
43
0.0
10
612.36083937017133
20
-190.8842579520157
10
612.36083937017133
20
-147.76770242342835
10
648.58099039001581
20
-147.76770242342832
10
630.62817998972389
20
-190.8842579520157
0
LWPOLYLINE
5
357
100
AcDbEntity
8
0
100
AcDbPolyline
90
18
70
1
43
0.0
10
449.54375213403404
20
-57.205099347104245
10
449.54375213403404
20
-43.568356551159695
10
446.37933616071348
20
-43.568356551159695
10
446.37933616071348
20
-37.246041723203767
10
443.31414425539975
20
-37.246041723203767
10
443.31414425539975
20
-21.455687304919945
10
449.54371072017966
20
-21.455687304919838
10
449.54371072017955
20
-17.240960277429608
10
482.19721221871788
20
-17.240960277429107
10
487.19587875835083
20
-20.82336246651878
10
487.19587875835083
20
-39.794404686581906
10
517.62907364085595
20
-39.794404686581906
10
520.94700694111623
20
-43.267243003393922
10
521.02142698812645
20
-57.245619517930649
10
463.103350385689
20
-57.294272483306187
10
463.10335038568905
20
-54.284506717172185
10
453.5000067576766
20
-54.284506717171951
10
453.5000067576766
20
-57.205099347104245
0
LWPOLYLINE
5
358
100
AcDbEntity
8
0
100
AcDbPolyline
90
20
70
1
43
0.0
10
542.24205023846037
20
-50.774833514342419
10
526.31313230801857
20
-50.771451960720661
42
-0.32064646779422512
10
522.59661569118111
20
-48.113757847844283
10
522.59661569118111
20
-35.629613966373348
10
512.00095043304577
20
-35.629613966373348
10
509.02844450527141
20
-33.000594047984329
10
509.02844450527141
20
-18.287833801470402
10
566.73045539338557
20
-18.296598236367878
10
566.73045539338557
20
-20.758679823915116
10
576.33346229408801
20
-20.758679823915116
10
576.33345195066249
20
-18.307087953725446
10
580.28428948434544
20
-18.307087953725446
10
580.28428948434544
20
-31.93478355541696
10
583.44869854945523
20
-31.93478355541696
10
583.44869854945523
20
-38.25704662489909
10
586.51389050903617
20
-38.256968513682054
10
586.51389050903617
20
-54.047383790358424
10
580.28434124281091
20
-54.047383790358424
10
580.28434124281091
20
-58.699366404543447
10
547.9642850319899
20
-58.693707478074224
0
ELLIPSE
5
359
100
AcDbEntity
8
0
100
AcDbEllipse
10
544.57213777897755
20
-110.57658364108025
30
0
11
-1.8573620062032326
21
0
31
0.0
40
0.99999997697019671
41
-1.5707963267948966
42
4.7123889803846897
0
ELLIPSE
5
360
100
AcDbEntity
8
0
100
AcDbEllipse
10
472.13788745316083
20
-110.57658364108025
30
0
11
-1.857362260606483
21
0
31
0.0
40
0.99999991609455041
41
-1.5707963267948966
42
4.7123889803846897
0
ELLIPSE
5
361
100
AcDbEntity
8
0
100
AcDbEllipse
10
550.61190273405919
20
-198.365449649223
30
0
11
-1.8573620062032326
21
0
31
0.0
40
0.99999997697019671
41
-1.5707963267948966
42
4.7123889803846897
0
ELLIPSE
5
362
100
AcDbEntity
8
0
100
AcDbEllipse
10
466.70069355696393
20
-198.365449649223
30
0
11
-1.857362260606483
21
0
31
0.0
40
0.99999991609455041
41
-1.5707963267948966
42
4.7123889803846897
0
LWPOLYLINE
5
363
100
AcDbEntity
8
0
100
AcDbPolyline
90
4
70
1
43
0.0
10
522.31242029795067
20
-107.7304581791505
10
522.31242029795067
20
-125.43980978792364
10
519.07112370817754
20
-125.46551433843418
10
519.07112370817754
20
-107.7304581791505
0
LWPOLYLINE
5
364
100
AcDbEntity
8
0
100
AcDbPolyline
90
4
70
1
43
0.0
10
498.21421980477936
20
-107.79531154293545
10
498.21421980477936
20
-125.50466315170858
10
494.97292321500629
20
-125.5303677022191
10
494.97292321500629
20
-107.79531154293544
0
LINE
5
365
100
AcDbEntity
8
0
100
AcDbLine
10
532.75203788566807
20
-190.37710604997375
30
0
11
532.58289119327731
21
-213.06884547045172
31
0
0
SPLINE
5
366
100
AcDbEntity
8
0
100
AcDbSpline
70
1064
71
3
72
8
73
4
74
0
42
0.000000001
43
0.0000000001
44
0.0000000001
40
0
40
0
40
0
40
0
40
1
40
1
40
1
40
1
10
532.58289119327731
20
-213.06884547045172
30
0
10
538.74685959704289
20
-211.89158191932239
30
0
10
542.92692569990982
20
-210.6153561821142
30
0
10
548.04173258684818
20
-209.32325784881257
30
0
0
SPLINE
5
367
100
AcDbEntity
8
0
100
AcDbSpline
70
1064
71
2
72
6
73
3
74
0
42
0.000000001
43
0.0000000001
44
0.0000000001
40
0
40
0
40
0
40
1
40
1
40
1
10
548.04173258684818
20
-209.32325784881257
30
0
10
555.67948902652699
20
-207.39384027671144
30
0
10
561.08498875517205
20
-205.06470932820238
30
0
0
SPLINE
5
368
100
AcDbEntity
8
0
100
AcDbSpline
70
1064
71
2
72
6
73
3
74
0
42
0.000000001
43
0.0000000001
44
0.0000000001
40
0
40
0
40
0
40
1
40
1
40
1
10
561.08498875517205
20
-148.73127853261025
30
0
10
563.82472004902729
20
-129.22330584334753
30
0
10
565.43825596421095
20
-119.5076897744901
30
0
0
SPLINE
5
369
100
AcDbEntity
8
0
100
AcDbSpline
70
1064
71
2
72
6
73
3
74
0
42
0.000000001
43
0.0000000001
44
0.0000000001
40
0
40
0
40
0
40
1
40
1
40
1
10
565.43825596421095
20
-119.5076897744901
30
0
10
566.2821088682831
20
-114.42659571979769
30
0
10
568.22396603562856
20
-104.30885087947462
30
0
0
LINE
5
370
100
AcDbEntity
8
0
100
AcDbLine
10
568.22396603562856
20
-104.30885087947462
30
0
11
447.95090264708682
21
-104.47116542735299
31
0
0
SPLINE
5
371
100
AcDbEntity
8
0
100
AcDbSpline
70
1064
71
2
72
6
73
3
74
0
42
0.000000001
43
0.0000000001
44
0.0000000001
40
0
40
0
40
0
40
1
40
1
40
1
10
447.95090264708682
20
-104.47116542735299
30
0
10
449.34709610435607
20
-114.51610335950772
30
0
10
450.23250243648027
20
-119.5076897744901
30
0
0
SPLINE
5
372
100
AcDbEntity
8
0
100
AcDbSpline
70
1064
71
2
72
6
73
3
74
0
42
0.000000001
43
0.0000000001
44
0.0000000001
40
0
40
0
40
0
40
1
40
1
40
1
10
450.23250243648027
20
-119.5076897744901
30
0
10
451.9827669866288
20
-129.37499265297197
30
0
10
456.22056104061141
20
-148.96929846272604
30
0
0
LINE
5
373
100
AcDbEntity
8
0
100
AcDbLine
10
456.22056104061141
20
-148.96929846272604
30
0
11
456.22056104061141
21
-205.06470932820238
31
0
0
SPLINE
5
374
100
AcDbEntity
8
0
100
AcDbSpline
70
1064
71
2
72
6
73
3
74
0
42
0.000000001
43
0.0000000001
44
0.0000000001
40
0
40
0
40
0
40
1
40
1
40
1
10
456.22056104061141
20
-205.06470932820238
30
0
10
465.41529001001862
20
-208.67006601391964
30
0
10
470.32552152924768
20
-209.88859831489214
30
0
0
LINE
5
375
100
AcDbEntity
8
0
100
AcDbLine
10
470.32552152924768
20
-209.88859831489214
30
0
11
483.85247788809244
21
-213.24551436610162
31
0
0
SPLINE
5
376
100
AcDbEntity
8
0
100
AcDbSpline
70
1064
71
3
72
8
73
4
74
0
42
0.000000001
43
0.0000000001
44
0.0000000001
40
0
40
0
40
0
40
0
40
1
40
1
40
1
40
1
10
483.85247788809238
20
-213.24551436610162
30
0
10
483.83071344985797
20
-207.226004825844
30
0
10
483.7977778076941
20
-197.62370529083697
30
0
10
483.77046658635038
20
-190.09547098624452
30
0
0
LINE
5
377
100
AcDbEntity
8
0
100
AcDbLine
10
489.34262612883049
20
-147.89691067209296
30
0
11
495.94585105075055
21
-147.89691067209296
31
0
0
LINE
5
378
100
AcDbEntity
8
0
100
AcDbLine
10
495.94585105075055
20
-147.89691067209296
30
0
11
495.94585105075055
21
-144.63392728309739
31
0
0
LINE
5
379
100
AcDbEntity
8
0
100
AcDbLine
10
495.94585105075055
20
-144.63392728309739
30
0
11
499.03320932225506
21
-144.63392728309739
31
0
0
LINE
5
380
100
AcDbEntity
8
0
100
AcDbLine
10
499.03320932225506
20
-144.63392728309739
30
0
11
499.03320932225506
21
-147.80205464812661
31
0
0
LINE
5
381
100
AcDbEntity
8
0
100
AcDbLine
10
499.03320932225506
20
-147.80205464812661
30
0
11
520.06830038744397
21
-147.80205464812661
31
0
0
LINE
5
382
100
AcDbEntity
8
0
100
AcDbLine
10
520.06830038744397
20
-147.80205464812661
30
0
11
520.02434019299767
21
-144.63392728309739
31
0
0
LINE
5
383
100
AcDbEntity
8
0
100
AcDbLine
10
520.02434019299767
20
-144.63392728309739
30
0
11
523.11169846450207
21
-144.63392728309739
31
0
0
LINE
5
384
100
AcDbEntity
8
0
100
AcDbLine
10
523.11169846450207
20
-144.63392728309739
30
0
11
523.11169846450207
21
-147.89691067209296
31
0
0
LINE
5
385
100
AcDbEntity
8
0
100
AcDbLine
10
523.11169846450207
20
-147.89691067209296
30
0
11
529.69803287215097
21
-147.93145082487229
31
0
0
LINE
5
386
100
AcDbEntity
8
0
100
AcDbLine
10
529.69803287215097
20
-147.93145082487229
30
0
11
529.68081455423214
21
-135.60165576527814
31
0
0
LINE
5
387
100
AcDbEntity
8
0
100
AcDbLine
10
529.68081455423214
20
-135.60165576527814
30
0
11
523.07726182866418
21
-135.60165576527814
31
0
0
LINE
5
388
100
AcDbEntity
8
0
100
AcDbLine
10
523.07726182866418
20
-135.60165576527814
30
0
11
523.07726182866418
21
-138.71321112183415
31
0
0
LINE
5
389
100
AcDbEntity
8
0
100
AcDbLine
10
523.07726182866418
20
-138.71321112183415
30
0
11
519.98990355715955
21
-138.71321112183415
31
0
0
LINE
5
390
100
AcDbEntity
8
0
100
AcDbLine
10
519.98990355715955
20
-138.71321112183415
30
0
11
519.99243972222393
21
-135.69650747603862
31
0
0
LINE
5
391
100
AcDbEntity
8
0
100
AcDbLine
10
519.99243972222393
20
-135.69650747603862
30
0
11
499.06750793550441
21
-135.69650747603862
31
0
0
LINE
5
392
100
AcDbEntity
8
0
100
AcDbLine
10
499.06750793550441
20
-135.69650747603862
30
0
11
499.06750793550441
21
-138.71321112183415
31
0
0
LINE
5
393
100
AcDbEntity
8
0
100
AcDbLine
10
499.06750793550441
20
-138.71321112183415
30
0
11
495.9801496639999
21
-138.71321112183415
31
0
0
LINE
5
394
100
AcDbEntity
8
0
100
AcDbLine
10
495.9801496639999
20
-138.71321112183415
30
0
11
495.9801496639999
21
-135.60165576527814
31
0
0
LINE
5
395
100
AcDbEntity
8
0
100
AcDbLine
10
495.9801496639999
20
-135.60165576527814
30
0
11
489.37692474207984
21
-135.60165576527814
31
0
0
LINE
5
396
100
AcDbEntity
8
0
100
AcDbLine
10
489.37692474207984
20
-135.60165576527814
30
0
11
489.37692474207984
21
-147.9659823512398
31
0
0
ELLIPSE
5
397
100
AcDbEntity
8
0
100
AcDbEllipse
10
509.53758233785913
20
-141.83090066045932
30
0
11
-2.0895323224091271
21
0
31
0.0
40
0.99999993236039997
41
0
42
6.2831853071795862
0
CIRCLE
5
398
100
AcDbEntity
8
0
100
AcDbCircle
10
509.53710179841488
20
-159.6588179331909
30
0
40
2.0895324637442578
0
ELLIPSE
5
399
100
AcDbEntity
8
0
100
AcDbEllipse
10
509.53724313354553
20
-181.84377249583665
30
0
11
0
21
2.0895327181474932
31
0.0
40
0.99999994588833019
41
-1.5707963267948966
42
4.7123889803846897
0
LINE
5
400
100
AcDbEntity
8
0
100
AcDbLine
10
489.50095202320171
20
-205.86578649491207
30
0
11
496.10417694512171
21
-205.86578649491207
31
0
0
LINE
5
401
100
AcDbEntity
8
0
100
AcDbLine
10
496.10417694512171
20
-205.86578649491207
30
0
11
496.10417694512171
21
-202.60280310591654
31
0
0
LINE
5
402
100
AcDbEntity
8
0
100
AcDbLine
10
496.10417694512171
20
-202.60280310591654
30
0
11
499.19153521662628
21
-202.60280310591656
31
0
0
LINE
5
403
100
AcDbEntity
8
0
100
AcDbLine
10
499.19153521662628
20
-202.60280310591656
30
0
11
499.19153521662628
21
-205.77093047094576
31
0
0
LINE
5
404
100
AcDbEntity
8
0
100
AcDbLine
10
499.19153521662628
20
-205.77093047094576
30
0
11
520.22662628181524
21
-205.77093047094576
31
0
0
LINE
5
405
100
AcDbEntity
8
0
100
AcDbLine
10
520.22662628181524
20
-205.77093047094576
30
0
11
520.18266608736883
21
-202.60280310591656
31
0
0
LINE
5
406
100
AcDbEntity
8
0
100
AcDbLine
10
520.18266608736883
20
-202.60280310591656
30
0
11
523.27002435887334
21
-202.60280310591656
31
0
0
LINE
5
407
100
AcDbEntity
8
0
100
AcDbLine
10
523.27002435887334
20
-202.60280310591656
30
0
11
523.27002435887334
21
-205.86578649491213
31
0
0
LINE
5
408
100
AcDbEntity
8
0
100
AcDbLine
10
523.27002435887334
20
-205.86578649491213
30
0
11
529.85635876652225
21
-205.9003266476914
31
0
0
LINE
5
409
100
AcDbEntity
8
0
100
AcDbLine
10
529.85635876652225
20
-205.9003266476914
30
0
11
529.8391404486033
21
-193.6179596000805
31
0
0
LINE
5
410
100
AcDbEntity
8
0
100
AcDbLine
10
529.8391404486033
20
-193.6179596000805
30
0
11
489.53526788927462
21
-193.6179596000805
31
0
0
LINE
5
411
100
AcDbEntity
8
0
100
AcDbLine
10
489.53526788927462
20
-193.6179596000805
30
0
11
489.53526788927456
21
-205.93486248726487
31
0
0
ELLIPSE
5
412
100
AcDbEntity
8
0
100
AcDbEllipse
10
509.69590594260114
20
-199.79977506992719
30
0
11
-2.0895323224091271
21
0
31
0.0
40
0.99999993236039997
41
0
42
6.2831853071795862
0
LINE
5
413
100
AcDbEntity
8
0
100
AcDbLine
10
489.34177062385237
20
-170.44146653265517
30
0
11
495.94492653447821
21
-170.44146653265517
31
0
0
LINE
5
414
100
AcDbEntity
8
0
100
AcDbLine
10
495.94492653447821
20
-170.44146653265517
30
0
11
495.94492653447821
21
-167.19137531606941
31
0
0
LINE
5
415
100
AcDbEntity
8
0
100
AcDbLine
10
495.94492653447821
20
-167.19137531606941
30
0
11
499.03228480598278
21
-167.19137531606941
31
0
0
LINE
5
416
100
AcDbEntity
8
0
100
AcDbLine
10
499.03228480598278
20
-167.19137531606941
30
0
11
499.03228480598278
21
-170.44146653265517
31
0
0
LINE
5
417
100
AcDbEntity
8
0
100
AcDbLine
10
499.03228480598278
20
-170.44146653265517
30
0
11
501.52411011363307
21
-170.44146653265517
31
0
0
LINE
5
418
100
AcDbEntity
8
0
100
AcDbLine
10
501.52411011363307
20
-170.44146653265517
30
0
11
501.52438615881016
21
-166.43544716472707
31
0
0
LINE
5
419
100
AcDbEntity
8
0
100
AcDbLine
10
501.52438615881016
20
-166.43544716472707
30
0
11
517.54979209793737
21
-166.43544716472707
31
0
0
LINE
5
420
100
AcDbEntity
8
0
100
AcDbLine
10
517.54979209793737
20
-166.43544716472707
30
0
11
517.54951605276017
21
-170.44146653265517
31
0
0
LINE
5
421
100
AcDbEntity
8
0
100
AcDbLine
10
517.54951605276017
20
-170.44146653265517
30
0
11
520.06837653493847
21
-170.44146653265517
31
0
0
LINE
5
422
100
AcDbEntity
8
0
100
AcDbLine
10
520.06837653493847
20
-170.44146653265517
30
0
11
520.02441634049217
21
-167.19137531606941
31
0
0
LINE
5
423
100
AcDbEntity
8
0
100
AcDbLine
10
520.02441634049217
20
-167.19137531606941
30
0
11
523.11177461199668
21
-167.19137531606941
31
0
0
LINE
5
424
100
AcDbEntity
8
0
100
AcDbLine
10
523.11177461199668
20
-167.19137531606941
30
0
11
523.11177461199668
21
-170.44146653265517
31
0
0
LINE
5
425
100
AcDbEntity
8
0
100
AcDbLine
10
523.11177461199668
20
-170.44146653265517
30
0
11
529.69810901964559
21
-170.44146653265517
31
0
0
LINE
5
426
100
AcDbEntity
8
0
100
AcDbLine
10
529.69810901964559
20
-170.44146653265517
30
0
11
529.68089070172653
21
-148.8755405919849
31
0
0
LINE
5
427
100
AcDbEntity
8
0
100
AcDbLine
10
529.68089070172653
20
-148.8755405919849
30
0
11
523.07733797615867
21
-148.8755405919849
31
0
0
LINE
5
428
100
AcDbEntity
8
0
100
AcDbLine
10
523.07733797615867
20
-148.8755405919849
30
0
11
523.07733797615867
21
-151.9396679365577
31
0
0
LINE
5
429
100
AcDbEntity
8
0
100
AcDbLine
10
523.07733797615867
20
-151.9396679365577
30
0
11
519.98997970465416
21
-151.93966793655767
31
0
0
LINE
5
430
100
AcDbEntity
8
0
100
AcDbLine
10
519.98997970465416
20
-151.93966793655767
30
0
11
519.99251586971832
21
-148.8755405919849
31
0
0
LINE
5
431
100
AcDbEntity
8
0
100
AcDbLine
10
519.99251586971832
20
-148.8755405919849
30
0
11
499.06658341923213
21
-148.8755405919849
31
0
0
LINE
5
432
100
AcDbEntity
8
0
100
AcDbLine
10
499.06658341923213
20
-148.8755405919849
30
0
11
499.06658341923219
21
-151.9396679365577
31
0
0
LINE
5
433
100
AcDbEntity
8
0
100
AcDbLine
10
499.06658341923219
20
-151.9396679365577
30
0
11
495.97922514772762
21
-151.93966793655767
31
0
0
LINE
5
434
100
AcDbEntity
8
0
100
AcDbLine
10
495.97922514772762
20
-151.93966793655767
30
0
11
495.97922514772762
21
-148.8755405919849
31
0
0
LINE
5
435
100
AcDbEntity
8
0
100
AcDbLine
10
495.97922514772762
20
-148.8755405919849
30
0
11
489.37606923710183
21
-148.8755405919849
31
0
0
LINE
5
436
100
AcDbEntity
8
0
100
AcDbLine
10
489.37606923710183
20
-148.8755405919849
30
0
11
489.37606923710177
21
-170.44146653265517
31
0
0
LINE
5
437
100
AcDbEntity
8
0
100
AcDbLine
10
529.73245937054446
20
-171.06114737158052
30
0
11
523.12930306372914
21
-171.06114737158052
31
0
0
LINE
5
438
100
AcDbEntity
8
0
100
AcDbLine
10
523.12930306372914
20
-171.06114737158052
30
0
11
523.12930306372914
21
-174.31123826315726
31
0
0
LINE
5
439
100
AcDbEntity
8
0
100
AcDbLine
10
523.12930306372914
20
-174.31123826315726
30
0
11
520.04194460698318
21
-174.31123826315726
31
0
0
LINE
5
440
100
AcDbEntity
8
0
100
AcDbLine
10
520.04194460698318
20
-174.31123826315726
30
0
11
520.04194460698318
21
-171.06114737158052
31
0
0
LINE
5
441
100
AcDbEntity
8
0
100
AcDbLine
10
520.04194460698318
20
-171.06114737158052
30
0
11
517.55011914982344
21
-171.06114737158052
31
0
0
LINE
5
442
100
AcDbEntity
8
0
100
AcDbLine
10
517.55011914982344
20
-171.06114737158052
30
0
11
517.54984310462976
21
-175.06716633890679
31
0
0
LINE
5
443
100
AcDbEntity
8
0
100
AcDbLine
10
517.54984310462976
20
-175.06716633890679
30
0
11
501.52443620397827
21
-175.06716633890679
31
0
0
LINE
5
444
100
AcDbEntity
8
0
100
AcDbLine
10
501.52443620397827
20
-175.06716633890679
30
0
11
501.52471224917178
21
-171.06114737158052
31
0
0
LINE
5
445
100
AcDbEntity
8
0
100
AcDbLine
10
501.52471224917178
20
-171.06114737158052
30
0
11
499.00585161586184
21
-171.06114737158052
31
0
0
LINE
5
446
100
AcDbEntity
8
0
100
AcDbLine
10
499.00585161586184
20
-171.06114737158052
30
0
11
499.0498118129459
21
-174.31123826315726
31
0
0
LINE
5
447
100
AcDbEntity
8
0
100
AcDbLine
10
499.0498118129459
20
-174.31123826315726
30
0
11
495.96245335619983
21
-174.31123826315726
31
0
0
LINE
5
448
100
AcDbEntity
8
0
100
AcDbLine
10
495.96245335619983
20
-174.31123826315726
30
0
11
495.96245335619983
21
-171.06114737158052
31
0
0
LINE
5
449
100
AcDbEntity
8
0
100
AcDbLine
10
495.96245335619983
20
-171.06114737158052
30
0
11
489.37611855337082
21
-171.06114737158052
31
0
0
LINE
5
450
100
AcDbEntity
8
0
100
AcDbLine
10
489.37611855337082
20
-171.06114737158052
30
0
11
489.39333687232283
21
-192.62707115565848
31
0
0
LINE
5
451
100
AcDbEntity
8
0
100
AcDbLine
10
489.39333687232283
20
-192.62707115565848
30
0
11
495.99688999410398
21
-192.62707115565848
31
0
0
LINE
5
452
100
AcDbEntity
8
0
100
AcDbLine
10
495.99688999410398
20
-192.62707115565848
30
0
11
495.99688999410398
21
-189.56294411749838
31
0
0
LINE
5
453
100
AcDbEntity
8
0
100
AcDbLine
10
495.99688999410398
20
-189.56294411749838
30
0
11
499.08424845085
21
-189.56294411749838
31
0
0
LINE
5
454
100
AcDbEntity
8
0
100
AcDbLine
10
499.08424845085
20
-189.56294411749838
30
0
11
499.08171228563356
21
-192.62707115565848
31
0
0
LINE
5
455
100
AcDbEntity
8
0
100
AcDbLine
10
499.08171228563356
20
-192.62707115565848
30
0
11
520.00764599167587
21
-192.62707115565848
31
0
0
LINE
5
456
100
AcDbEntity
8
0
100
AcDbLine
10
520.00764599167587
20
-192.62707115565848
30
0
11
520.00764599167587
21
-189.56294411749838
31
0
0
LINE
5
457
100
AcDbEntity
8
0
100
AcDbLine
10
520.00764599167587
20
-189.56294411749838
30
0
11
523.09500444842195
21
-189.56294411749838
31
0
0
LINE
5
458
100
AcDbEntity
8
0
100
AcDbLine
10
523.09500444842195
20
-189.56294411749838
30
0
11
523.09500444842195
21
-192.62707115565848
31
0
0
LINE
5
459
100
AcDbEntity
8
0
100
AcDbLine
10
523.09500444842195
20
-192.62707115565848
30
0
11
529.69816075523704
21
-192.62707115565848
31
0
0
LINE
5
460
100
AcDbEntity
8
0
100
AcDbLine
10
529.69816075523704
20
-192.62707115565848
30
0
11
529.69816075523704
21
-171.06114737158052
31
0
0
SPLINE
5
461
100
AcDbEntity
8
0
100
AcDbSpline
70
1064
71
3
72
8
73
4
74
0
42
0.000000001
43
0.0000000001
44
0.0000000001
40
0
40
0
40
0
40
0
40
1
40
1
40
1
40
1
10
269.53405546664339
20
-340.20894221727218
30
0
10
274.12111524314787
20
-340.19848700660935
30
0
10
278.51123404652316
20
-340.21968209951245
30
0
10
282.45652331768713
20
-340.21883671119156
30
0
0
LINE
5
462
100
AcDbEntity
8
0
100
AcDbLine
10
282.45652331768707
20
-340.21883671119156
30
0
11
282.45652331768713
21
-382.45692163099136
31
0
0
SPLINE
5
463
100
AcDbEntity
8
0
100
AcDbSpline
70
1064
71
3
72
8
73
4
74
0
42
0.000000001
43
0.0000000001
44
0.0000000001
40
0
40
0
40
0
40
0
40
1
40
1
40
1
40
1
10
282.45652331768713
20
-382.45692163099136
30
0
10
278.30963481121734
20
-382.48642395810924
30
0
10
273.69317622453218
20
-382.43797803147351
30
0
10
269.53405546664339
20
-382.44194618073499
30
0
0
LINE
5
464
100
AcDbEntity
8
0
100
AcDbLine
10
269.53405546664334
20
-382.44194618073499
30
0
11
269.53405546664339
21
-377.91922218073501
31
0
0
SPLINE
5
465
100
AcDbEntity
8
0
100
AcDbSpline
70
1064
71
3
72
8
73
4
74
0
42
0.000000001
43
0.0000000001
44
0.0000000001
40
0
40
0
40
0
40
0
40
1
40
1
40
1
40
1
10
269.53405546664339
20
-377.91922218073501
30
0
10
268.48461800956636
20
-377.91922218073501
30
0
10
267.6663683790274
20
-377.92458780864939
30
0
10
266.65564625648409
20
-377.93419763099138
30
0
0
LINE
5
466
100
AcDbEntity
8
0
100
AcDbLine
10
266.65564625648409
20
-377.93419763099138
30
0
11
266.65564625648409
21
-369.25174902430183
31
0
0
LINE
5
467
100
AcDbEntity
8
0
100
AcDbLine
10
266.65564625648409
20
-369.25174902430183
30
0
11
269.53438327027806
21
-369.27662759488902
31
0
0
LINE
5
468
100
AcDbEntity
8
0
100
AcDbLine
10
269.53438327027806
20
-369.27662759488902
30
0
11
269.53438327027806
21
-361.30699661814344
31
0
0
LINE
5
469
100
AcDbEntity
8
0
100
AcDbLine
10
269.53438327027806
20
-361.30699661814344
30
0
11
269.53438327027806
21
-353.33736564139792
31
0
0
LINE
5
470
100
AcDbEntity
8
0
100
AcDbLine
10
269.53438327027806
20
-353.33736564139792
30
0
11
266.65564625648409
21
-353.31248707081073
31
0
0
LINE
5
471
100
AcDbEntity
8
0
100
AcDbLine
10
266.65564625648409
20
-353.31248707081073
30
0
11
266.65564625648409
21
-344.74156071119154
31
0
0
SPLINE
5
472
100
AcDbEntity
8
0
100
AcDbSpline
70
1064
71
3
72
8
73
4
74
0
42
0.000000001
43
0.0000000001
44
0.0000000001
40
0
40
0
40
0
40
0
40
1
40
1
40
1
40
1
10
266.65564625648409
20
-344.74156071119154
30
0
10
267.51362913810635
20
-344.7367558000206
30
0
10
268.66423714852817
20
-344.73364166549146
30
0
10
269.53405546664339
20
-344.73166621727222
30
0
0
LINE
5
473
100
AcDbEntity
8
0
100
AcDbLine
10
269.53405546664339
20
-344.73166621727222
30
0
11
269.53405546664339
21
-340.20894221727218
31
0
0
LWPOLYLINE
5
474
100
AcDbEntity
8
0
100
AcDbPolyline
90
14
70
1
43
0.0
10
459.38402882845605
20
-213.47652386705121
10
480.11030931729988
20
-213.47652386705121
42
0.47850711781844679
10
536.11515111272843
20
-213.47652386705121
10
556.53358213397325
20
-213.47652386705121
10
537.16917624250482
20
-237.56750811427054
10
521.54307302763095
20
-237.56750811427054
10
521.55463403756607
20
-233.69793093186959
10
518.34482257991101
20
-233.66921468821698
10
518.35635501485547
20
-237.56750811427054
10
497.57293826643195
20
-237.56750811427054
10
497.54421878328009
20
-233.78408613263576
10
494.18420099974185
20
-233.78408613263576
10
494.18420099974185
20
-237.56750811427054
10
478.72808555245808
20
-237.56750811427054
0
LWPOLYLINE
5
475
100
AcDbEntity
8
0
100
AcDbPolyline
90
4
70
1
43
0.0
10
638.73701728803189
20
-86.321592232712476
10
638.73701728803189
20
-126.68727330910444
10
658.88396871050259
20
-126.7030725807052
10
658.88396871050259
20
-86.321592232712504
0
ELLIPSE
5
476
100
AcDbEntity
8
0
100
AcDbEllipse
10
683.31347378817486
20
-85.738089828738708
30
0
11
3.1621874583989644
21
0
31
0.0
40
0.99999975060928992
41
0
42
6.2831853071795862
0
LWPOLYLINE
5
477
100
AcDbEntity
8
0
100
AcDbPolyline
90
53
70
1
43
0.0
10
593.54496852749435
20
-207.40862019880984
10
593.75314110913314
20
-181.08735828072255
10
584.74174928035131
20
-171.07146439583542
10
584.74174928035131
20
-126.1522676170265
10
593.75710925879139
20
-116.1360642596476
10
541.94063145870552
20
-88.270401976562709
42
0.18487672491602528
10
508.94643320820563
20
-81.850989278857014
10
498.15579208394502
20
-81.80019697135765
10
498.15099579870605
20
-77.909073171080294
10
488.64003118076994
20
-77.909073171080294
10
488.61135698628277
20
-84.678424854183092
10
484.49245214662739
20
-84.678424854183092
10
484.49245214662733
20
-81.74662695954197
10
478.64985210670943
20
-81.74662695954197
10
478.64985210670955
20
-64.049372428115575
10
484.49245214662739
20
-64.009345881444901
10
484.49245214662739
20
-60.312212809945571
10
508.25783847272015
20
-60.42341587312049
10
508.28609859941707
20
-63.247038574819754
10
523.31896775358268
20
-63.241664320816334
10
523.36786225850278
20
-60.411968625829118
10
526.99154202545742
20
-60.406318326706568
10
538.89902749280191
20
-60.483938772138046
10
549.04593122554024
20
-69.591824191653046
10
591.5283203655024
20
-93.010683788611829
10
601.2976632846669
20
-93.010683788611829
10
620.38301390377308
20
-93.010683788611829
10
620.34947441274812
20
-60.510361468787224
10
627.11689486259195
20
-60.438736378915124
10
627.16423661329782
20
-63.445782456014939
10
642.43133011425016
20
-63.449741978627394
10
642.50323988718833
20
-60.447052239042385
10
648.26823672204966
20
-60.403799414687491
10
648.58803507885864
20
-72.672850368806237
10
664.47647180500076
20
-72.675679831588127
10
664.47647180500076
20
-81.969231493342974
10
667.46755950047168
20
-81.986475688772856
10
667.42746393609832
20
-72.676870276295148
10
694.89285652052808
20
-72.522026200273885
42
-0.2522587356466236
10
694.89285652052797
20
-98.174358475045295
10
667.03844724698922
20
-98.195277521527288
10
666.96457065204663
20
-129.14733160935785
10
659.71524430544048
20
-135.12889788118207
10
623.39611620343521
20
-135.12889788118207
10
610.98753969371796
20
-142.03277844258858
10
605.99229488126616
20
-210.16388722037584
10
603.48708123221581
20
-220.41789053439203
10
602.85245333208309
20
-221.12801668135967
10
602.10409481217903
20
-221.96545571389603
10
593.66563478275555
20
-220.43459989234481
10
593.61567060271022
20
-214.38771875023676
10
596.52698123722519
20
-215.21857151803542
10
598.19612300609856
20
-209.37015389876765
0
ELLIPSE
5
478
100
AcDbEntity
8
0
100
AcDbEllipse
10
654.17420719111976
20
-82.524717755254912
30
0
11
-1.2465702177391094
21
-0.035709938842892294
31
0.0
40
0.99962081365460087
41
0
42
6.2831853071795862
0
ELLIPSE
5
479
100
AcDbEntity
8
0
100
AcDbEllipse
10
643.65098586857948
20
-82.524731011613014
30
0
11
-1.2465702177391094
21
-0.035709938842892294
31
0.0
40
0.99962081365460087
41
0
42
6.2831853071795862
0
ELLIPSE
5
480
100
AcDbEntity
8
0
100
AcDbEllipse
10
643.65096350182068
20
-131.00387186684767
30
0
11
-1.2465702177391094
21
-0.035709938842892294
31
0.0
40
0.99962081365460087
41
0
42
6.2831853071795862
0
ELLIPSE
5
481
100
AcDbEntity
8
0
100
AcDbEllipse
10
654.1741852263101
20
-131.00387556593995
30
0
11
-1.2465702177391094
21
-0.035709938842892294
31
0.0
40
0.99962081365460087
41
0
42
6.2831853071795862
0
ELLIPSE
5
482
100
AcDbEntity
8
0
100
AcDbEllipse
10
664.78925372303706
20
-246.02675736774614
30
0
11
0
21
-2.5922821850037208
31
0.0
40
0.98072277855378587
41
-1.5707963267948966
42
4.7123889803846897
0
LWPOLYLINE
5
483
100
AcDbEntity
8
0
100
AcDbPolyline
90
7
70
1
43
0.0
10
611.19100474990444
20
-251.32891788372967
10
611.19100474990444
20
-192.79602834858409
10
656.65390560385708
20
-192.79602834858409
10
663.69005604969004
20
-201.42366421933838
10
663.69005604969004
20
-239.82068186714685
10
669.40779739796858
20
-241.45397200517235
10
669.40779739796858
20
-251.32891788372967
0
LWPOLYLINE
5
484
100
AcDbEntity
8
0
100
AcDbPolyline
90
4
70
1
43
0.0
10
655.98756701210721
20
-242.88205708022335
10
655.98756701210721
20
-202.51638894344777
10
635.8406155896364
20
-202.50060261146342
10
635.8406155896364
20
-242.88205708022335
0
ELLIPSE
5
485
100
AcDbEntity
8
0
100
AcDbEllipse
10
651.11726964545142
20
-246.76025714768059
30
0
11
-0.035709948603587706
21
1.2465701595650549
31
0.0
40
0.9996209064688768
41
0
42
6.2831853071795862
0
ELLIPSE
5
486
100
AcDbEntity
8
0
100
AcDbEllipse
10
640.55835842649685
20
-246.76026767418921
30
0
11
-0.035709948603587706
21
1.2465701595650549
31
0.0
40
0.9996209064688768
41
0
42
6.2831853071795862
0
ELLIPSE
5
487
100
AcDbEntity
8
0
100
AcDbEllipse
10
651.11727205800651
20
-198.80034830173236
30
0
11
-0.035709948603587706
21
1.2465701595650549
31
0.0
40
0.9996209064688768
41
0
42
6.2831853071795862
0
ELLIPSE
5
488
100
AcDbEntity
8
0
100
AcDbEllipse
10
640.55836027245732
20
-198.80033904943843
30
0
11
-0.035709948603587706
21
1.2465701595650549
31
0.0
40
0.9996209064688768
41
0
42
6.2831853071795862
0
LINE
5
489
100
AcDbEntity
8
0
100
AcDbLine
10
254.66840499819648
20
-377.83991473985117
30
0
11
251.14606832760347
21
-377.86479330894565
31
0
0
LINE
5
490
100
AcDbEntity
8
0
100
AcDbLine
10
251.14606832760347
20
-377.86479330894565
30
0
11
251.13702784751243
21
-369.41397298282686
31
0
0
LINE
5
491
100
AcDbEntity
8
0
100
AcDbLine
10
251.13702784751243
20
-369.41397298282686
30
0
11
254.55177590389198
21
-369.43885155192129
31
0
0
LINE
5
492
100
AcDbEntity
8
0
100
AcDbLine
10
254.72968703118013
20
-353.43660050224503
30
0
11
251.22329197051874
21
-353.41172193315055
31
0
0
LINE
5
493
100
AcDbEntity
8
0
100
AcDbLine
10
251.22329197051874
20
-353.41172193315055
30
0
11
251.22977903256879
21
-344.96002171311784
31
0
0
LINE
5
494
100
AcDbEntity
8
0
100
AcDbLine
10
251.22977903256879
20
-344.96002171311784
30
0
11
254.6534295464426
21
-344.9704769231534
31
0
0
ARC
5
495
100
AcDbEntity
8
0
100
AcDbCircle
10
343.39863907007071
20
-397.26891374302568
30
0
40
1.857362402374656
100
AcDbArc
50
89.999762997709126
51
179.9996997798722
0
ARC
5
496
100
AcDbEntity
8
0
100
AcDbCircle
10
343.39863907007071
20
-397.26891374302568
30
0
40
1.8573624023746129
100
AcDbArc
50
0.00030021891380672429
51
89.999762997709126
0
ARC
5
497
100
AcDbEntity
8
0
100
AcDbCircle
10
343.39863907007071
20
-397.26891374302568
30
0
40
1.8573777682226331
100
AcDbArc
50
-89.999762997427112
51
0.00030021891380672429
0
ARC
5
498
100
AcDbEntity
8
0
100
AcDbCircle
10
343.39863907007071
20
-397.26891374302568
30
0
40
1.8573600558108649
100
AcDbArc
50
179.9996997798722
51
270.00023700257282
0
ARC
5
499
100
AcDbEntity
8
0
100
AcDbCircle
10
343.39863920488341
20
-324.83464091692406
30
0
40
1.8573625371623441
100
AcDbArc
50
89.999767156435681
51
179.99995756822284
0
ARC
5
500
100
AcDbEntity
8
0
100
AcDbCircle
10
343.39863920488341
20
-324.83464091692406
30
0
40
1.857362537162369
100
AcDbArc
50
4.2431777177174945e-05
51
89.999767156435681
0
ARC
5
501
100
AcDbEntity
8
0
100
AcDbCircle
10
343.39863920488341
20
-324.83464091692406
30
0
40
1.8573776333849681
100
AcDbArc
50
-89.999767156088964
51
4.2431777177174945e-05
0
ARC
5
502
100
AcDbEntity
8
0
100
AcDbCircle
10
343.39863920488341
20
-324.83464091692406
30
0
40
1.8573597862343392
100
AcDbArc
50
179.99995756822284
51
270.0002328439092
0
LINE
5
503
100
AcDbEntity
8
0
100
AcDbLine
10
350.12616176804272
20
-403.51600879061641
30
0
11
350.12616176804272
21
-403.99905329651523
31
0
0
LINE
5
504
100
AcDbEntity
8
0
100
AcDbLine
10
350.12616176804272
20
-403.99905329651523
30
0
11
305.96729625214857
21
-413.66789696536227
31
0
0
LINE
5
505
100
AcDbEntity
8
0
100
AcDbLine
10
305.96729625214857
20
-413.66789696536227
30
0
11
249.30240380338
21
-413.74239465007093
31
0
0
LINE
5
506
100
AcDbEntity
8
0
100
AcDbLine
10
249.30239517696765
20
-308.87801821946067
30
0
11
305.82439973238871
21
-308.96152187717018
31
0
0
LINE
5
507
100
AcDbEntity
8
0
100
AcDbLine
10
305.82439973238871
20
-308.96152187717018
30
0
11
350.05073888869526
21
-317.50696530467485
31
0
0
LINE
5
508
100
AcDbEntity
8
0
100
AcDbLine
10
350.05073888869526
20
-317.50696530467485
30
0
11
350.10083893473427
21
-403.49447726895903
31
0
0
ELLIPSE
5
509
100
AcDbEntity
8
0
100
AcDbEllipse
10
255.60977939671147
20
-403.30866968332134
30
0
11
-1.8573624019416222
21
0
31
0.0
40
0.99999976390548717
41
0
42
6.2831853071795862
0
CIRCLE
5
510
100
AcDbEntity
8
0
100
AcDbCircle
10
255.60977939671147
20
-319.39748241212533
30
0
40
1.8573625432767611
0
LWPOLYLINE
5
511
100
AcDbEntity
8
0
100
AcDbPolyline
90
4
70
1
43
0.0
10
346.39915160734495
20
-375.08220856320457
10
328.68979716507539
20
-375.08220856320457
10
328.66409261045214
20
-371.84091249203897
10
346.39915160734495
20
-371.84091249203897
0
LWPOLYLINE
5
512
100
AcDbEntity
8
0
100
AcDbPolyline
90
4
70
1
43
0.0
10
346.33429823318346
20
-350.98401192574499
10
328.62494379091396
20
-350.98401192574499
10
328.59923923629071
20
-347.74271585457939
10
346.33429823318346
20
-347.74271585457939
0
ELLIPSE
5
513
100
AcDbEntity
8
0
100
AcDbEllipse
10
262.78964686523574
20
-395.10589582849747
30
0
11
-6.2424562221453108
21
0
31
0.0
40
0.99999979471812328
41
0
42
6.2831853071795862
0
ELLIPSE
5
514
100
AcDbEntity
8
0
100
AcDbEllipse
10
333.57549472186781
20
-361.33222176861062
30
0
11
-6.2424562221453108
21
0
31
0.0
40
0.99999979471812328
41
0
42
6.2831853071795862
0
ELLIPSE
5
515
100
AcDbEntity
8
0
100
AcDbEllipse
10
262.78964686523574
20
-327.54774687911919
30
0
11
-6.2424562221453108
21
0
31
0.0
40
0.99999979471812328
41
0
42
6.2831853071795862
0
ELLIPSE
5
516
100
AcDbEntity
8
0
100
AcDbEllipse
10
491.07424631700843
20
-266.00289019245497
30
0
11
-3.1621874919474049
21
0
31
0.0
40
0.99999976939077695
41
0
42
6.2831853071795862
0
LINE
5
517
100
AcDbEntity
8
0
100
AcDbLine
10
568.18580118748332
20
-243.52689904687949
30
0
11
568.32658425030786
21
-243.52689904687949
31
0
0
LINE
5
518
100
AcDbEntity
8
0
100
AcDbLine
10
589.77011618090614
20
-225.56776002023881
30
0
11
589.77011618090614
21
-180.64855461501904
31
0
0
LINE
5
519
100
AcDbEntity
8
0
100
AcDbLine
10
589.77011618090614
20
-180.64855461501904
30
0
11
580.75734412615611
21
-170.62970294948755
31
0
0
LINE
5
520
100
AcDbEntity
8
0
100
AcDbLine
10
580.75734412615611
20
-170.62970294948755
30
0
11
581.10533359836359
21
-144.27470637319462
31
0
0
LINE
5
521
100
AcDbEntity
8
0
100
AcDbLine
10
581.10533359836359
20
-144.27470637319462
30
0
11
576.72477242080549
21
-142.0133445088764
31
0
0
LINE
5
522
100
AcDbEntity
8
0
100
AcDbLine
10
576.72477242080549
20
-142.0133445088764
30
0
11
578.39391418967887
21
-136.16491394999218
31
0
0
LINE
5
523
100
AcDbEntity
8
0
100
AcDbLine
10
578.39391418967887
20
-136.16491394999218
30
0
11
581.10535085118818
21
-137.29559488215133
31
0
0
LINE
5
524
100
AcDbEntity
8
0
100
AcDbLine
10
581.10535085118818
20
-137.29559488215133
30
0
11
581.10535085118829
21
-131.49857773235274
31
0
0
LINE
5
525
100
AcDbEntity
8
0
100
AcDbLine
10
581.10535085118829
20
-131.49857773235274
30
0
11
572.52734997638993
21
-129.9041409491127
31
0
0
LINE
5
526
100
AcDbEntity
8
0
100
AcDbLine
10
572.52734997638993
20
-129.9041409491127
30
0
11
571.02516379118276
21
-131.45844766875103
31
0
0
LINE
5
527
100
AcDbEntity
8
0
100
AcDbLine
10
571.02516379118276
20
-131.45844766875103
30
0
11
568.6879581480996
21
-141.81096890868375
31
0
0
LINE
5
528
100
AcDbEntity
8
0
100
AcDbLine
10
568.6879581480996
20
-141.81096890868375
30
0
11
563.45358918667444
21
-209.68243134417773
31
0
0
LINE
5
529
100
AcDbEntity
8
0
100
AcDbLine
10
563.45358918667444
20
-209.68243134417773
30
0
11
548.19536363756708
21
-239.90868509639827
31
0
0
LINE
5
530
100
AcDbEntity
8
0
100
AcDbLine
10
548.19536363756708
20
-239.90868509639827
30
0
11
509.19026404316412
21
-239.90868509639827
31
0
0
LINE
5
531
100
AcDbEntity
8
0
100
AcDbLine
10
509.19026404316412
20
-239.90868509639827
30
0
11
507.63273079663622
21
-241.5143879723004
31
0
0
LINE
5
532
100
AcDbEntity
8
0
100
AcDbLine
10
507.63273079663622
20
-241.5143879723004
30
0
11
507.60269362900544
21
-253.51993657844446
31
0
0
LINE
5
533
100
AcDbEntity
8
0
100
AcDbLine
10
507.60269362900544
20
-253.51993657844446
30
0
11
479.54828961268879
21
-253.54084699851552
31
0
0
LINE
5
534
100
AcDbEntity
8
0
100
AcDbLine
10
479.54828961268879
20
-279.19318789969788
30
0
11
507.01347516322329
21
-279.03834382367666
31
0
0
LINE
5
535
100
AcDbEntity
8
0
100
AcDbLine
10
507.01347516322329
20
-279.03834382367666
30
0
11
506.97337959884987
21
-269.72873841119889
31
0
0
LINE
5
536
100
AcDbEntity
8
0
100
AcDbLine
10
506.97337959884987
20
-269.72873841119889
30
0
11
509.96445866790862
21
-269.74597398021785
31
0
0
LINE
5
537
100
AcDbEntity
8
0
100
AcDbLine
10
509.96445866790862
20
-269.74597398021785
30
0
11
509.96445866790862
21
-279.03951701556178
31
0
0
LINE
5
538
100
AcDbEntity
8
0
100
AcDbLine
10
509.96445866790862
20
-279.03951701556178
30
0
11
525.85311105435824
21
-279.04234647834369
31
0
0
LINE
5
539
100
AcDbEntity
8
0
100
AcDbLine
10
525.85311105435824
20
-279.04234647834369
30
0
11
526.1729266639918
21
-291.31139743246246
31
0
0
LINE
5
540
100
AcDbEntity
8
0
100
AcDbLine
10
526.1729266639918
20
-291.31139743246246
30
0
11
531.93792349885325
21
-291.26814460810755
31
0
0
LINE
5
541
100
AcDbEntity
8
0
100
AcDbLine
10
531.93792349885325
20
-291.26814460810755
30
0
11
532.00983327179131
21
-288.26544624211158
31
0
0
LINE
5
542
100
AcDbEntity
8
0
100
AcDbLine
10
532.00983327179131
20
-288.26544624211158
30
0
11
547.27694402556824
21
-288.26939713831314
31
0
0
LINE
5
543
100
AcDbEntity
8
0
100
AcDbLine
10
547.27694402556824
20
-288.26939713831314
30
0
11
547.324311655511
21
-291.27644321541294
31
0
0
LINE
5
544
100
AcDbEntity
8
0
100
AcDbLine
10
547.324311655511
20
-291.27644321541294
30
0
11
554.09172347894253
21
-291.20480949912985
31
0
0
LINE
5
545
100
AcDbEntity
8
0
100
AcDbLine
10
554.09172347894253
20
-291.20480949912985
30
0
11
554.05820124074228
21
-258.70447855289439
31
0
0
LINE
5
546
100
AcDbEntity
8
0
100
AcDbLine
10
554.05820124074228
20
-258.70447855289439
30
0
11
573.14355185984834
21
-258.70447855289439
31
0
0
LINE
5
547
100
AcDbEntity
8
0
100
AcDbLine
10
573.14355185984834
20
-258.70447855289439
30
0
11
582.91289477901296
21
-258.70447855289439
31
0
0
LINE
5
548
100
AcDbEntity
8
0
100
AcDbLine
10
582.91289477901296
20
-258.70447855289439
30
0
11
625.39530117179959
21
-282.12333814985323
31
0
0
LINE
5
549
100
AcDbEntity
8
0
100
AcDbLine
10
625.39530117179959
20
-282.12333814985323
30
0
11
635.54218765171333
21
-291.23122356936813
31
0
0
LINE
5
550
100
AcDbEntity
8
0
100
AcDbLine
10
651.07335288601257
20
-291.30315058362248
30
0
11
651.12224739093244
21
-288.47344626222434
31
0
0
LINE
5
551
100
AcDbEntity
8
0
100
AcDbLine
10
651.12224739093244
20
-288.47344626222434
30
0
11
666.15511654509817
21
-288.4680806346318
31
0
0
LINE
5
552
100
AcDbEntity
8
0
100
AcDbLine
10
666.15511654509817
20
-288.4680806346318
30
0
11
666.18337667179514
21
-291.29167745709833
31
0
0
LINE
5
553
100
AcDbEntity
8
0
100
AcDbLine
10
689.94884926201098
20
-291.40290639950604
30
0
11
689.94884926201098
21
-287.70578195441766
31
0
0
LINE
5
554
100
AcDbEntity
8
0
100
AcDbLine
10
689.94884926201098
20
-287.70578195441766
30
0
11
695.79174259994704
21
-287.66575540774693
31
0
0
LINE
5
555
100
AcDbEntity
8
0
100
AcDbLine
10
695.79174259994704
20
-287.66575540774693
30
0
11
695.79174259994704
21
-269.9685008763206
31
0
0
LINE
5
556
100
AcDbEntity
8
0
100
AcDbLine
10
695.79174259994704
20
-269.9685008763206
30
0
11
689.94884926201098
21
-269.9685008763206
31
0
0
LINE
5
557
100
AcDbEntity
8
0
100
AcDbLine
10
689.94884926201098
20
-269.9685008763206
30
0
11
689.94871123941402
21
-267.03622852907881
31
0
0
LINE
5
558
100
AcDbEntity
8
0
100
AcDbLine
10
689.94871123941402
20
-267.03622852907881
30
0
11
685.85884290356273
21
-267.03622852907881
31
0
0
LINE
5
559
100
AcDbEntity
8
0
100
AcDbLine
10
685.85884290356273
20
-267.03622852907881
30
0
11
685.85884290356273
21
-273.80606329119314
31
0
0
LINE
5
560
100
AcDbEntity
8
0
100
AcDbLine
10
685.85884290356273
20
-273.80606329119314
30
0
11
676.28302491795057
21
-273.80606329119314
31
0
0
LINE
5
561
100
AcDbEntity
8
0
100
AcDbLine
10
676.28302491795057
20
-273.80606329119314
30
0
11
676.2782113798869
21
-269.91493086450487
31
0
0
LINE
5
562
100
AcDbEntity
8
0
100
AcDbLine
10
676.2782113798869
20
-269.91493086450487
30
0
11
665.49462666088834
21
-269.86413855700556
31
0
0
LINE
5
563
100
AcDbEntity
8
0
100
AcDbLine
10
632.50041115756392
20
-263.44472585929987
30
0
11
580.71935340638424
21
-235.58148759768355
31
0
0
LINE
5
564
100
AcDbEntity
8
0
100
AcDbLine
10
580.71935340638424
20
-235.58148759768355
30
0
11
589.77011618090614
21
-225.56776002023881
31
0
0
LWPOLYLINE
5
565
100
AcDbEntity
8
0
100
AcDbPolyline
90
14
70
1
43
0.0
10
458.84226341218499
20
-224.40666192683943
10
451.78773008173937
20
-224.42752046780285
10
448.65602833088877
20
-226.980647424663
10
448.71119999999996
20
-240.381
10
451.61996539236105
20
-242.7379743938113
10
451.78942948496262
20
-283.89820438695642
42
2.1858780786057586
10
466.5871857718746
20
-278.63797453615257
10
465.67490790463893
20
-277.7736041391492
10
465.67490790463893
20
-239.91502582540022
10
456.25061704211021
20
-231.97642561167282
10
456.45710354312251
20
-231.73129564009912
10
458.39943947635061
20
-229.42545603429178
10
465.74813346624774
20
-235.64345941550059
10
465.74813346624774
20
-230.90876751772785
0
ELLIPSE
5
566
100
AcDbEntity
8
0
100
AcDbEllipse
10
461.46365572313709
20
-280.14143099918408
30
0
11
-1.0388117604224663
21
-0.029758159827501764
31
0.0
40
0.99961392319630882
41
0
42
6.2831853071795862
0
ELLIPSE
5
567
100
AcDbEntity
8
0
100
AcDbEllipse
10
468.97595254005512
20
-287.65320460189588
30
0
11
-1.0388117604224663
21
-0.029758159827501764
31
0.0
40
0.99961392319630882
41
0
42
6.2831853071795862
0
ELLIPSE
5
568
100
AcDbEntity
8
0
100
AcDbEllipse
10
461.46365714258087
20
-295.16524833202118
30
0
11
-1.0388117604224663
21
-0.029758159827501764
31
0.0
40
0.99961392319630882
41
0
42
6.2831853071795862
0
ELLIPSE
5
569
100
AcDbEntity
8
0
100
AcDbEllipse
10
453.95213730694763
20
-287.65321210630293
30
0
11
-1.0388117604224663
21
-0.029758159827501764
31
0.0
40
0.99961392319630882
41
0
42
6.2831853071795862
0
LWPOLYLINE
5
570
100
AcDbEntity
8
0
100
AcDbPolyline
90
4
70
1
43
0.0
10
516.31775754113062
20
-53.312891013075976
10
507.60281263170276
20
-53.312891013075976
10
507.60281263170276
20
-50.262891013075979
10
516.31775754113062
20
-50.262891013075979
0
LWPOLYLINE
5
571
100
AcDbEntity
8
0
100
AcDbPolyline
90
4
70
1
43
0.0
10
507.55865708536726
20
-45.638887158038095
10
516.31775754113062
20
-45.638887158038095
10
516.31775754113062
20
-42.588887158038098
10
507.55865708536726
20
-42.588887158038098
0
LWPOLYLINE
5
572
100
AcDbEntity
8
0
100
AcDbPolyline
90
4
70
1
43
0.0
10
513.52025991907033
20
-29.755409638161101
10
522.10520470043753
20
-29.755409638161101
10
522.10520470043753
20
-32.805409638161102
10
513.52025991907033
20
-32.805409638161102
0
LWPOLYLINE
5
573
100
AcDbEntity
8
0
100
AcDbPolyline
90
4
70
1
43
0.0
10
513.49081786310876
20
-21.38625328247732
10
522.10520470043753
20
-21.38625328247732
10
522.10520470043753
20
-24.43625328247732
10
513.49081786310876
20
-24.43625328247732
0
LWPOLYLINE
5
574
100
AcDbEntity
8
0
100
AcDbPolyline
90
4
70
1
43
0.0
10
483.51317983103633
20
-31.423040892032894
10
483.51317983103633
20
-52.790240892032891
10
480.43953814285328
20
-52.790240892032891
10
480.43953814285328
20
-31.423040892032894
0
LINE
5
575
100
AcDbEntity
8
0
100
AcDbLine
10
475.95695282300704
20
-44.813207656570249
30
0
11
475.95695282300704
21
-23.446007656570256
31
0
0
LINE
5
576
100
AcDbEntity
8
0
100
AcDbLine
10
472.8933837501657
20
-23.446007656570256
30
0
11
472.8933837501657
21
-44.813207656570249
31
0
0
LINE
5
577
100
AcDbEntity
8
0
100
AcDbLine
10
472.8933837501657
20
-44.813207656570249
30
0
11
475.95695282300704
21
-44.813207656570249
31
0
0
LINE
5
578
100
AcDbEntity
8
0
100
AcDbLine
10
475.95695282300704
20
-23.446007656570256
30
0
11
472.8933837501657
21
-23.446007656570256
31
0
0
LWPOLYLINE
5
579
100
AcDbEntity
8
0
100
AcDbPolyline
90
4
70
1
43
0.0
10
615.46803459141961
20
-207.74535565781261
10
618.50659177838804
20
-207.74535565781261
10
618.50659177838804
20
-229.11255565781258
10
615.46803459141961
20
-229.11255565781258
0
LWPOLYLINE
5
580
100
AcDbEntity
8
0
100
AcDbPolyline
90
4
70
1
43
0.0
10
626.06281878641744
20
-215.72238889327522
10
626.06281878641744
20
-237.08958889327519
10
622.90346019715503
20
-237.08958889327519
10
622.90346019715503
20
-215.72238889327522
0
LWPOLYLINE
5
581
100
AcDbEntity
8
0
100
AcDbPolyline
90
12
70
1
43
0.0
10
311.97294824130233
20
-336.52095203629767
10
290.65916624130216
20
-336.5209519955398
10
290.65916624130216
20
-339.72603153432891
10
285.85154633106004
20
-339.72603184895041
10
285.85154633105918
20
-355.21725184895047
10
290.65916628619271
20
-355.2165950493104
10
290.65916628619266
20
-358.42167504931035
10
311.97294828619266
20
-358.42167504931041
10
311.97294828619266
20
-355.21659504931046
10
316.78056824130232
20
-355.21725203629779
10
316.78056824130226
20
-339.72603203629768
10
311.97294824130233
20
-339.72603203629768
0
LWPOLYLINE
5
582
100
AcDbEntity
8
0
100
AcDbPolyline
90
12
70
1
43
0.0
10
290.09439944082345
20
-363.7193403419883
10
285.28677953058133
20
-363.71934065660975
10
285.28677953058042
20
-379.2105606566098
10
290.09439948571401
20
-379.20990385696967
10
290.09439948571395
20
-382.41498385696963
10
311.40818148571395
20
-382.4149838569698
10
311.40818148571395
20
-379.20990385696985
10
316.21580144082361
20
-379.21056084395707
10
316.21580144082355
20
-363.71934084395707
10
311.40818144082357
20
-363.71934084395707
10
311.40818144082357
20
-360.51426084395706
10
290.09439944082345
20
-360.51426080319919
0
ARC
5
583
100
AcDbEntity
8
0
100
AcDbCircle
10
203.8733798355008
20
-63.406871906177706
30
0
40
54.014857019534219
100
AcDbArc
50
-0.14146206083502533
51
90.075245343395949
0
ARC
5
584
100
AcDbEntity
8
0
100
AcDbCircle
10
63.620785157875879
20
-63.407139385138045
30
0
40
54.124392160472368
100
AcDbArc
50
90.041477503018825
51
180.14184000481737
0
LINE
5
585
100
AcDbEntity
8
0
100
AcDbLine
10
63.581603485818611
20
-9.2827614068445889
30
0
11
88.47612797484922
21
-9.2647397845926509
31
0
0
LINE
5
586
100
AcDbEntity
8
0
100
AcDbLine
10
88.47612797484922
20
-9.2647397845926509
30
0
11
88.476127974849192
21
-12.485438309564923
31
0
0
LINE
5
587
100
AcDbEntity
8
0
100
AcDbLine
10
203.80244327907107
20
-9.3920614663947539
30
0
11
178.58172428217637
21
-9.3802012455356305
31
0
0
LINE
5
588
100
AcDbEntity
8
0
100
AcDbLine
10
178.58172428217637
20
-9.3802012455356305
30
0
11
178.58165899844269
21
-9.4547384318793739
31
0
0
LINE
5
589
100
AcDbEntity
8
0
100
AcDbLine
10
353.75220010240082
20
-26.569335223047595
30
0
11
352.49086347476111
21
-24.178801338175155
31
0
0
LINE
5
590
100
AcDbEntity
8
0
100
AcDbLine
10
349.33378666950898
20
-28.869705855570178
30
0
11
353.75220010240082
21
-26.569335223047595
31
0
0
LINE
5
591
100
AcDbEntity
8
0
100
AcDbLine
10
351.73501730456451
20
-33.482282557108263
30
0
11
349.33378666950898
21
-28.869705855570178
31
0
0
LINE
5
592
100
AcDbEntity
8
0
100
AcDbLine
10
412.90828236462301
20
-28.935370099436138
30
0
11
408.43455638159094
21
-28.722711804666851
31
0
0
LINE
5
593
100
AcDbEntity
8
0
100
AcDbLine
10
415.60058537441921
20
-27.533750768991808
30
0
11
412.90828236462301
21
-28.935370099436138
31
0
0
LINE
5
594
100
AcDbEntity
8
0
100
AcDbLine
10
374.84386233239661
20
-25.942143353037213
30
0
11
351.73501730456451
21
-33.482282557108263
31
0
0
LINE
5
595
100
AcDbEntity
8
0
100
AcDbLine
10
408.43455638159094
20
-28.722711804666851
30
0
11
374.84386233239661
21
-25.942143353037213
31
0
0
LINE
5
596
100
AcDbEntity
8
0
100
AcDbLine
10
388.181053539733
20
-18.896866867517804
30
0
11
388.181053539733
21
-21.127898404901835
31
0
0
SPLINE
5
597
100
AcDbEntity
8
0
100
AcDbSpline
70
1064
71
3
72
8
73
4
74
0
42
0.000000001
43
0.0000000001
44
0.0000000001
40
0
40
0
40
0
40
0
40
1
40
1
40
1
40
1
10
388.181053539733
20
-21.127898404901838
30
0
10
390.48454693319616
20
-21.107540073908186
30
0
10
414.71572259475624
20
-21.170581888697004
30
0
10
417.01911247128209
20
-21.127984669016215
30
0
0
LINE
5
598
100
AcDbEntity
8
0
100
AcDbLine
10
356.85211830546478
20
-21.912591294947003
30
0
11
358.10027377642734
21
-24.309974550501202
31
0
0
LINE
5
599
100
AcDbEntity
8
0
100
AcDbLine
10
377.69806583206093
20
-18.89659082235179
30
0
11
388.181053539733
21
-18.896866867517804
31
0
0
LINE
5
600
100
AcDbEntity
8
0
100
AcDbLine
10
358.10027377642734
20
-24.309974550501202
30
0
11
362.49061686649986
21
-22.020662977442122
31
0
0
LINE
5
601
100
AcDbEntity
8
0
100
AcDbLine
10
362.49061686649986
20
-22.020662977442122
30
0
11
366.96387702331447
21
-21.127984669016215
31
0
0
LINE
5
602
100
AcDbEntity
8
0
100
AcDbLine
10
366.96387702331447
20
-21.127984669016215
30
0
11
377.69806583206093
21
-21.1277086238502
31
0
0
LINE
5
603
100
AcDbEntity
8
0
100
AcDbLine
10
377.69806583206093
20
-21.1277086238502
30
0
11
377.69806583206093
21
-18.89659082235179
31
0
0
LINE
5
604
100
AcDbEntity
8
0
100
AcDbLine
10
417.01911247128209
20
-21.127984669016215
30
0
11
422.02457045535192
21
-30.619625174234724
31
0
0
LINE
5
605
100
AcDbEntity
8
0
100
AcDbLine
10
352.49086347476111
20
-24.178801338175155
30
0
11
356.85211830546478
21
-21.912591294947003
31
0
0
LINE
5
606
100
AcDbEntity
8
0
100
AcDbLine
10
415.60058537441921
20
-27.533750768991808
30
0
11
417.17927363913975
21
-30.566176959410623
31
0
0
LINE
5
607
100
AcDbEntity
8
0
100
AcDbLine
10
422.02457045535192
20
-30.619625174234724
30
0
11
423.01526686654989
21
-32.498241319815719
31
0
0
LINE
5
608
100
AcDbEntity
8
0
100
AcDbLine
10
423.01526686654989
20
-32.498241319815719
30
0
11
417.17927363913975
21
-35.575877780979383
31
0
0
LINE
5
609
100
AcDbEntity
8
0
100
AcDbLine
10
417.17927363913975
20
-30.566176959410623
30
0
11
414.41533158976995
21
-32.005091743715674
31
0
0
LINE
5
610
100
AcDbEntity
8
0
100
AcDbLine
10
414.41533158976995
20
-32.005091743715674
30
0
11
416.48129226622018
21
-35.973496021904403
31
0
0
LINE
5
611
100
AcDbEntity
8
0
100
AcDbLine
10
416.48129226622018
20
-35.973496021904403
30
0
11
417.17927363913975
21
-35.575877780979383
31
0
0
LWPOLYLINE
5
612
100
AcDbEntity
8
0
100
AcDbPolyline
90
4
70
1
43
0.0
10
617.43493913646762
20
-153.78570798516265
10
628.01170313646776
20
-153.78570798516265
10
628.01170313646776
20
-156.89499944533998
10
617.43493913646762
20
-156.89499944533998
0
LWPOLYLINE
5
613
100
AcDbEntity
8
0
100
AcDbPolyline
90
4
70
1
43
0.0
10
617.43493913646762
20
-163.24794968020046
10
628.01170313646776
20
-163.24794968020046
10
628.01170313646776
20
-166.35724114037782
10
617.43493913646762
20
-166.35724114037782
0
LWPOLYLINE
5
614
100
AcDbEntity
8
0
100
AcDbPolyline
90
4
70
1
43
0.0
10
601.17580041935219
20
-102.47864279808755
10
601.17580041935219
20
-99.113308798087559
10
606.09025641935216
20
-99.113308798087559
10
606.09025641935216
20
-102.47864279808755
0
LWPOLYLINE
5
615
100
AcDbEntity
8
0
100
AcDbPolyline
90
4
70
1
43
0.0
10
606.09025641935216
20
-108.40804079808757
10
601.17580041935219
20
-108.40804079808757
10
601.17580041935219
20
-111.77337479808756
10
606.09025641935216
20
-111.77337479808756
0
LWPOLYLINE
5
616
100
AcDbEntity
8
0
100
AcDbPolyline
90
4
70
1
43
0.0
10
568.18580118748332
20
-252.83044816067812
10
573.10025718748329
20
-252.83044816067812
10
573.10025718748329
20
-249.4651141606781
10
568.18580118748332
20
-249.4651141606781
0
LWPOLYLINE
5
617
100
AcDbEntity
8
0
100
AcDbPolyline
90
4
70
1
43
0.0
10
568.18580118748332
20
-240.17038216067814
10
573.10025718748329
20
-240.17038216067814
10
573.10025718748329
20
-243.53571616067811
10
568.18580118748332
20
-243.53571616067811
0
LWPOLYLINE
5
618
100
AcDbEntity
8
0
100
AcDbPolyline
90
4
70
1
43
0.0
10
330.71635536193531
20
-103.16641277772865
10
343.53667536193529
20
-103.16641277772865
10
343.53667536193529
20
-109.23682677772865
10
330.71635536193531
20
-109.23682677772865
0
LWPOLYLINE
5
619
100
AcDbEntity
8
0
100
AcDbPolyline
90
4
70
1
43
0.0
10
312.09592575173906
20
-103.16641277772865
10
323.67410656057325
20
-103.16641277772865
10
323.67410656057325
20
-109.23682677772865
10
312.09592575173906
20
-109.23682677772865
0
LWPOLYLINE
5
620
100
AcDbEntity
8
0
100
AcDbPolyline
90
4
70
1
43
0.0
10
280.73431226127474
20
-103.16641277772865
10
305.52026426127475
20
-103.16641277772865
10
305.52026426127475
20
-109.23682677772865
10
280.73431226127474
20
-109.23682677772865
0
LWPOLYLINE
5
621
100
AcDbEntity
8
0
100
AcDbPolyline
90
4
70
1
43
0.0
10
305.52026426127475
20
-237.80638294219813
10
305.52026426127475
20
-243.87679694219813
10
280.73431226127474
20
-243.87679694219813
10
280.73431226127474
20
-237.80638294219813
0
LWPOLYLINE
5
622
100
AcDbEntity
8
0
100
AcDbPolyline
90
4
70
1
43
0.0
10
312.09592575173906
20
-243.87679694219813
10
312.09592575173906
20
-237.80638294219813
10
323.67410656057325
20
-237.80638294219813
10
323.67410656057325
20
-243.87679694219813
0
LWPOLYLINE
5
623
100
AcDbEntity
8
0
100
AcDbPolyline
90
4
70
1
43
0.0
10
330.71635536193531
20
-237.80638294219813
10
343.53667536193529
20
-237.80638294219813
10
343.53667536193529
20
-243.87679694219813
10
330.71635536193531
20
-243.87679694219813
0
LINE
5
624
100
AcDbEntity
8
0
100
AcDbLine
10
361.62207702331449
20
-33.94830466901621
30
0
11
372.3562658320609
21
-33.948028623850199
31
0
0
LINE
5
625
100
AcDbEntity
8
0
100
AcDbLine
10
417.67346686654992
20
-45.318561319815714
30
0
11
411.83747363913966
21
-48.396197780979371
31
0
0
LINE
5
626
100
AcDbEntity
8
0
100
AcDbLine
10
411.83747363913966
20
-43.386496959410614
30
0
11
409.07353158976997
21
-44.825411743715676
31
0
0
LINE
5
627
100
AcDbEntity
8
0
100
AcDbLine
10
410.25878537441918
20
-40.354070768991804
30
0
11
411.83747363913966
21
-43.386496959410614
31
0
0
LINE
5
628
100
AcDbEntity
8
0
100
AcDbLine
10
409.07353158976997
20
-44.825411743715676
30
0
11
411.1394922662202
21
-48.793816021904391
31
0
0
LINE
5
629
100
AcDbEntity
8
0
100
AcDbLine
10
347.14906347476108
20
-36.999121338175158
30
0
11
351.51031830546481
21
-34.732911294947002
31
0
0
SPLINE
5
630
100
AcDbEntity
8
0
100
AcDbSpline
70
1064
71
3
72
8
73
4
74
0
42
0.000000001
43
0.0000000001
44
0.0000000001
40
0
40
0
40
0
40
0
40
1
40
1
40
1
40
1
10
382.83925353973302
20
-33.948218404901837
30
0
10
385.14274693319607
20
-33.927860073908185
30
0
10
409.37392259475621
20
-33.990901888697003
30
0
10
411.67731247128211
20
-33.94830466901621
30
0
0
LINE
5
631
100
AcDbEntity
8
0
100
AcDbLine
10
346.39321730456453
20
-46.302602557108266
30
0
11
343.991986669509
21
-41.69002585557017
31
0
0
LINE
5
632
100
AcDbEntity
8
0
100
AcDbLine
10
357.14881686649989
20
-34.840982977442117
30
0
11
361.62207702331449
21
-33.94830466901621
31
0
0
LINE
5
633
100
AcDbEntity
8
0
100
AcDbLine
10
372.3562658320609
20
-33.948028623850199
30
0
11
372.3562658320609
21
-31.716910822351792
31
0
0
LINE
5
634
100
AcDbEntity
8
0
100
AcDbLine
10
411.1394922662202
20
-48.793816021904391
30
0
11
411.83747363913966
21
-48.396197780979371
31
0
0
LINE
5
635
100
AcDbEntity
8
0
100
AcDbLine
10
411.67731247128211
20
-33.94830466901621
30
0
11
416.68277045535194
21
-43.439945174234722
31
0
0
LINE
5
636
100
AcDbEntity
8
0
100
AcDbLine
10
416.68277045535194
20
-43.439945174234722
30
0
11
417.67346686654992
21
-45.318561319815714
31
0
0
LINE
5
637
100
AcDbEntity
8
0
100
AcDbLine
10
352.75847377642731
20
-37.130294550501198
30
0
11
357.14881686649989
21
-34.840982977442117
31
0
0
LINE
5
638
100
AcDbEntity
8
0
100
AcDbLine
10
372.3562658320609
20
-31.716910822351792
30
0
11
382.83925353973302
21
-31.717186867517803
31
0
0
LINE
5
639
100
AcDbEntity
8
0
100
AcDbLine
10
351.51031830546481
20
-34.732911294947002
30
0
11
352.75847377642731
21
-37.130294550501198
31
0
0
LINE
5
640
100
AcDbEntity
8
0
100
AcDbLine
10
382.83925353973302
20
-31.717186867517803
30
0
11
382.83925353973302
21
-33.948218404901823
31
0
0
LINE
5
641
100
AcDbEntity
8
0
100
AcDbLine
10
403.0927563815909
20
-41.543031804666846
30
0
11
369.50206233239663
21
-38.762463353037212
31
0
0
LINE
5
642
100
AcDbEntity
8
0
100
AcDbLine
10
369.50206233239663
20
-38.762463353037212
30
0
11
346.39321730456453
21
-46.302602557108266
31
0
0
LINE
5
643
100
AcDbEntity
8
0
100
AcDbLine
10
410.25878537441918
20
-40.354070768991804
30
0
11
407.56648236462303
21
-41.755690099436137
31
0
0
LINE
5
644
100
AcDbEntity
8
0
100
AcDbLine
10
407.56648236462303
20
-41.755690099436137
30
0
11
403.0927563815909
21
-41.543031804666846
31
0
0
LINE
5
645
100
AcDbEntity
8
0
100
AcDbLine
10
343.991986669509
20
-41.69002585557017
30
0
11
348.41040010240084
21
-39.389655223047583
31
0
0
LINE
5
646
100
AcDbEntity
8
0
100
AcDbLine
10
348.41040010240084
20
-39.389655223047583
30
0
11
347.14906347476108
21
-36.999121338175158
31
0
0
LINE
5
647
100
AcDbEntity
8
0
100
AcDbLine
10
297.57106583206087
20
-21.127708623850204
30
0
11
297.57106583206087
21
-18.89659082235179
31
0
0
LINE
5
648
100
AcDbEntity
8
0
100
AcDbLine
10
308.05405353973299
20
-18.896866867517808
30
0
11
308.05405353973299
21
-21.127898404901835
31
0
0
LINE
5
649
100
AcDbEntity
8
0
100
AcDbLine
10
269.20678666950897
20
-28.869705855570182
30
0
11
273.62520010240081
21
-26.569335223047595
31
0
0
LINE
5
650
100
AcDbEntity
8
0
100
AcDbLine
10
263.86498666950899
20
-41.69002585557017
30
0
11
268.28340010240083
21
-39.389655223047583
31
0
0
LINE
5
651
100
AcDbEntity
8
0
100
AcDbLine
10
297.57106583206087
20
-18.89659082235179
30
0
11
308.05405353973299
21
-18.896866867517808
31
0
0
LINE
5
652
100
AcDbEntity
8
0
100
AcDbLine
10
327.43948236462302
20
-41.755690099436137
30
0
11
322.96575638159089
21
-41.543031804666846
31
0
0
LINE
5
653
100
AcDbEntity
8
0
100
AcDbLine
10
281.49507702331454
20
-33.94830466901621
30
0
11
292.22926583206089
21
-33.948028623850199
31
0
0
LINE
5
654
100
AcDbEntity
8
0
100
AcDbLine
10
266.26621730456452
20
-46.302602557108258
30
0
11
263.86498666950899
21
-41.69002585557017
31
0
0
LINE
5
655
100
AcDbEntity
8
0
100
AcDbLine
10
330.13178537441922
20
-40.354070768991804
30
0
11
331.71047363913971
21
-43.386496959410614
31
0
0
LINE
5
656
100
AcDbEntity
8
0
100
AcDbLine
10
273.62520010240081
20
-26.569335223047595
30
0
11
272.36386347476105
21
-24.178801338175155
31
0
0
LINE
5
657
100
AcDbEntity
8
0
100
AcDbLine
10
342.88826686654988
20
-32.498241319815719
30
0
11
337.05227363913968
21
-35.575877780979383
31
0
0
LINE
5
658
100
AcDbEntity
8
0
100
AcDbLine
10
268.28340010240083
20
-39.389655223047583
30
0
11
267.02206347476107
21
-36.999121338175158
31
0
0
LINE
5
659
100
AcDbEntity
8
0
100
AcDbLine
10
292.22926583206089
20
-31.716910822351792
30
0
11
302.71225353973301
21
-31.717186867517803
31
0
0
LINE
5
660
100
AcDbEntity
8
0
100
AcDbLine
10
272.36386347476105
20
-24.178801338175155
30
0
11
276.72511830546478
21
-21.912591294946999
31
0
0
LINE
5
661
100
AcDbEntity
8
0
100
AcDbLine
10
336.89211247128208
20
-21.127984669016215
30
0
11
341.89757045535191
21
-30.61962517423472
31
0
0
LINE
5
662
100
AcDbEntity
8
0
100
AcDbLine
10
331.01249226622019
20
-48.793816021904405
30
0
11
331.71047363913971
21
-48.396197780979378
31
0
0
LINE
5
663
100
AcDbEntity
8
0
100
AcDbLine
10
335.47358537441926
20
-27.533750768991805
30
0
11
337.05227363913968
21
-30.566176959410626
31
0
0
LINE
5
664
100
AcDbEntity
8
0
100
AcDbLine
10
328.94653158976996
20
-44.825411743715676
30
0
11
331.01249226622019
21
-48.793816021904405
31
0
0
LINE
5
665
100
AcDbEntity
8
0
100
AcDbLine
10
271.3833183054648
20
-34.732911294947002
30
0
11
272.63147377642736
21
-37.130294550501198
31
0
0
LINE
5
666
100
AcDbEntity
8
0
100
AcDbLine
10
272.63147377642736
20
-37.130294550501198
30
0
11
277.02181686649988
21
-34.840982977442117
31
0
0
LINE
5
667
100
AcDbEntity
8
0
100
AcDbLine
10
334.28833158976994
20
-32.005091743715681
30
0
11
336.35429226622023
21
-35.973496021904403
31
0
0
LINE
5
668
100
AcDbEntity
8
0
100
AcDbLine
10
277.02181686649988
20
-34.840982977442117
30
0
11
281.49507702331454
21
-33.94830466901621
31
0
0
LINE
5
669
100
AcDbEntity
8
0
100
AcDbLine
10
322.96575638159089
20
-41.543031804666846
30
0
11
289.37506233239662
21
-38.762463353037212
31
0
0
LINE
5
670
100
AcDbEntity
8
0
100
AcDbLine
10
332.781282364623
20
-28.935370099436142
30
0
11
328.30755638159087
21
-28.722711804666847
31
0
0
LINE
5
671
100
AcDbEntity
8
0
100
AcDbLine
10
331.71047363913971
20
-43.386496959410614
30
0
11
328.94653158976996
21
-44.825411743715676
31
0
0
LINE
5
672
100
AcDbEntity
8
0
100
AcDbLine
10
292.22926583206089
20
-33.948028623850199
30
0
11
292.22926583206089
21
-31.716910822351792
31
0
0
LINE
5
673
100
AcDbEntity
8
0
100
AcDbLine
10
337.54646686654985
20
-45.318561319815707
30
0
11
331.71047363913971
21
-48.396197780979378
31
0
0
LINE
5
674
100
AcDbEntity
8
0
100
AcDbLine
10
328.30755638159087
20
-28.722711804666847
30
0
11
294.7168623323966
21
-25.942143353037213
31
0
0
LINE
5
675
100
AcDbEntity
8
0
100
AcDbLine
10
294.7168623323966
20
-25.942143353037213
30
0
11
271.6080173045645
21
-33.482282557108263
31
0
0
LINE
5
676
100
AcDbEntity
8
0
100
AcDbLine
10
267.02206347476107
20
-36.999121338175158
30
0
11
271.3833183054648
21
-34.732911294947002
31
0
0
LINE
5
677
100
AcDbEntity
8
0
100
AcDbLine
10
302.71225353973301
20
-31.717186867517803
30
0
11
302.71225353973301
21
-33.948218404901823
31
0
0
LINE
5
678
100
AcDbEntity
8
0
100
AcDbLine
10
336.35429226622023
20
-35.973496021904403
30
0
11
337.05227363913968
21
-35.575877780979383
31
0
0
LINE
5
679
100
AcDbEntity
8
0
100
AcDbLine
10
341.89757045535191
20
-30.61962517423472
30
0
11
342.88826686654988
21
-32.498241319815719
31
0
0
LINE
5
680
100
AcDbEntity
8
0
100
AcDbLine
10
336.55577045535188
20
-43.439945174234715
30
0
11
337.54646686654985
21
-45.318561319815707
31
0
0
LINE
5
681
100
AcDbEntity
8
0
100
AcDbLine
10
330.13178537441922
20
-40.354070768991804
30
0
11
327.43948236462302
21
-41.755690099436137
31
0
0
LINE
5
682
100
AcDbEntity
8
0
100
AcDbLine
10
337.05227363913968
20
-30.566176959410626
30
0
11
334.28833158976994
21
-32.005091743715681
31
0
0
LINE
5
683
100
AcDbEntity
8
0
100
AcDbLine
10
276.72511830546478
20
-21.912591294946999
30
0
11
277.97327377642733
21
-24.309974550501202
31
0
0
LINE
5
684
100
AcDbEntity
8
0
100
AcDbLine
10
331.55031247128204
20
-33.94830466901621
30
0
11
336.55577045535188
21
-43.439945174234715
31
0
0
SPLINE
5
685
100
AcDbEntity
8
0
100
AcDbSpline
70
1064
71
3
72
8
73
4
74
0
42
0.000000001
43
0.0000000001
44
0.0000000001
40
0
40
0
40
0
40
0
40
1
40
1
40
1
40
1
10
302.71225353973301
20
-33.948218404901837
30
0
10
305.01574693319611
20
-33.927860073908185
30
0
10
329.2469225947562
20
-33.990901888697003
30
0
10
331.55031247128204
20
-33.94830466901621
30
0
0
LINE
5
686
100
AcDbEntity
8
0
100
AcDbLine
10
271.6080173045645
20
-33.482282557108263
30
0
11
269.20678666950897
21
-28.869705855570182
31
0
0
LINE
5
687
100
AcDbEntity
8
0
100
AcDbLine
10
289.37506233239662
20
-38.762463353037212
30
0
11
266.26621730456452
21
-46.302602557108258
31
0
0
LINE
5
688
100
AcDbEntity
8
0
100
AcDbLine
10
277.97327377642733
20
-24.309974550501202
30
0
11
282.36361686649991
21
-22.020662977442129
31
0
0
LINE
5
689
100
AcDbEntity
8
0
100
AcDbLine
10
282.36361686649991
20
-22.020662977442129
30
0
11
286.83687702331451
21
-21.127984669016215
31
0
0
SPLINE
5
690
100
AcDbEntity
8
0
100
AcDbSpline
70
1064
71
3
72
8
73
4
74
0
42
0.000000001
43
0.0000000001
44
0.0000000001
40
0
40
0
40
0
40
0
40
1
40
1
40
1
40
1
10
308.05405353973299
20
-21.127898404901842
30
0
10
310.35754693319609
20
-21.107540073908186
30
0
10
334.58872259475618
20
-21.170581888697015
30
0
10
336.89211247128208
20
-21.127984669016215
30
0
0
LINE
5
691
100
AcDbEntity
8
0
100
AcDbLine
10
286.83687702331451
20
-21.127984669016215
30
0
11
297.57106583206087
21
-21.127708623850204
31
0
0
LINE
5
692
100
AcDbEntity
8
0
100
AcDbLine
10
335.47358537441926
20
-27.533750768991805
30
0
11
332.781282364623
21
-28.935370099436142
31
0
0
LINE
5
693
100
AcDbEntity
8
0
100
AcDbLine
10
561.08498875517205
20
-148.73127853261025
30
0
11
561.08498875517205
21
-205.06470932820238
31
0
0
LWPOLYLINE
5
694
100
AcDbEntity
8
0
100
AcDbPolyline
90
4
70
1
43
0.0
10
465.75923709951331
20
-153.66296315016135
10
462.44732109951326
20
-153.66296315016135
10
462.44732109951326
20
-175.92758555016133
10
465.75923709951331
20
-175.92758555016133
0
LWPOLYLINE
5
695
100
AcDbEntity
8
0
100
AcDbPolyline
90
4
70
1
43
0.0
10
551.43007179051926
20
-153.40927765781407
10
551.43007179051926
20
-175.67390005781405
10
554.74198779051926
20
-175.67390005781405
10
554.74198779051926
20
-153.40927765781407
0
ARC
5
696
100
AcDbEntity
8
0
100
AcDbCircle
10
508.48867896990305
20
-163.75834833337859
30
0
40
36.119718341517
100
AcDbArc
50
-47.800075278243519
51
226.81617958042011
0
ARC
5
697
100
AcDbEntity
8
0
100
AcDbCircle
10
504.81627329766837
20
-266.3670174491067
30
0
40
28.336930813551632
100
AcDbArc
50
153.0873946373562
51
206.9126053626438
0
ARC
5
698
100
AcDbEntity
8
0
100
AcDbCircle
10
657.38149393843355
20
-223.56291236892804
30
0
40
47.006664092357006
100
AcDbArc
50
238.04119959166394
51
279.93875394342422
0
ARC
5
699
100
AcDbEntity
8
0
100
AcDbCircle
10
313.39848913252683
20
-239.53196526366423
30
0
40
53.989391678533913
100
AcDbArc
50
181.38602212395867
51
270
0
ARC
5
700
100
AcDbEntity
8
0
100
AcDbCircle
10
312.60265332588875
20
-106.69418576003184
30
0
40
53.179992663015064
100
AcDbArc
50
89.142502548882135
51
179.47090891297367
0
CIRCLE
5
701
100
AcDbEntity
8
0
100
AcDbCircle
10
290.09440179382005
20
-361.3101935794208
30
0
40
35.660092615768193
0
CIRCLE
5
702
100
AcDbEntity
8
0
100
AcDbCircle
10
461.47121647587875
20
-287.65334161105625
30
0
40
4.1578572382619878
0
LWPOLYLINE
5
703
100
AcDbEntity
8
0
100
AcDbPolyline
90
14
70
1
43
0.0
10
698.76820733819363
20
-346.55315456200753
10
699.01333730976728
20
-346.75964106301984
10
701.31917691557464
20
-348.70197699624794
10
695.10117353436567
20
-356.05067098614506
10
699.83586543213846
20
-356.05067098614506
10
706.33797102302697
20
-349.14480093208238
10
706.31711248206352
20
-342.09026760163675
10
703.76398552520345
20
-338.95856585078616
10
690.36363294986643
20
-339.01373751989729
10
688.00665855605507
20
-341.92250291225838
10
646.84642856291009
20
-342.09196700486007
42
2.1858780786057586
10
652.10665841371383
20
-356.88972329177193
10
652.97102881071726
20
-355.97744542453626
10
690.82960712446618
20
-355.97744542453626
0
ELLIPSE
5
704
100
AcDbEntity
8
0
100
AcDbEllipse
10
650.60320195068232
20
-351.76619324303442
30
0
11
-0.029758159827501997
21
1.0388117604224663
31
0.0
40
0.99961392319630882
41
0
42
6.2831853071795862
0
ELLIPSE
5
705
100
AcDbEntity
8
0
100
AcDbEllipse
10
643.09142084356358
20
-344.25467482684496
30
0
11
-0.029758159827501997
21
1.0388117604224663
31
0.0
40
0.99961392319630882
41
0
42
6.2831853071795862
0
CIRCLE
5
706
100
AcDbEntity
8
0
100
AcDbCircle
10
643.09129133881015
20
-351.77375399577608
30
0
40
4.1578572382619878
0
ELLIPSE
5
707
100
AcDbEntity
8
0
100
AcDbEllipse
10
643.09142834797058
20
-359.27849005995245
30
0
11
-0.029758159827501997
21
1.0388117604224663
31
0.0
40
0.99961392319630882
41
0
42
6.2831853071795862
0
ELLIPSE
5
708
100
AcDbEntity
8
0
100
AcDbEllipse
10
635.57938461784522
20
-351.7661946624782
30
0
11
-0.029758159827501997
21
1.0388117604224663
31
0.0
40
0.99961392319630882
41
0
42
6.2831853071795862
0
LINE
5
709
100
AcDbEntity
8
0
100
AcDbLine
10
635.54218765171333
20
-291.23122356936813
30
0
11
651.07335288601257
21
-291.30315058362248
31
0
0
ARC
5
710
100
AcDbEntity
8
0
100
AcDbCircle
10
247.77645752215889
20
-320.172747186918
30
0
40
12.437491000000074
100
AcDbArc
50
90.000000000000398
51
180
0
ARC
5
711
100
AcDbEntity
8
0
100
AcDbCircle
10
347.85539025787665
20
-320.17274718691795
30
0
40
12.437490999999923
100
AcDbArc
50
0
51
90
0
ARC
5
712
100
AcDbEntity
8
0
100
AcDbCircle
10
347.90562632293972
20
-402.93193346575407
30
0
40
12.395806339382469
100
AcDbArc
50
-90.23220130322072
51
0
0
ARC
5
713
100
AcDbEntity
8
0
100
AcDbCircle
10
247.78500892660441
20
-402.92333780519419
30
0
40
12.446086660559718
100
AcDbArc
50
179.84720540637431
51
269.99999999999972
0
ARC
5
714
100
AcDbEntity
8
0
100
AcDbCircle
10
378.7422751691654
20
-361.31019578670987
30
0
40
139.65606244212302
100
AcDbArc
50
157.94862023664635
51
202.05138918994899
0
ARC
5
715
100
AcDbEntity
8
0
100
AcDbCircle
10
57.658553490416793
20
-92.223413644266458
30
0
40
22.584573213433231
100
AcDbArc
50
147.49778122750035
51
212.50221877249967
0
LINE
5
716
100
AcDbEntity
8
0
100
AcDbLine
10
38.611387563338312
20
-80.087993693590505
30
0
11
38.611387563338312
21
-104.35883359494244
31
0
0
LINE
5
717
100
AcDbEntity
8
0
100
AcDbLine
10
711.00892388617035
20
-376.66349507008988
30
0
11
711.00892388617035
21
-359.7718082825532
31
0
0
LINE
5
718
100
AcDbEntity
8
0
100
AcDbLine
10
706.62561994783107
20
-364.65791123796703
30
0
11
700.8217099474723
21
-364.65791123796703
31
0
0
LINE
5
719
100
AcDbEntity
8
0
100
AcDbLine
10
605.19959542836853
20
-364.73381503220992
30
0
11
605.19959542836853
21
-360.33715740896469
31
0
0
SPLINE
5
720
100
AcDbEntity
8
0
100
AcDbSpline
70
1064
71
3
72
8
73
4
74
0
42
0.000000001
43
0.0000000001
44
0.0000000001
40
0
40
0
40
0
40
0
40
1
40
1
40
1
40
1
10
673.05359345298848
20
-375.13797459216164
30
0
10
660.13267835600368
20
-375.15315707629264
30
0
10
647.21189265519024
20
-375.19397725521713
30
0
10
634.29123635054862
20
-375.26932895912796
30
0
0
LINE
5
721
100
AcDbEntity
8
0
100
AcDbLine
10
693.99488007879722
20
-376.67313077166614
30
0
11
707.4075696602473
21
-376.67313077166614
31
0
0
LINE
5
722
100
AcDbEntity
8
0
100
AcDbLine
10
596.80709776293259
20
-376.53182152590045
30
0
11
597.59841573696224
21
-376.67315665090041
31
0
0
LINE
5
723
100
AcDbEntity
8
0
100
AcDbLine
10
711.00892388617035
20
-359.7718082825532
30
0
11
706.62561994783118
21
-359.7718082825532
31
0
0
LINE
5
724
100
AcDbEntity
8
0
100
AcDbLine
10
700.8217099474723
20
-364.65791123796703
30
0
11
700.82170994747253
21
-359.87465235971695
31
0
0
LINE
5
725
100
AcDbEntity
8
0
100
AcDbLine
10
707.4075696602473
20
-376.67313077166614
30
0
11
711.00892388617035
21
-376.66349507008988
31
0
0
LINE
5
726
100
AcDbEntity
8
0
100
AcDbLine
10
626.21046268883617
20
-360.05683354287584
30
0
11
608.27425549874204
21
-360.19898817696242
31
0
0
SPLINE
5
727
100
AcDbEntity
8
0
100
AcDbSpline
70
1064
71
3
72
8
73
4
74
0
42
0.000000001
43
0.0000000001
44
0.0000000001
40
0
40
0
40
0
40
0
40
1
40
1
40
1
40
1
10
700.82170994747253
20
-359.87465235971695
30
0
10
694.87678399933714
20
-359.86787200032671
30
0
10
686.670832481248
20
-359.86526682407236
30
0
10
680.72594966516954
20
-359.8677253513323
30
0
0
LINE
5
728
100
AcDbEntity
8
0
100
AcDbLine
10
605.19959542836853
20
-360.33715740896469
30
0
11
596.80709776293259
21
-360.33715740896469
31
0
0
LINE
5
729
100
AcDbEntity
8
0
100
AcDbLine
10
597.59841573696224
20
-376.67315665090041
30
0
11
613.82077926102534
21
-376.67315665090041
31
0
0
LINE
5
730
100
AcDbEntity
8
0
100
AcDbLine
10
706.62561994783118
20
-359.7718082825532
30
0
11
706.62561994783107
21
-364.65791123796703
31
0
0
LINE
5
731
100
AcDbEntity
8
0
100
AcDbLine
10
608.27425549874204
20
-360.19898817696242
30
0
11
608.27425549874204
21
-364.73381503220992
31
0
0
LINE
5
732
100
AcDbEntity
8
0
100
AcDbLine
10
608.27425549874204
20
-364.73381503220992
30
0
11
605.19959542836853
21
-364.73381503220992
31
0
0
LINE
5
733
100
AcDbEntity
8
0
100
AcDbLine
10
596.80709776293259
20
-360.33715740896469
30
0
11
596.80709776293259
21
-376.53182152590045
31
0
0
LINE
5
734
100
AcDbEntity
8
0
100
AcDbLine
10
613.82077926102534
20
-376.67315665090041
30
0
11
613.82077926102534
21
-415.05917792794662
31
0
0
LINE
5
735
100
AcDbEntity
8
0
100
AcDbLine
10
613.82077926102534
20
-415.05917792794662
30
0
11
614.95146026102543
21
-423.52089391876086
31
0
0
ARC
5
736
100
AcDbEntity
8
0
100
AcDbCircle
10
653.93117726474156
20
-416.9882297769235
30
0
40
30.128277955812955
100
AcDbArc
50
10.945612334153241
51
169.54376535992978
0
LINE
5
737
100
AcDbEntity
8
0
100
AcDbLine
10
692.86419907879736
20
-423.87904526884324
30
0
11
693.99488007879722
21
-415.05916067512379
31
0
0
LINE
5
738
100
AcDbEntity
8
0
100
AcDbLine
10
693.99488007879722
20
-415.05916067512379
30
0
11
693.99488007879722
21
-376.67313077166614
31
0
0
ELLIPSE
5
739
100
AcDbEntity
8
0
100
AcDbEllipse
10
576.26009470331678
20
-276.93745907459981
30
0
11
0.32733099782201486
21
0.98634154360129056
31
0.0
40
0.99961407032828953
41
0
42
6.2831853071795862
0
ELLIPSE
5
740
100
AcDbEntity
8
0
100
AcDbEllipse
10
585.88819104285949
20
-272.44820774262956
30
0
11
0.32733099782201486
21
0.98634154360129056
31
0.0
40
0.99961407032828953
41
0
42
6.2831853071795862
0
ELLIPSE
5
741
100
AcDbEntity
8
0
100
AcDbEllipse
10
580.74975100989764
20
-286.56597728418041
30
0
11
0.32733099782201486
21
0.98634154360129056
31
0.0
40
0.99961407032828953
41
0
42
6.2831853071795862
0
ELLIPSE
5
742
100
AcDbEntity
8
0
100
AcDbEllipse
10
590.37786541742389
20
-282.07590868916509
30
0
11
0.32733099782201486
21
0.98634154360129056
31
0.0
40
0.99961407032828953
41
0
42
6.2831853071795862
0
CIRCLE
5
743
100
AcDbEntity
8
0
100
AcDbCircle
10
583.32145849693188
20
-279.49895730243509
30
0
40
4.5648582193944423
0
LINE
5
744
100
AcDbEntity
8
0
100
AcDbLine
10
667.66012113328429
20
-311.17645882556479
30
0
11
672.72804701463519
21
-309.29918955584083
31
0
0
LWPOLYLINE
5
745
100
AcDbEntity
8
0
100
AcDbPolyline
90
4
70
1
43
0.0
10
278.44966972700774
20
-318.40576382016974
10
295.65026572700776
20
-318.40576382016974
10
295.65026572700776
20
-315.09384782016974
10
278.44966972700774
20
-315.09384782016974
0
LWPOLYLINE
5
746
100
AcDbEntity
8
0
100
AcDbPolyline
90
4
70
1
43
0.0
10
278.41761675647939
20
-407.53414890407726
10
295.61821275647941
20
-407.53414890407726
10
295.61821275647941
20
-404.2222329040772
10
278.41761675647939
20
-404.2222329040772
0
LINE
5
747
100
AcDbEntity
8
0
100
AcDbLine
10
666.18337667179514
20
-291.29167745709833
30
0
11
689.94884926201098
21
-291.40290639950604
31
0
0
ARC
5
748
100
AcDbEntity
8
0
100
AcDbCircle
10
650.33493382147628
20
-235.5376192082895
30
0
40
66.528832809796342
100
AcDbArc
50
217.70625582327497
51
236.35773726229311
0
ARC
5
749
100
AcDbEntity
8
0
100
AcDbCircle
10
627.84534822182468
20
-262.04384255476918
30
0
40
32.256480208923847
100
AcDbArc
50
243.54960612047117
51
285.39538247898912
0
ARC
5
750
100
AcDbEntity
8
0
100
AcDbCircle
10
641.26824680780419
20
-329.24707338116832
30
0
40
36.42978403450185
100
AcDbArc
50
59.169766107905978
51
97.66573849163548
0
LINE
5
751
100
AcDbEntity
8
0
100
AcDbLine
10
659.93836724046059
20
-297.96519735317793
30
0
11
672.72804701463519
21
-309.29918955584083
31
0
0
ARC
5
752
100
AcDbEntity
8
0
100
AcDbCircle
10
576.70977492098007
20
-290.33986086141545
30
0
40
25.293384098818539
100
AcDbArc
50
33.91379167430798
51
62.844060704990689
0
ARC
5
753
100
AcDbEntity
8
0
100
AcDbCircle
10
584.22288159659149
20
-280.59812718449757
30
0
40
13.384956615964015
100
AcDbArc
50
72.472127597998934
51
138.73228125091154
0
ARC
5
754
100
AcDbEntity
8
0
100
AcDbCircle
10
584.91482635254681
20
-281.40685707713828
30
0
40
14.439262377584782
100
AcDbArc
50
138.13119466796221
51
200.86425993191426
0
ARC
5
755
100
AcDbEntity
8
0
100
AcDbCircle
10
581.34620955700063
20
-281.50261229773764
30
0
40
11.1334170196647
100
AcDbArc
50
206.95609770435539
51
242.31044964740931
0
ARC
5
756
100
AcDbEntity
8
0
100
AcDbCircle
10
536.08543237070387
20
-374.49661705349678
30
0
40
92.295828450791277
100
AcDbArc
50
44.795096290699419
51
64.257023143024227
0
ARC
5
757
100
AcDbEntity
8
0
100
AcDbCircle
10
576.52406431567613
20
-331.7529185544293
30
0
40
33.533776869582546
100
AcDbArc
50
19.951299017089674
51
41.649236297010972
0
ARC
5
758
100
AcDbEntity
8
0
100
AcDbCircle
10
586.9896055525561
20
-321.1940939559662
30
0
40
21.074171375813641
100
AcDbArc
50
-36.400770704804778
51
2.4030456276721948
0
ARC
5
759
100
AcDbEntity
8
0
100
AcDbCircle
10
517.62726691494981
20
-272.4172706140476
30
0
40
105.86563554089599
100
AcDbArc
50
319.90180662690148
51
324.62861601060689
0
ARC
5
760
100
AcDbEntity
8
0
100
AcDbCircle
10
603.04676751780744
20
-345.74442683765534
30
0
40
6.7904944464246295
100
AcDbArc
50
130.81573206593475
51
207.81541892156343
0
ARC
5
761
100
AcDbEntity
8
0
100
AcDbCircle
10
602.42849311745556
20
-346.36075912427742
30
0
40
5.9615880230864793
100
AcDbArc
50
205.34836182762544
51
249.28995385916076
0
LINE
5
762
100
AcDbEntity
8
0
100
AcDbLine
10
600.32024394038376
20
-351.93712148377176
30
0
11
613.18638419199385
21
-350.84002787418899
31
0
0
ARC
5
763
100
AcDbEntity
8
0
100
AcDbCircle
10
610.03779269180825
20
-313.91499296141552
30
0
40
37.059031716230336
100
AcDbArc
50
274.87381186889945
51
287.54468241261907
0
ARC
5
764
100
AcDbEntity
8
0
100
AcDbCircle
10
609.84978118044626
20
-326.27283901740952
30
0
40
25.631858551591911
100
AcDbArc
50
296.30672963204137
51
334.26091199929328
0
ARC
5
765
100
AcDbEntity
8
0
100
AcDbCircle
10
613.43591622799534
20
-327.11786797832804
30
0
40
22.048942027383514
100
AcDbArc
50
-27.808464772372087
51
10.991244973891087
0
ARC
5
766
100
AcDbEntity
8
0
100
AcDbCircle
10
686.03774361798469
20
-302.86244961333517
30
0
40
54.760543536602235
100
AcDbArc
50
193.27708741142757
51
201.47951539736925
0
ARC
5
767
100
AcDbEntity
8
0
100
AcDbCircle
10
643.61866799481322
20
-315.25119749943781
30
0
40
10.879379320219815
100
AcDbArc
50
132.608892002494
51
180.98797491214214
0
ARC
5
768
100
AcDbEntity
8
0
100
AcDbCircle
10
649.61667223851816
20
-320.3431292631401
30
0
40
18.71260813672005
100
AcDbArc
50
92.009258119408997
51
135.57195607439792
0
ARC
5
769
100
AcDbEntity
8
0
100
AcDbCircle
10
648.65904015628973
20
-316.12064512645918
30
0
40
14.481758898931762
100
AcDbArc
50
50.452785844417917
51
88.806859613781796
0
LINE
5
770
100
AcDbEntity
8
0
100
AcDbLine
10
657.87977670169812
20
-304.95375843557889
30
0
11
667.66012113328429
21
-311.17645882556479
31
0
0
LINE
5
771
100
AcDbEntity
8
0
100
AcDbLine
10
691.98916724046057
20
-442.19379735317796
30
0
11
704.77884701463518
21
-453.52778955584085
31
0
0
LINE
5
772
100
AcDbEntity
8
0
100
AcDbLine
10
689.93057670169821
20
-449.18235843557898
30
0
11
699.71092113328439
21
-455.40505882556477
31
0
0
ARC
5
773
100
AcDbEntity
8
0
100
AcDbCircle
10
673.31904680780428
20
-473.47567338116824
30
0
40
36.429784034501886
100
AcDbArc
50
59.169766107906035
51
97.665738491635679
0
ARC
5
774
100
AcDbEntity
8
0
100
AcDbCircle
10
619.04040555255608
20
-465.42269395596622
30
0
40
21.074171375813698
100
AcDbArc
50
-36.400770704804629
51
2.4030456276723466
0
ARC
5
775
100
AcDbEntity
8
0
100
AcDbCircle
10
549.6780669149498
20
-416.64587061404757
30
0
40
105.86563554087422
100
AcDbArc
50
319.90180662690148
51
324.62861601060689
0
ARC
5
776
100
AcDbEntity
8
0
100
AcDbCircle
10
635.09756751780753
20
-489.97302683765531
30
0
40
6.7904944464246562
100
AcDbArc
50
130.81573206593578
51
207.81541892156341
0
LINE
5
777
100
AcDbEntity
8
0
100
AcDbLine
10
632.37104394038374
20
-496.16572148377173
30
0
11
645.23718419199383
21
-495.06862787418896
31
0
0
ARC
5
778
100
AcDbEntity
8
0
100
AcDbCircle
10
641.90058118044635
20
-470.50143901740944
30
0
40
25.631858551591886
100
AcDbArc
50
296.30672963204097
51
334.26091199929323
0
ARC
5
779
100
AcDbEntity
8
0
100
AcDbCircle
10
642.08859269180823
20
-458.14359296141555
30
0
40
37.059031716230493
100
AcDbArc
50
274.87381186889945
51
287.54468241261907
0
ARC
5
780
100
AcDbEntity
8
0
100
AcDbCircle
10
645.48671622799532
20
-471.34646797832801
30
0
40
22.048942027383603
100
AcDbArc
50
-27.808464772371938
51
10.991244973890954
0
ARC
5
781
100
AcDbEntity
8
0
100
AcDbCircle
10
675.6694679948132
20
-459.47979749943778
30
0
40
10.879379320219844
100
AcDbArc
50
132.60889200249335
51
180.98797491214214
0
ARC
5
782
100
AcDbEntity
8
0
100
AcDbCircle
10
718.08854361798467
20
-447.09104961333514
30
0
40
54.760543536602711
100
AcDbArc
50
193.27708741142766
51
201.47951539736928
0
ARC
5
783
100
AcDbEntity
8
0
100
AcDbCircle
10
681.66747223851814
20
-464.57172926314007
30
0
40
18.712608136720124
100
AcDbArc
50
92.009258119408642
51
135.57195607439755
0
ARC
5
784
100
AcDbEntity
8
0
100
AcDbCircle
10
680.7098401562896
20
-460.34924512645921
30
0
40
14.481758898931808
100
AcDbArc
50
50.452785844417086
51
88.806859613780901
0
ARC
5
785
100
AcDbEntity
8
0
100
AcDbCircle
10
634.47929311745554
20
-490.58935912427739
30
0
40
5.961588023086513
100
AcDbArc
50
205.34836182762589
51
249.28995385916076
0
ARC
5
786
100
AcDbEntity
8
0
100
AcDbCircle
10
669.58785569105271
20
-466.9392554530433
30
0
40
29.58931864281152
100
AcDbArc
50
92.185348357447182
51
175.34726761204215
0
LINE
5
787
100
AcDbEntity
8
0
100
AcDbLine
10
699.71092113328439
20
-455.40505882556477
30
0
11
704.77884701463518
21
-453.52778955584085
31
0
0
ARC
5
788
100
AcDbEntity
8
0
100
AcDbCircle
10
692.55210625551877
20
-423.74988240955412
30
0
40
69.335928639612646
100
AcDbArc
50
169.84102912090384
51
174.19304185024873
0
ARC
5
789
100
AcDbEntity
8
0
100
AcDbCircle
10
616.5866562724184
20
-416.72965656520068
30
0
40
6.9853253888466673
100
AcDbArc
50
256.46200248120545
51
359.95885349444438
0
ARC
5
790
100
AcDbEntity
8
0
100
AcDbCircle
10
644.04515705792369
20
-417.2570401794539
30
0
40
39.918101886195366
100
AcDbArc
50
2.7928283115326318
51
8.6294894239354321
0
ARC
5
791
100
AcDbEntity
8
0
100
AcDbCircle
10
700.48810115877916
20
-414.75593012467408
30
0
40
16.581583176949309
100
AcDbArc
50
181.9219373219745
51
194.62718895000251
0
ARC
5
792
100
AcDbEntity
8
0
100
AcDbCircle
10
691.37675555751207
20
-416.76635322081438
30
0
40
7.2665587728379242
100
AcDbArc
50
197.4322487293164
51
281.81176825870062
0
ARC
5
793
100
AcDbEntity
8
0
100
AcDbCircle
10
648.96046799481314
20
-438.11259749943781
30
0
40
10.879379320219844
100
AcDbArc
50
132.60889200249289
51
180.98797491214214
0
ARC
5
794
100
AcDbEntity
8
0
100
AcDbCircle
10
691.37954361798461
20
-425.72384961333518
30
0
40
54.760543536602711
100
AcDbArc
50
193.27708741142766
51
201.47951539736925
0
ARC
5
795
100
AcDbEntity
8
0
100
AcDbCircle
10
654.95847223851808
20
-443.2045292631401
30
0
40
18.712608136720124
100
AcDbArc
50
92.009258119408642
51
135.57195607439732
0
ARC
5
796
100
AcDbEntity
8
0
100
AcDbCircle
10
654.00084015628966
20
-438.98204512645918
30
0
40
14.481758898931808
100
AcDbArc
50
50.452785844417576
51
88.806859613781356
0
ARC
5
797
100
AcDbEntity
8
0
100
AcDbCircle
10
607.77029311745548
20
-469.22215912427748
30
0
40
5.961588023086513
100
AcDbArc
50
205.34836182762544
51
249.28995385916053
0
ARC
5
798
100
AcDbEntity
8
0
100
AcDbCircle
10
642.87885569105265
20
-445.57205545304333
30
0
40
29.58931864281152
100
AcDbArc
50
92.185348357447182
51
175.34726761204215
0
LINE
5
799
100
AcDbEntity
8
0
100
AcDbLine
10
673.00192113328433
20
-434.03785882556474
30
0
11
678.06984701463523
21
-432.16058955584089
31
0
0
LINE
5
800
100
AcDbEntity
8
0
100
AcDbLine
10
605.66204394038368
20
-474.79852148377176
30
0
11
618.52818419199377
21
-473.70142787418899
31
0
0
LINE
5
801
100
AcDbEntity
8
0
100
AcDbLine
10
663.22157670169815
20
-427.81515843557889
30
0
11
673.00192113328433
21
-434.03785882556474
31
0
0
LINE
5
802
100
AcDbEntity
8
0
100
AcDbLine
10
665.28016724046051
20
-420.82659735317799
30
0
11
678.06984701463523
21
-432.16058955584089
31
0
0
ARC
5
803
100
AcDbEntity
8
0
100
AcDbCircle
10
608.38856751780759
20
-468.60582683765534
30
0
40
6.7904944464246562
100
AcDbArc
50
130.81573206593518
51
207.81541892156295
0
ARC
5
804
100
AcDbEntity
8
0
100
AcDbCircle
10
615.19158118044641
20
-449.13423901740947
30
0
40
25.631858551591886
100
AcDbArc
50
296.30672963204097
51
334.26091199929317
0
ARC
5
805
100
AcDbEntity
8
0
100
AcDbCircle
10
615.37959269180828
20
-436.77639296141558
30
0
40
37.059031716230493
100
AcDbArc
50
274.87381186889928
51
287.54468241261907
0
ARC
5
806
100
AcDbEntity
8
0
100
AcDbCircle
10
618.77771622799537
20
-449.97926797832798
30
0
40
22.048942027383603
100
AcDbArc
50
-27.808464772372194
51
10.991244973891021
0
ARC
5
807
100
AcDbEntity
8
0
100
AcDbCircle
10
646.61004680780422
20
-452.10847338116827
30
0
40
36.429784034501886
100
AcDbArc
50
59.169766107906035
51
97.665738491635679
0
ARC
5
808
100
AcDbEntity
8
0
100
AcDbCircle
10
592.33140555255602
20
-444.0554939559662
30
0
40
21.074171375813698
100
AcDbArc
50
-36.400770704804572
51
2.4030456276721948
0
ARC
5
809
100
AcDbEntity
8
0
100
AcDbCircle
10
522.96906691494985
20
-395.27867061404754
30
0
40
105.86563554087422
100
AcDbArc
50
319.90180662690148
51
324.62861601060689
0
ARC
5
810
100
AcDbEntity
8
0
100
AcDbCircle
10
626.21694881570374
20
-360.87521358449061
30
0
40
0.81840574433185509
100
AcDbArc
50
53.698210961317038
51
90.454092102783065
0
ARC
5
811
100
AcDbEntity
8
0
100
AcDbCircle
10
624.00872913953413
20
-363.47343027272029
30
0
40
4.2265830885956754
100
AcDbArc
50
30.438751913406382
51
50.424243135141744
0
ARC
5
812
100
AcDbEntity
8
0
100
AcDbCircle
10
611.7520511512372
20
-370.35763258959366
30
0
40
18.283646457473854
100
AcDbArc
50
22.962064829915555
51
29.579829108994858
0
LINE
5
813
100
AcDbEntity
8
0
100
AcDbLine
10
628.58696275497539
20
-363.22478749971759
30
0
11
632.75797556718044
21
-373.83836033574585
31
0
0
ARC
5
814
100
AcDbEntity
8
0
100
AcDbCircle
10
636.99263875387703
20
-371.53103474898552
30
0
40
4.822460333490123
100
AcDbArc
50
208.58448094764412
51
225.15503560562078
0
ARC
5
815
100
AcDbEntity
8
0
100
AcDbCircle
10
634.40499888029206
20
-374.09404822022913
30
0
40
1.1807737837538281
100
AcDbArc
50
226.4783235141966
51
264.47121935295399
0
ARC
5
816
100
AcDbEntity
8
0
100
AcDbCircle
10
680.95333508218744
20
-361.2076593681158
30
0
40
1.3590906140527257
100
AcDbArc
50
99.631280964802087
51
146.16018352965693
0
ARC
5
817
100
AcDbEntity
8
0
100
AcDbCircle
10
685.17783304217403
20
-364.56913180564072
30
0
40
6.7541778793929197
100
AcDbArc
50
142.42907146940237
51
156.08513042644645
0
LINE
5
818
100
AcDbEntity
8
0
100
AcDbLine
10
679.00350956787929
20
-361.83113099094737
30
0
11
675.62777660893914
21
-371.13345995786341
31
0
0
LINE
5
819
100
AcDbEntity
8
0
100
AcDbLine
10
675.62777660893914
20
-371.13345995786341
30
0
11
674.71359512062531
21
-373.30171811932007
31
0
0
LINE
5
820
100
AcDbEntity
8
0
100
AcDbLine
10
674.71359512062531
20
-373.30171811932007
30
0
11
674.3461194619631
21
-373.98288528716455
31
0
0
ARC
5
821
100
AcDbEntity
8
0
100
AcDbCircle
10
671.38048763114261
20
-372.38298799054496
30
0
40
3.3696651934138275
100
AcDbArc
50
318.47025114517987
51
331.65405247368858
0
ARC
5
822
100
AcDbEntity
8
0
100
AcDbCircle
10
672.8316180416175
20
-373.82284996374494
30
0
40
1.3337263105756856
100
AcDbArc
50
279.5804617330258
51
323.45055111287365
0
ARC
5
823
100
AcDbEntity
8
0
100
AcDbCircle
10
680.95333508218744
20
-361.2076593681158
30
0
40
1.3590906140526506
100
AcDbArc
50
99.631280964802087
51
146.16018352965693
0
LINE
5
824
100
AcDbEntity
8
0
100
AcDbLine
10
693.99488007879722
20
-376.67313077166614
30
0
11
707.4075696602473
21
-376.67313077166614
31
0
0
LINE
5
825
100
AcDbEntity
8
0
100
AcDbLine
10
707.4075696602473
20
-376.67313077166614
30
0
11
711.00892388617035
21
-376.66349507008988
31
0
0
ARC
5
826
100
AcDbEntity
8
0
100
AcDbCircle
10
672.8316180416175
20
-373.82284996374494
30
0
40
1.3337263105755979
100
AcDbArc
50
279.5804617330258
51
323.45055111287365
0
ARC
5
827
100
AcDbEntity
8
0
100
AcDbCircle
10
671.38048763114261
20
-372.38298799054496
30
0
40
3.3696651934140993
100
AcDbArc
50
318.47025114517987
51
331.65405247368858
0
ARC
5
828
100
AcDbEntity
8
0
100
AcDbCircle
10
685.17783304217403
20
-364.56913180564072
30
0
40
6.7541778793934188
100
AcDbArc
50
142.42907146940237
51
156.08513042644645
0
LINE
5
829
100
AcDbEntity
8
0
100
AcDbLine
10
674.71359512062531
20
-373.30171811932007
30
0
11
674.3461194619631
21
-373.98288528716455
31
0
0
ARC
5
830
100
AcDbEntity
8
0
100
AcDbCircle
10
633.36155705792362
20
-64.69824017945389
30
0
40
39.918101886193
100
AcDbArc
50
2.7928283115326318
51
8.6294894239354321
0
LINE
5
831
100
AcDbEntity
8
0
100
AcDbLine
10
603.13717926102538
20
-62.50037792794663
30
0
11
604.26786026102536
21
-70.962093918760857
31
0
0
LINE
5
832
100
AcDbEntity
8
0
100
AcDbLine
10
617.90336275497543
20
-10.6659874997176
30
0
11
622.07437556718037
21
-21.279560335745813
31
0
0
ARC
5
833
100
AcDbEntity
8
0
100
AcDbCircle
10
681.86850625551881
20
-71.191082409554141
30
0
40
69.335928639606863
100
AcDbArc
50
169.84102912090384
51
174.19304185024873
0
ARC
5
834
100
AcDbEntity
8
0
100
AcDbCircle
10
660.71886038381967
20
-19.836041838093344
30
0
40
3.3446989049053228
100
AcDbArc
50
325.52896257605266
51
331.65405247368841
0
ARC
5
835
100
AcDbEntity
8
0
100
AcDbCircle
10
689.8045011587792
20
-62.197130124674047
30
0
40
16.581583176950375
100
AcDbArc
50
181.92193732197467
51
194.62718895000276
0
LINE
5
836
100
AcDbEntity
8
0
100
AcDbLine
10
695.94201994783123
20
-7.2130082825532229
30
0
11
695.94201994783111
21
-12.09911123796708
31
0
0
LINE
5
837
100
AcDbEntity
8
0
100
AcDbLine
10
690.13810994747234
20
-12.09911123796708
30
0
11
690.13810994747246
21
-7.3158523597170033
31
0
0
LINE
5
838
100
AcDbEntity
8
0
100
AcDbLine
10
683.31128007879727
20
-24.114330771666118
30
0
11
700.32532388617039
21
-24.104695070089885
31
0
0
LINE
5
839
100
AcDbEntity
8
0
100
AcDbLine
10
695.94201994783111
20
-12.09911123796708
30
0
11
690.13810994747234
21
-12.09911123796708
31
0
0
ARC
5
840
100
AcDbEntity
8
0
100
AcDbCircle
10
643.24757726474161
20
-64.429429776923527
30
0
40
30.128277955812955
100
AcDbArc
50
10.945612334153344
51
169.54376535992972
0
LINE
5
841
100
AcDbEntity
8
0
100
AcDbLine
10
683.31128007879727
20
-62.500360675123801
30
0
11
683.31128007879727
21
-24.114330771666118
31
0
0
ARC
5
842
100
AcDbEntity
8
0
100
AcDbCircle
10
601.06845115123724
20
-17.798832589593676
30
0
40
18.2836464574725
100
AcDbArc
50
22.962064829915573
51
29.579829108995195
0
ARC
5
843
100
AcDbEntity
8
0
100
AcDbCircle
10
674.49423304217385
20
-12.010331805640757
30
0
40
6.7541778793934188
100
AcDbArc
50
142.42907146940081
51
156.08513042644586
0
ARC
5
844
100
AcDbEntity
8
0
100
AcDbCircle
10
680.693155557512
20
-64.207553220814376
30
0
40
7.266558772837902
100
AcDbArc
50
197.43224872931697
51
281.81176825870062
0
LINE
5
845
100
AcDbEntity
8
0
100
AcDbLine
10
664.94417660893919
20
-18.574659957863418
30
0
11
664.02999512062536
21
-20.74291811932007
31
0
0
LINE
5
846
100
AcDbEntity
8
0
100
AcDbLine
10
668.31990956787934
20
-9.2723309909474327
30
0
11
664.94417660893919
21
-18.574659957863418
31
0
0
SPLINE
5
847
100
AcDbEntity
8
0
100
AcDbSpline
70
1064
71
3
72
8
73
4
74
0
42
0.000000001
43
0.0000000001
44
0.0000000001
40
0
40
0
40
0
40
0
40
1
40
1
40
1
40
1
10
662.36999345298852
20
-22.579174592161678
30
0
10
649.44907835600361
20
-22.59435707629261
30
0
10
636.52829265519028
20
-22.635177255217123
30
0
10
623.60763635054855
20
-22.710528959127942
30
0
0
LINE
5
848
100
AcDbEntity
8
0
100
AcDbLine
10
664.02999512062536
20
-20.74291811932007
30
0
11
663.66251946196314
21
-21.424085287164537
31
0
0
LINE
5
849
100
AcDbEntity
8
0
100
AcDbLine
10
700.32532388617039
20
-7.2130082825532229
30
0
11
695.94201994783123
21
-7.2130082825532229
31
0
0
LINE
5
850
100
AcDbEntity
8
0
100
AcDbLine
10
700.32532388617039
20
-24.104695070089885
30
0
11
700.32532388617039
21
-7.2130082825532229
31
0
0
LINE
5
851
100
AcDbEntity
8
0
100
AcDbLine
10
664.02999512062536
20
-20.74291811932007
30
0
11
663.66251946196314
21
-21.424085287164537
31
0
0
SPLINE
5
852
100
AcDbEntity
8
0
100
AcDbSpline
70
1064
71
3
72
8
73
4
74
0
42
0.000000001
43
0.0000000001
44
0.0000000001
40
0
40
0
40
0
40
0
40
1
40
1
40
1
40
1
10
690.13810994747246
20
-7.3158523597170033
30
0
10
684.19318399933718
20
-7.3090720003267018
30
0
10
675.98723248124782
20
-7.3064668240724107
30
0
10
670.04234966516958
20
-7.3089253513322827
30
0
0
LINE
5
853
100
AcDbEntity
8
0
100
AcDbLine
10
586.12349776293263
20
-7.7783574089647258
30
0
11
586.12349776293263
21
-23.973021525900474
31
0
0
LINE
5
854
100
AcDbEntity
8
0
100
AcDbLine
10
603.13717926102538
20
-24.114356650900422
30
0
11
603.13717926102538
21
-62.50037792794663
31
0
0
ARC
5
855
100
AcDbEntity
8
0
100
AcDbCircle
10
660.69688763114254
20
-19.824187990545013
30
0
40
3.3696651934140993
100
AcDbArc
50
318.47025114518186
51
331.65405247369046
0
ARC
5
856
100
AcDbEntity
8
0
100
AcDbCircle
10
662.14801804161755
20
-21.264049963744935
30
0
40
1.3337263105755848
100
AcDbArc
50
279.58046173302552
51
323.45055111287365
0
LINE
5
857
100
AcDbEntity
8
0
100
AcDbLine
10
597.59065549874197
20
-7.6401881769624422
30
0
11
597.59065549874197
21
-12.175015032209942
31
0
0
LINE
5
858
100
AcDbEntity
8
0
100
AcDbLine
10
597.59065549874197
20
-12.175015032209942
30
0
11
594.51599542836857
21
-12.175015032209942
31
0
0
LINE
5
859
100
AcDbEntity
8
0
100
AcDbLine
10
682.18059907879729
20
-71.320245268843252
30
0
11
683.31128007879727
21
-62.500360675123801
31
0
0
LINE
5
860
100
AcDbEntity
8
0
100
AcDbLine
10
594.51599542836857
20
-12.175015032209942
30
0
11
594.51599542836857
21
-7.7783574089647258
31
0
0
ARC
5
861
100
AcDbEntity
8
0
100
AcDbCircle
10
670.26973508218725
20
-8.6488593681158168
30
0
40
1.3590906140526378
100
AcDbArc
50
99.631280964792381
51
146.1601835296502
0
LINE
5
862
100
AcDbEntity
8
0
100
AcDbLine
10
586.12349776293263
20
-23.973021525900474
30
0
11
586.91481573696228
21
-24.114356650900422
31
0
0
LINE
5
863
100
AcDbEntity
8
0
100
AcDbLine
10
615.5268626888361
20
-7.498033542875846
30
0
11
597.59065549874197
21
-7.6401881769624422
31
0
0
LINE
5
864
100
AcDbEntity
8
0
100
AcDbLine
10
594.51599542836857
20
-7.7783574089647258
30
0
11
586.12349776293263
21
-7.7783574089647258
31
0
0
LINE
5
865
100
AcDbEntity
8
0
100
AcDbLine
10
586.91481573696228
20
-24.114356650900422
30
0
11
603.13717926102538
21
-24.114356650900422
31
0
0
ARC
5
866
100
AcDbEntity
8
0
100
AcDbCircle
10
605.90305627241844
20
-64.170856565200666
30
0
40
6.9853253888467401
100
AcDbArc
50
256.46200248120459
51
359.95885349444438
0
ARC
5
867
100
AcDbEntity
8
0
100
AcDbCircle
10
615.53334881570379
20
-8.3164135844906166
30
0
40
0.81840574433173274
100
AcDbArc
50
53.698210961316775
51
90.454092102791023
0
ARC
5
868
100
AcDbEntity
8
0
100
AcDbCircle
10
623.72139888029199
20
-21.535248220229121
30
0
40
1.1807737837538803
100
AcDbArc
50
226.47832351419987
51
264.47121935295399
0
ARC
5
869
100
AcDbEntity
8
0
100
AcDbCircle
10
626.30903875387708
20
-18.972234748985478
30
0
40
4.8224603334898815
100
AcDbArc
50
208.58448094764356
51
225.15503560562092
0
ARC
5
870
100
AcDbEntity
8
0
100
AcDbCircle
10
613.32512913953406
20
-10.914630272720348
30
0
40
4.2265830885955049
100
AcDbArc
50
30.43875191340755
51
50.424243135140919
0
LINE
5
871
100
AcDbEntity
8
0
100
AcDbLine
10
230.33683233720308
20
-49.571864824243889
30
0
11
230.33683233720308
21
-42.734400000000001
31
0
0
ARC
5
872
100
AcDbEntity
8
0
100
AcDbCircle
10
218.64173331487297
20
-43.56960031095069
30
0
40
11.72488382464913
100
AcDbArc
50
4.0848178641502724
51
89.794311025406515
0
LINE
5
873
100
AcDbEntity
8
0
100
AcDbLine
10
38.611387563338312
20
-42.734400000000001
30
0
11
38.581367651534094
21
-49.568966350000714
31
0
0
ARC
5
874
100
AcDbEntity
8
0
100
AcDbCircle
10
49.79071524586552
20
-42.783503690545011
30
0
40
11.179435522679324
100
AcDbArc
50
99.002853675175189
51
179.74833762693336
0
LINE
5
875
100
AcDbEntity
8
0
100
AcDbLine
10
48.041316284490975
20
-31.741792687277176
30
0
11
218.68382496929212
21
-31.844792039846752
31
0
0
CIRCLE
5
876
100
AcDbEntity
8
0
100
AcDbCircle
10
526.93573492926976
20
-46.442252442000502
30
0
40
1.6714363945453312
0
LINE
5
877
100
AcDbEntity
8
0
100
AcDbLine
10
446.42691480795861
20
-53.422778191430112
30
0
11
446.42691480795861
21
-293.45269001617351
31
0
0
LINE
5
878
100
AcDbEntity
8
0
100
AcDbLine
10
254.72968703118013
20
-353.43660050224503
30
0
11
254.72968703118013
21
-344.97013349053179
31
0
0
LINE
5
879
100
AcDbEntity
8
0
100
AcDbLine
10
254.66840499819648
20
-377.83991473985117
30
0
11
254.66840499819648
21
-369.43804202995915
31
0
0
LWPOLYLINE
5
880
100
AcDbEntity
8
0
100
AcDbPolyline
90
4
70
1
43
0.0
10
336.63578817234651
20
-270.4953935918258
10
336.08914091733425
20
-268.81565801446959
42
-19.487724669105148
10
338.2757299373834
20
-268.81565801446959
10
337.77041118214936
20
-270.4953935918258
0
LWPOLYLINE
5
881
100
AcDbEntity
8
0
100
AcDbPolyline
90
4
70
1
43
0.0
10
664.01170313646753
20
-175.24794968020046
10
653.43493913646762
20
-175.24794968020046
10
653.43493913646762
20
-172.1386582200231
10
664.01170313646753
20
-172.1386582200231
0
LWPOLYLINE
5
882
100
AcDbEntity
8
0
100
AcDbPolyline
90
4
70
1
43
0.0
10
669.08580290276404
20
-147.61164140838525
10
669.08580290276404
20
-190.72819693697258
10
632.94182990245292
20
-190.72819693697258
10
650.81846228321137
20
-147.61164140838525
0
LWPOLYLINE
5
883
100
AcDbEntity
8
0
100
AcDbPolyline
90
4
70
1
43
0.0
10
653.43493913646762
20
-184.71019137523828
10
653.43493913646762
20
-181.60089991506095
10
664.01170313646753
20
-181.60089991506095
10
664.01170313646753
20
-184.71019137523828
0
LWPOLYLINE
5
884
100
AcDbEntity
8
0
100
AcDbPolyline
90
13
70
1
43
0.0
10
245.66316818295417
20
-252.37146428011414
10
240.43874957562383
20
-252.32483648991743
10
240.43874957562383
20
-255.25864116699057
10
244.33727132028835
20
-255.25864116699057
10
244.33727132028835
20
-258.3624534256474
10
240.43874957562383
20
-258.3624534256474
10
240.43874957562383
20
-274.66189578366436
10
244.33727132028835
20
-274.66189578366436
10
244.33727132028835
20
-277.75667941060226
10
240.43874957562383
20
-277.75667941060226
10
240.4387495756238
20
-280.69096745610392
10
248.97823833962377
20
-280.61475061281675
10
248.9782383396238
20
-255.55786348742006
0
LWPOLYLINE
5
885
100
AcDbEntity
8
0
100
AcDbPolyline
90
4
70
1
43
0.0
10
454.76702859072259
20
47.444770291243515
10
246.89105202822276
20
47.444770291243515
10
246.89105202822276
20
77.444770291243486
10
454.76702859072259
20
77.444770291243515
0
LWPOLYLINE
5
886
100
AcDbEntity
8
0
100
AcDbPolyline
90
4
70
1
43
0.0
10
534.9631692905142
20
1.1365794172428461
10
247.72684116551443
20
1.1365794172428489
10
247.72684116551443
20
21.136579417242839
10
534.9631692905142
20
21.136579417242839
0
LWPOLYLINE
5
887
100
AcDbEntity
8
0
100
AcDbPolyline
90
4
70
1
43
0.0
10
750.63139632466743
20
24.41467962890863
10
247.41850569966775
20
24.41467962890863
10
247.41850569966772
20
44.414679628908623
10
750.63139632466743
20
44.414679628908623
0
ENDSEC
0
SECTION
2
OBJECTS
0
DICTIONARY
5
C
100
AcDbDictionary
3
ACAD_GROUP
350
D
3
ACAD_MLINESTYLE
350
17
0
DICTIONARY
5
D
100
AcDbDictionary
0
DICTIONARY
5
1A
330
C
100
AcDbDictionary
0
DICTIONARY
5
17
100
AcDbDictionary
0
ENDSEC
0
EOF
