0
SECTION
2
HEADER
9
$INSUNITS
70
4
9
$ACADVER
1
AC1014
9
$HANDSEED
5
FFFF
0
ENDSEC
0
SECTION
2
TABLES
0
TABLE
2
VPORT
5
8
100
AcDbSymbolTable
0
ENDTAB
0
TABLE
2
LTYPE
5
5
100
AcDbSymbolTable
0
LTYPE
5
14
100
AcDbSymbolTableRecord
100
AcDbLinetypeTableRecord
2
BYBLOCK
70
0
0
LTYPE
5
15
100
AcDbSymbolTableRecord
100
AcDbLinetypeTableRecord
2
BYLAYER
70
0
0
ENDTAB
0
TABLE
2
LAYER
5
2
100
AcDbSymbolTable
70
2
0
LAYER
5
50
100
AcDbSymbolTableRecord
100
AcDbLayerTableRecord
2
0
70
0
6
CONTINUOUS
0
ENDTAB
0
TABLE
2
STYLE
5
3
100
AcDbSymbolTable
70
1
0
STYLE
5
11
100
AcDbSymbolTableRecord
100
AcDbTextStyleTableRecord
2
STANDARD
70
0
0
ENDTAB
0
TABLE
2
VIEW
5
6
100
AcDbSymbolTable
70
0
0
ENDTAB
0
TABLE
2
UCS
5
7
100
AcDbSymbolTable
70
0
0
ENDTAB
0
TABLE
2
APPID
5
9
100
AcDbSymbolTable
70
2
0
APPID
5
12
100
AcDbSymbolTableRecord
100
AcDbRegAppTableRecord
2
ACAD
70
0
0
ENDTAB
0
TABLE
2
DIMSTYLE
5
A
100
AcDbSymbolTable
70
1
0
ENDTAB
0
TABLE
2
BLOCK_RECORD
5
1
100
AcDbSymbolTable
70
1
0
BLOCK_RECORD
5
1F
100
AcDbSymbolTableRecord
100
AcDbBlockTableRecord
2
*MODEL_SPACE
0
BLOCK_RECORD
5
1B
100
AcDbSymbolTableRecord
100
AcDbBlockTableRecord
2
*PAPER_SPACE
0
ENDTAB
0
ENDSEC
0
SECTION
2
BLOCKS
0
BLOCK
5
20
100
AcDbEntity
100
AcDbBlockBegin
2
*MODEL_SPACE
0
ENDBLK
5
21
100
AcDbEntity
100
AcDbBlockEnd
0
BLOCK
5
1C
100
AcDbEntity
100
AcDbBlockBegin
2
*PAPER_SPACE
0
ENDBLK
5
1D
100
AcDbEntity
100
AcDbBlockEnd
0
ENDSEC
0
SECTION
2
ENTITIES
0
LINE
5
100
100
AcDbEntity
8
0
100
AcDbLine
10
178.85450226136865
20
-286.48047367454836
30
0
11
178.85450226136865
21
-308.59628940661679
31
0
0
LINE
5
101
100
AcDbEntity
8
0
100
AcDbLine
10
158.62463578685083
20
-456.66815861201985
30
0
11
158.62463578685083
21
-478.78393955722856
31
0
0
LINE
5
102
100
AcDbEntity
8
0
100
AcDbLine
10
152.17994731846704
20
-456.66815861201985
30
0
11
152.17994731846704
21
-478.78393955722856
31
0
0
LINE
5
103
100
AcDbEntity
8
0
100
AcDbLine
10
145.30562905482566
20
-456.66815861201985
30
0
11
145.30562905482566
21
-478.78393955722856
31
0
0
LINE
5
104
100
AcDbEntity
8
0
100
AcDbLine
10
178.85450226136865
20
-456.5835569688312
30
0
11
178.85450226136865
21
-478.69937270089991
31
0
0
LINE
5
105
100
AcDbEntity
8
0
100
AcDbLine
10
161.64843453538597
20
-297.5877440947292
30
0
11
161.64843453538597
21
-341.00699802046927
31
0
0
LINE
5
106
100
AcDbEntity
8
0
100
AcDbLine
10
192.44206643428126
20
-286.57923356970139
30
0
11
192.44206643428126
21
-308.6950145149101
31
0
0
LINE
5
107
100
AcDbEntity
8
0
100
AcDbLine
10
215.19163867854394
20
-297.5877440947292
30
0
11
215.19163867854394
21
-341.00699802046927
31
0
0
LINE
5
108
100
AcDbEntity
8
0
100
AcDbLine
10
221.63173789604275
20
-297.5877440947292
30
0
11
221.63173789604275
21
-341.00699802046927
31
0
0
LINE
5
109
100
AcDbEntity
8
0
100
AcDbLine
10
397.45152209341342
20
-328.72826461699498
30
0
11
397.45152209341342
21
-372.45715638238175
31
0
0
LINE
5
110
100
AcDbEntity
8
0
100
AcDbLine
10
390.79690127627475
20
-328.72826461699498
30
0
11
390.79690127627475
21
-372.45715638238175
31
0
0
LINE
5
111
100
AcDbEntity
8
0
100
AcDbLine
10
384.35697458700469
20
-328.72826461699498
30
0
11
384.35697458700469
21
-372.45715638238175
31
0
0
LINE
5
112
100
AcDbEntity
8
0
100
AcDbLine
10
377.9170133920889
20
-328.72826461699498
30
0
11
377.9170133920889
21
-372.45715638238175
31
0
0
LINE
5
113
100
AcDbEntity
8
0
100
AcDbLine
10
120.21432667825225
20
-478.70058737032548
30
0
11
60.451704175002121
21
-478.70058737032542
31
0
0
LINE
5
114
100
AcDbEntity
8
0
100
AcDbLine
10
377.89272141747949
20
-286.42132053539689
30
0
11
377.89272141747949
21
-308.53710148060549
31
0
0
LINE
5
115
100
AcDbEntity
8
0
100
AcDbLine
10
371.01840315383816
20
-286.42132053539689
30
0
11
371.01840315383816
21
-308.53710148060549
31
0
0
LINE
5
116
100
AcDbEntity
8
0
100
AcDbLine
10
120.26536915473085
20
-286.39484389902725
30
0
11
137.52982642112642
21
-286.39484389902725
31
0
0
LINE
5
117
100
AcDbEntity
8
0
100
AcDbLine
10
120.25632004913237
20
-279.87878912881706
30
0
11
120.26536915473085
21
-286.39484389902725
31
0
0
LINE
5
118
100
AcDbEntity
8
0
100
AcDbLine
10
89.731085038497
20
-279.87878912881706
30
0
11
120.25632004913237
21
-279.87878912881706
31
0
0
LINE
5
119
100
AcDbEntity
8
0
100
AcDbLine
10
89.683027300375983
20
-286.39484389902725
30
0
11
89.731085038497
21
-279.87878912881706
31
0
0
LINE
5
120
100
AcDbEntity
8
0
100
AcDbLine
10
387.36120863439851
20
-297.44398931238919
30
0
11
387.36120863439851
21
-340.86324323812914
31
0
0
LINE
5
121
100
AcDbEntity
8
0
100
AcDbLine
10
60.469992121521045
20
-286.39484389902725
30
0
11
89.683027300375983
21
-286.39484389902725
31
0
0
LINE
5
122
100
AcDbEntity
8
0
100
AcDbLine
10
380.92107491125398
20
-297.44398931238919
30
0
11
380.92107491125398
21
-340.86324323812914
31
0
0
LINE
5
123
100
AcDbEntity
8
0
100
AcDbLine
10
60.4937363190041
20
-279.89526557466354
30
0
11
60.469992121521045
21
-286.39484389902725
31
0
0
LINE
5
124
100
AcDbEntity
8
0
100
AcDbLine
10
374.48097569375523
20
-297.44398931238919
30
0
11
374.48097569375523
21
-340.86324323812914
31
0
0
LINE
5
125
100
AcDbEntity
8
0
100
AcDbLine
10
29.954507640151053
20
-279.89526557466354
30
0
11
60.4937363190041
21
-279.89526557466354
31
0
0
LINE
5
126
100
AcDbEntity
8
0
100
AcDbLine
10
29.91979496052458
20
-286.39484389902719
30
0
11
29.954507640151053
21
-279.89526557466354
31
0
0
LINE
5
127
100
AcDbEntity
8
0
100
AcDbLine
10
5.5427639343710178
20
-286.39484389902719
30
0
11
29.91979496052458
21
-286.39484389902719
31
0
0
LINE
5
128
100
AcDbEntity
8
0
100
AcDbLine
10
60.451704175002121
20
-478.70058737032542
30
0
11
5.5427639343710187
21
-478.66470149874351
31
0
0
LINE
5
129
100
AcDbEntity
8
0
100
AcDbLine
10
175.42388194941796
20
-297.5877440947292
30
0
11
175.42388194941796
21
-341.00699802046927
31
0
0
LINE
5
130
100
AcDbEntity
8
0
100
AcDbLine
10
189.00181904716575
20
-297.5877440947292
30
0
11
189.00181904716575
21
-341.00699802046927
31
0
0
LINE
5
131
100
AcDbEntity
8
0
100
AcDbLine
10
195.44191826466457
20
-297.5877440947292
30
0
11
195.44191826466457
21
-341.00699802046927
31
0
0
LINE
5
132
100
AcDbEntity
8
0
100
AcDbLine
10
437.68396635388092
20
-328.75626803918527
30
0
11
437.68396635388092
21
-372.48515980457216
31
0
0
LINE
5
133
100
AcDbEntity
8
0
100
AcDbLine
10
394.01589846282866
20
-361.06285958146549
30
0
11
394.01589846282866
21
-404.48211350720555
31
0
0
LINE
5
134
100
AcDbEntity
8
0
100
AcDbLine
10
185.5677481706399
20
-286.57923356970139
30
0
11
185.5677481706399
21
-308.6950145149101
31
0
0
LINE
5
135
100
AcDbEntity
8
0
100
AcDbLine
10
447.34440847811805
20
-361.06285958146549
30
0
11
447.34440847811805
21
-404.48211350720555
31
0
0
LINE
5
136
100
AcDbEntity
8
0
100
AcDbLine
10
440.90430926061919
20
-361.06285958146549
30
0
11
440.90430926061919
21
-404.48211350720555
31
0
0
LINE
5
137
100
AcDbEntity
8
0
100
AcDbLine
10
434.24951591525178
20
-361.06285958146549
30
0
11
434.24951591525178
21
-404.48211350720555
31
0
0
LINE
5
138
100
AcDbEntity
8
0
100
AcDbLine
10
168.30312436381618
20
-424.84913969758935
30
0
11
168.30312436381618
21
-468.26839362332919
31
0
0
LINE
5
139
100
AcDbEntity
8
0
100
AcDbLine
10
198.8867203970193
20
-286.57923356970139
30
0
11
198.8867203970193
21
-308.6950145149101
31
0
0
LINE
5
140
100
AcDbEntity
8
0
100
AcDbLine
10
343.37797427494752
20
-478.70239386419814
30
0
11
283.06113520046904
21
-478.70058737032548
31
0
0
LINE
5
141
100
AcDbEntity
8
0
100
AcDbLine
10
313.8499123653728
20
-414.60210687623714
30
0
11
313.8499123653728
21
-446.65291061549709
31
0
0
LINE
5
142
100
AcDbEntity
8
0
100
AcDbLine
10
313.8499123653728
20
-446.65291061549709
30
0
11
281.79910579941031
21
-446.65291061549709
31
0
0
LINE
5
143
100
AcDbEntity
8
0
100
AcDbLine
10
281.79051969056655
20
-414.56028403192704
30
0
11
313.84132060312402
21
-414.56028403192704
31
0
0
LINE
5
144
100
AcDbEntity
8
0
100
AcDbLine
10
281.79051969056655
20
-446.61108494448456
30
0
11
281.79051969056655
21
-414.56028403192704
31
0
0
LINE
5
145
100
AcDbEntity
8
0
100
AcDbLine
10
565.75029297503579
20
-279.81743809066995
30
0
11
565.75029297503568
21
-286.28207944870985
31
0
0
LINE
5
146
100
AcDbEntity
8
0
100
AcDbLine
10
506.01940105166557
20
-279.78394173505643
30
0
11
506.01940105166557
21
-286.23209802083818
31
0
0
LINE
5
147
100
AcDbEntity
8
0
100
AcDbLine
10
211.99092948423853
20
-286.57923356970139
30
0
11
211.99092948423853
21
-308.6950145149101
31
0
0
LINE
5
148
100
AcDbEntity
8
0
100
AcDbLine
10
424.58945335311796
20
-328.75626803918527
30
0
11
424.58945335311796
21
-372.48515980457216
31
0
0
LINE
5
149
100
AcDbEntity
8
0
100
AcDbLine
10
148.76809807780543
20
-361.2066143638055
30
0
11
148.76809807780543
21
-404.62586828954556
31
0
0
LINE
5
150
100
AcDbEntity
8
0
100
AcDbLine
10
182.1322625626382
20
-361.2066143638055
30
0
11
182.1322625626382
21
-404.62586828954556
31
0
0
LINE
5
151
100
AcDbEntity
8
0
100
AcDbLine
10
175.42377843248073
20
-361.2066143638055
30
0
11
175.42377843248073
21
-404.62586828954556
31
0
0
LINE
5
152
100
AcDbEntity
8
0
100
AcDbLine
10
171.72881036842432
20
-456.66815861201985
30
0
11
171.72881036842432
21
-478.78393955722856
31
0
0
LINE
5
153
100
AcDbEntity
8
0
100
AcDbLine
10
165.06932425523462
20
-456.66815861201985
30
0
11
165.06932425523462
21
-478.78393955722856
31
0
0
LINE
5
154
100
AcDbEntity
8
0
100
AcDbLine
10
155.20819729530422
20
-424.84913969758935
30
0
11
155.20819729530422
21
-468.26839362332919
31
0
0
LINE
5
155
100
AcDbEntity
8
0
100
AcDbLine
10
397.45155659905919
20
-392.61113236557696
30
0
11
397.45155659905919
21
-436.34002413096368
31
0
0
LINE
5
156
100
AcDbEntity
8
0
100
AcDbLine
10
148.76809807780543
20
-424.84913969758935
30
0
11
148.76809807780543
21
-468.26839362332919
31
0
0
LINE
5
157
100
AcDbEntity
8
0
100
AcDbLine
10
390.79693578192041
20
-392.61113236557696
30
0
11
390.79693578192041
21
-436.34002413096368
31
0
0
LINE
5
158
100
AcDbEntity
8
0
100
AcDbLine
10
418.14949215820218
20
-328.75626803918527
30
0
11
418.14949215820218
21
-372.48515980457216
31
0
0
LINE
5
159
100
AcDbEntity
8
0
100
AcDbLine
10
192.44206643428126
20
-456.68231686398428
30
0
11
192.44206643428126
21
-478.798097809193
31
0
0
LINE
5
160
100
AcDbEntity
8
0
100
AcDbLine
10
185.5677481706399
20
-456.68231686398428
30
0
11
185.5677481706399
21
-478.798097809193
31
0
0
LINE
5
161
100
AcDbEntity
8
0
100
AcDbLine
10
145.30562905482566
20
-286.5650753177369
30
0
11
145.30562905482566
21
-308.6808562629455
31
0
0
LINE
5
162
100
AcDbEntity
8
0
100
AcDbLine
10
444.36318969644077
20
-286.43547878736138
30
0
11
444.36318969644077
21
-308.55125973257009
31
0
0
LINE
5
163
100
AcDbEntity
8
0
100
AcDbLine
10
152.17994731846704
20
-286.5650753177369
30
0
11
152.17994731846704
21
-308.6808562629455
31
0
0
LINE
5
164
100
AcDbEntity
8
0
100
AcDbLine
10
437.70370358325101
20
-286.43547878736138
30
0
11
437.70370358325101
21
-308.55125973257009
31
0
0
LINE
5
165
100
AcDbEntity
8
0
100
AcDbLine
10
178.85919502919091
20
-328.70476417711029
30
0
11
178.85919502919091
21
-372.4337255162169
31
0
0
LINE
5
166
100
AcDbEntity
8
0
100
AcDbLine
10
185.56743761982813
20
-328.90002282152523
30
0
11
185.56743761982813
21
-372.62891458691206
31
0
0
LINE
5
167
100
AcDbEntity
8
0
100
AcDbLine
10
440.90441277755644
20
-297.44398931238919
30
0
11
440.90441277755644
21
-340.86324323812914
31
0
0
LINE
5
168
100
AcDbEntity
8
0
100
AcDbLine
10
192.43671805918973
20
-328.90002282152523
30
0
11
192.43671805918973
21
-372.62891458691206
31
0
0
LINE
5
169
100
AcDbEntity
8
0
100
AcDbLine
10
195.44181474772731
20
-424.84913969758935
30
0
11
195.44181474772731
21
-468.26839362332919
31
0
0
LINE
5
170
100
AcDbEntity
8
0
100
AcDbLine
10
189.00171553022852
20
-361.2066143638055
30
0
11
189.00171553022852
21
-404.62586828954556
31
0
0
LINE
5
171
100
AcDbEntity
8
0
100
AcDbLine
10
189.00171553022852
20
-424.84913969758935
30
0
11
189.00171553022852
21
-468.26839362332919
31
0
0
LINE
5
172
100
AcDbEntity
8
0
100
AcDbLine
10
450.29450316732698
20
-286.39576692505108
30
0
11
475.38852436794957
21
-286.39576692505108
31
0
0
LINE
5
173
100
AcDbEntity
8
0
100
AcDbLine
10
221.63163437910549
20
-361.2066143638055
30
0
11
221.63163437910549
21
-404.62586828954556
31
0
0
LINE
5
174
100
AcDbEntity
8
0
100
AcDbLine
10
145.3349933593606
20
-328.87201939933504
30
0
11
145.3349933593606
21
-372.60091116472188
31
0
0
LINE
5
175
100
AcDbEntity
8
0
100
AcDbLine
10
152.2042392930764
20
-328.87201939933504
30
0
11
152.2042392930764
21
-372.60091116472188
31
0
0
LINE
5
176
100
AcDbEntity
8
0
100
AcDbLine
10
215.19153516160668
20
-361.2066143638055
30
0
11
215.19153516160668
21
-404.62586828954556
31
0
0
LINE
5
177
100
AcDbEntity
8
0
100
AcDbLine
10
158.64420048799218
20
-328.87201939933504
30
0
11
158.64420048799218
21
-372.60091116472188
31
0
0
LINE
5
178
100
AcDbEntity
8
0
100
AcDbLine
10
208.53674181623927
20
-361.2066143638055
30
0
11
208.53674181623927
21
-404.62586828954556
31
0
0
LINE
5
179
100
AcDbEntity
8
0
100
AcDbLine
10
165.08412717726219
20
-328.87201939933504
30
0
11
165.08412717726219
21
-372.60091116472188
31
0
0
LINE
5
180
100
AcDbEntity
8
0
100
AcDbLine
10
201.88194847087181
20
-361.2066143638055
30
0
11
201.88194847087181
21
-404.62586828954556
31
0
0
LINE
5
181
100
AcDbEntity
8
0
100
AcDbLine
10
171.73874799440088
20
-328.87201939933504
30
0
11
171.73874799440088
21
-372.60091116472188
31
0
0
LINE
5
182
100
AcDbEntity
8
0
100
AcDbLine
10
195.44181474772731
20
-361.2066143638055
30
0
11
195.44181474772731
21
-404.62586828954556
31
0
0
LINE
5
183
100
AcDbEntity
8
0
100
AcDbLine
10
168.30312436381618
20
-361.2066143638055
30
0
11
168.30312436381618
21
-404.62586828954556
31
0
0
LINE
5
184
100
AcDbEntity
8
0
100
AcDbLine
10
182.1322625626382
20
-424.84913969758935
30
0
11
182.1322625626382
21
-468.26839362332919
31
0
0
LINE
5
185
100
AcDbEntity
8
0
100
AcDbLine
10
384.35697458700469
20
-392.61113236557696
30
0
11
384.35697458700469
21
-436.34002413096368
31
0
0
LINE
5
186
100
AcDbEntity
8
0
100
AcDbLine
10
175.42377843248073
20
-424.84913969758935
30
0
11
175.42377843248073
21
-468.26839362332919
31
0
0
LINE
5
187
100
AcDbEntity
8
0
100
AcDbLine
10
377.9170133920889
20
-392.61113236557696
30
0
11
377.9170133920889
21
-436.34002413096368
31
0
0
LINE
5
188
100
AcDbEntity
8
0
100
AcDbLine
10
371.04776745837313
20
-392.61113236557696
30
0
11
371.04776745837313
21
-436.34002413096368
31
0
0
LINE
5
189
100
AcDbEntity
8
0
100
AcDbLine
10
161.64833101844874
20
-361.2066143638055
30
0
11
161.64833101844874
21
-404.62586828954556
31
0
0
LINE
5
190
100
AcDbEntity
8
0
100
AcDbLine
10
155.20819729530422
20
-361.2066143638055
30
0
11
155.20819729530422
21
-404.62586828954556
31
0
0
LINE
5
191
100
AcDbEntity
8
0
100
AcDbLine
10
404.57196912820342
20
-392.44387714335227
30
0
11
404.57196912820342
21
-436.17283848245876
31
0
0
LINE
5
192
100
AcDbEntity
8
0
100
AcDbLine
10
380.92097139431672
20
-361.06285958146549
30
0
11
380.92097139431672
21
-404.48211350720555
31
0
0
LINE
5
193
100
AcDbEntity
8
0
100
AcDbLine
10
374.48087217681797
20
-361.06285958146549
30
0
11
374.48087217681797
21
-404.48211350720555
31
0
0
LINE
5
194
100
AcDbEntity
8
0
100
AcDbLine
10
161.64833101844874
20
-424.84913969758935
30
0
11
161.64833101844874
21
-468.26839362332919
31
0
0
LINE
5
195
100
AcDbEntity
8
0
100
AcDbLine
10
205.33140886540306
20
-286.57923356970139
30
0
11
205.33140886540306
21
-308.6950145149101
31
0
0
LINE
5
196
100
AcDbEntity
8
0
100
AcDbLine
10
590.67778847178465
20
-286.35534319948022
30
0
11
590.67778847178465
21
-478.62395400761073
31
0
0
LINE
5
197
100
AcDbEntity
8
0
100
AcDbLine
10
475.38852436794957
20
-286.39576692505108
30
0
11
475.39445933901891
21
-279.83391453651666
31
0
0
LINE
5
198
100
AcDbEntity
8
0
100
AcDbLine
10
421.1546923636771
20
-297.44398931238919
30
0
11
421.1546923636771
21
-340.86324323812914
31
0
0
LINE
5
199
100
AcDbEntity
8
0
100
AcDbLine
10
427.59482608682157
20
-297.44398931238919
30
0
11
427.59482608682157
21
-340.86324323812914
31
0
0
LINE
5
200
100
AcDbEntity
8
0
100
AcDbLine
10
434.24961943218904
20
-297.44398931238919
30
0
11
434.24961943218904
21
-340.86324323812914
31
0
0
LINE
5
201
100
AcDbEntity
8
0
100
AcDbLine
10
211.97122676051418
20
-392.78289057010727
30
0
11
211.97122676051418
21
-436.51178233549416
31
0
0
LINE
5
202
100
AcDbEntity
8
0
100
AcDbLine
10
218.62581307200708
20
-392.78289057010727
30
0
11
218.62581307200708
21
-436.51178233549416
31
0
0
LINE
5
203
100
AcDbEntity
8
0
100
AcDbLine
10
235.33896652215878
20
-374.44574136861632
30
0
11
235.33896652215878
21
-279.85489514541672
31
0
0
LINE
5
204
100
AcDbEntity
8
0
100
AcDbLine
10
371.04776745837313
20
-328.72826461699498
30
0
11
371.04776745837313
21
-372.45715638238175
31
0
0
LINE
5
205
100
AcDbEntity
8
0
100
AcDbLine
10
397.44158446743683
20
-286.42132053539689
30
0
11
397.44158446743683
21
-308.53710148060549
31
0
0
LINE
5
206
100
AcDbEntity
8
0
100
AcDbLine
10
390.78209835424718
20
-286.42132053539689
30
0
11
390.78209835424718
21
-308.53710148060549
31
0
0
LINE
5
207
100
AcDbEntity
8
0
100
AcDbLine
10
384.33740988586328
20
-286.42132053539689
30
0
11
384.33740988586328
21
-308.53710148060549
31
0
0
LINE
5
208
100
AcDbEntity
8
0
100
AcDbLine
10
447.3445119950552
20
-297.44398931238919
30
0
11
447.3445119950552
21
-340.86324323812914
31
0
0
LINE
5
209
100
AcDbEntity
8
0
100
AcDbLine
10
394.01600197976592
20
-297.44398931238919
30
0
11
394.01600197976592
21
-340.86324323812914
31
0
0
LINE
5
210
100
AcDbEntity
8
0
100
AcDbLine
10
165.08416168290796
20
-392.75488714791697
30
0
11
165.08416168290796
21
-436.48377891330381
31
0
0
LINE
5
211
100
AcDbEntity
8
0
100
AcDbLine
10
137.52907610599581
20
-286.38390551733585
30
0
11
230.24677752073029
21
-286.3029291071656
31
0
0
LINE
5
212
100
AcDbEntity
8
0
100
AcDbLine
10
152.2042392930764
20
-392.75488714791697
30
0
11
152.2042392930764
21
-436.48377891330381
31
0
0
LINE
5
213
100
AcDbEntity
8
0
100
AcDbLine
10
158.64420048799218
20
-392.75488714791697
30
0
11
158.64420048799218
21
-436.48377891330381
31
0
0
LINE
5
214
100
AcDbEntity
8
0
100
AcDbLine
10
407.84514017858794
20
-297.44398931238919
30
0
11
407.84514017858794
21
-340.86324323812914
31
0
0
LINE
5
215
100
AcDbEntity
8
0
100
AcDbLine
10
431.02938004238803
20
-328.75626803918527
30
0
11
431.02938004238803
21
-372.48515980457216
31
0
0
LINE
5
216
100
AcDbEntity
8
0
100
AcDbLine
10
394.01589846282866
20
-424.70538491524934
30
0
11
394.01589846282866
21
-468.12463884098918
31
0
0
LINE
5
217
100
AcDbEntity
8
0
100
AcDbLine
10
444.36318969644077
20
-456.53856208164427
30
0
11
444.36318969644077
21
-478.65434302685298
31
0
0
LINE
5
218
100
AcDbEntity
8
0
100
AcDbLine
10
450.77851386028965
20
-392.63913578776726
30
0
11
450.77851386028965
21
-436.36802755315415
31
0
0
LINE
5
219
100
AcDbEntity
8
0
100
AcDbLine
10
374.48087217681797
20
-424.70538491524934
30
0
11
374.48087217681797
21
-468.12463884098918
31
0
0
LINE
5
220
100
AcDbEntity
8
0
100
AcDbLine
10
590.67778847178465
20
-478.62395400761073
30
0
11
566.29337771063388
21
-478.62898233464841
31
0
0
LINE
5
221
100
AcDbEntity
8
0
100
AcDbLine
10
414.71459314617823
20
-297.44398931238919
30
0
11
414.71459314617823
21
-340.86324323812914
31
0
0
LINE
5
222
100
AcDbEntity
8
0
100
AcDbLine
10
387.36110511746125
20
-361.06285958146549
30
0
11
387.36110511746125
21
-404.48211350720555
31
0
0
LINE
5
223
100
AcDbEntity
8
0
100
AcDbLine
10
208.53674181623927
20
-424.84913969758935
30
0
11
208.53674181623927
21
-468.26839362332919
31
0
0
LINE
5
224
100
AcDbEntity
8
0
100
AcDbLine
10
535.22510972286909
20
-279.81743809066995
30
0
11
565.75029297503579
21
-279.81743809066995
31
0
0
LINE
5
225
100
AcDbEntity
8
0
100
AcDbLine
10
440.90430926061919
20
-424.70538491524934
30
0
11
440.90430926061919
21
-468.12463884098918
31
0
0
LINE
5
226
100
AcDbEntity
8
0
100
AcDbLine
10
208.53684533317653
20
-297.5877440947292
30
0
11
208.53684533317653
21
-341.00699802046927
31
0
0
LINE
5
227
100
AcDbEntity
8
0
100
AcDbLine
10
427.59472256988437
20
-424.70538491524934
30
0
11
427.59472256988437
21
-468.12463884098918
31
0
0
LINE
5
228
100
AcDbEntity
8
0
100
AcDbLine
10
401.13655253149324
20
-424.70538491524934
30
0
11
401.13655253149324
21
-468.12463884098918
31
0
0
LINE
5
229
100
AcDbEntity
8
0
100
AcDbLine
10
452.94264038583333
20
-478.65218282369722
30
0
11
368.5906236312311
21
-478.6694707679917
31
0
0
LINE
5
230
100
AcDbEntity
8
0
100
AcDbLine
10
404.56727636038119
20
-286.33671889220835
30
0
11
404.56727636038119
21
-308.45253462427684
31
0
0
LINE
5
231
100
AcDbEntity
8
0
100
AcDbLine
10
401.1366560484305
20
-297.44398931238919
30
0
11
401.1366560484305
21
-340.86324323812914
31
0
0
LINE
5
232
100
AcDbEntity
8
0
100
AcDbLine
10
390.78209835424718
20
-456.52440382967995
30
0
11
390.78209835424718
21
-478.64018477488855
31
0
0
LINE
5
233
100
AcDbEntity
8
0
100
AcDbLine
10
450.77847935464382
20
-328.75626803918527
30
0
11
450.77847935464382
21
-372.48515980457216
31
0
0
LINE
5
234
100
AcDbEntity
8
0
100
AcDbLine
10
384.33740988586328
20
-456.52440382967995
30
0
11
384.33740988586328
21
-478.64018477488855
31
0
0
LINE
5
235
100
AcDbEntity
8
0
100
AcDbLine
10
450.80784365917879
20
-456.53856208164427
30
0
11
450.80784365917879
21
-478.65434302685298
31
0
0
LINE
5
236
100
AcDbEntity
8
0
100
AcDbLine
10
404.57196912820342
20
-328.56100939477028
30
0
11
404.57196912820342
21
-372.28997073387688
31
0
0
LINE
5
237
100
AcDbEntity
8
0
100
AcDbLine
10
397.44158446743683
20
-456.52440382967995
30
0
11
397.44158446743683
21
-478.64018477488855
31
0
0
LINE
5
238
100
AcDbEntity
8
0
100
AcDbLine
10
411.28052226965247
20
-456.53856208164427
30
0
11
411.28052226965247
21
-478.65434302685298
31
0
0
LINE
5
239
100
AcDbEntity
8
0
100
AcDbLine
10
475.39445933901891
20
-279.83391453651666
30
0
11
505.91940105166555
21
-279.78394173505643
31
0
0
LINE
5
240
100
AcDbEntity
8
0
100
AcDbLine
10
205.33140886540306
20
-456.68231686398428
30
0
11
205.33140886540306
21
-478.798097809193
31
0
0
LINE
5
241
100
AcDbEntity
8
0
100
AcDbLine
10
418.14952666384795
20
-392.63913578776726
30
0
11
418.14952666384795
21
-436.36802755315415
31
0
0
LINE
5
242
100
AcDbEntity
8
0
100
AcDbLine
10
211.99092948423853
20
-456.68231686398428
30
0
11
211.99092948423853
21
-478.798097809193
31
0
0
LINE
5
243
100
AcDbEntity
8
0
100
AcDbLine
10
211.97119225486844
20
-328.90002282152523
30
0
11
211.97119225486844
21
-372.62891458691206
31
0
0
LINE
5
244
100
AcDbEntity
8
0
100
AcDbLine
10
418.15484053329379
20
-286.43547878736138
30
0
11
418.15484053329379
21
-308.55125973257009
31
0
0
LINE
5
245
100
AcDbEntity
8
0
100
AcDbLine
10
434.24951591525178
20
-424.70538491524934
30
0
11
434.24951591525178
21
-468.12463884098918
31
0
0
LINE
5
246
100
AcDbEntity
8
0
100
AcDbLine
10
368.5906236312311
20
-478.6694707679917
30
0
11
343.37797427494752
21
-478.70239386419814
31
0
0
LINE
5
247
100
AcDbEntity
8
0
100
AcDbLine
10
418.15484053329379
20
-456.53856208164427
30
0
11
418.15484053329379
21
-478.65434302685298
31
0
0
LINE
5
248
100
AcDbEntity
8
0
100
AcDbLine
10
535.20192192892375
20
-286.39576692505108
30
0
11
535.22510972286909
21
-279.81743809066995
31
0
0
LINE
5
249
100
AcDbEntity
8
0
100
AcDbLine
10
431.02941454803374
20
-392.63913578776726
30
0
11
431.02941454803374
21
-436.36802755315415
31
0
0
LINE
5
250
100
AcDbEntity
8
0
100
AcDbLine
10
371.01840315383816
20
-456.52440382967995
30
0
11
371.01840315383816
21
-478.64018477488855
31
0
0
LINE
5
251
100
AcDbEntity
8
0
100
AcDbLine
10
377.89272141747949
20
-456.52440382967995
30
0
11
377.89272141747949
21
-478.64018477488855
31
0
0
LINE
5
252
100
AcDbEntity
8
0
100
AcDbLine
10
566.29337771063388
20
-478.62898233464841
30
0
11
506.47942931555508
21
-478.64124120228041
31
0
0
LINE
5
253
100
AcDbEntity
8
0
100
AcDbLine
10
205.31660594337549
20
-328.90002282152523
30
0
11
205.31660594337549
21
-372.62891458691206
31
0
0
LINE
5
254
100
AcDbEntity
8
0
100
AcDbLine
10
5.5427639343710187
20
-478.66470149874351
30
0
11
5.5427639343710178
21
-286.39484389902719
31
0
0
LINE
5
255
100
AcDbEntity
8
0
100
AcDbLine
10
427.59472256988437
20
-361.06285958146549
30
0
11
427.59472256988437
21
-404.48211350720555
31
0
0
LINE
5
256
100
AcDbEntity
8
0
100
AcDbLine
10
447.34440847811805
20
-424.70538491524934
30
0
11
447.34440847811805
21
-468.12463884098918
31
0
0
LINE
5
257
100
AcDbEntity
8
0
100
AcDbLine
10
201.88205198780909
20
-297.5877440947292
30
0
11
201.88205198780909
21
-341.00699802046927
31
0
0
LINE
5
258
100
AcDbEntity
8
0
100
AcDbLine
10
506.47942931555508
20
-478.64124120228041
30
0
11
452.94264038583333
21
-478.65218282369722
31
0
0
LINE
5
259
100
AcDbEntity
8
0
100
AcDbLine
10
450.80784365917879
20
-286.43547878736138
30
0
11
450.80784365917879
21
-308.55125973257009
31
0
0
LINE
5
260
100
AcDbEntity
8
0
100
AcDbLine
10
424.59949449603187
20
-286.43547878736138
30
0
11
424.59949449603187
21
-308.55125973257009
31
0
0
LINE
5
261
100
AcDbEntity
8
0
100
AcDbLine
10
221.63163437910549
20
-424.84913969758935
30
0
11
221.63163437910549
21
-468.26839362332919
31
0
0
LINE
5
262
100
AcDbEntity
8
0
100
AcDbLine
10
431.0441829644156
20
-286.43547878736138
30
0
11
431.0441829644156
21
-308.55125973257009
31
0
0
LINE
5
263
100
AcDbEntity
8
0
100
AcDbLine
10
565.75029297503568
20
-286.28207944870985
30
0
11
590.67778847178465
21
-286.35534319948022
31
0
0
LINE
5
264
100
AcDbEntity
8
0
100
AcDbLine
10
421.15458884673978
20
-361.06285958146549
30
0
11
421.15458884673978
21
-404.48211350720555
31
0
0
LINE
5
265
100
AcDbEntity
8
0
100
AcDbLine
10
215.19153516160668
20
-424.84913969758935
30
0
11
215.19153516160668
21
-468.26839362332919
31
0
0
LINE
5
266
100
AcDbEntity
8
0
100
AcDbLine
10
230.24677752073029
20
-286.3029291071656
30
0
11
230.24751790983305
21
-279.85489514541672
31
0
0
LINE
5
267
100
AcDbEntity
8
0
100
AcDbLine
10
424.58948785876373
20
-392.63913578776726
30
0
11
424.58948785876373
21
-436.36802755315415
31
0
0
LINE
5
268
100
AcDbEntity
8
0
100
AcDbLine
10
218.65041559742824
20
-456.68231686398428
30
0
11
218.65041559742824
21
-478.798097809193
31
0
0
LINE
5
269
100
AcDbEntity
8
0
100
AcDbLine
10
444.33858717101964
20
-392.63913578776726
30
0
11
444.33858717101964
21
-436.36802755315415
31
0
0
LINE
5
270
100
AcDbEntity
8
0
100
AcDbLine
10
205.31664044902126
20
-392.78289057010727
30
0
11
205.31664044902126
21
-436.51178233549416
31
0
0
LINE
5
271
100
AcDbEntity
8
0
100
AcDbLine
10
225.09506956016628
20
-286.57923356970139
30
0
11
225.09506956016628
21
-308.6950145149101
31
0
0
LINE
5
272
100
AcDbEntity
8
0
100
AcDbLine
10
444.33858717101964
20
-328.75626803918527
30
0
11
444.33858717101964
21
-372.48515980457216
31
0
0
LINE
5
273
100
AcDbEntity
8
0
100
AcDbLine
10
225.06570525563137
20
-328.90002282152523
30
0
11
225.06570525563137
21
-372.62891458691206
31
0
0
LINE
5
274
100
AcDbEntity
8
0
100
AcDbLine
10
387.36110511746125
20
-424.70538491524934
30
0
11
387.36110511746125
21
-468.12463884098918
31
0
0
LINE
5
275
100
AcDbEntity
8
0
100
AcDbLine
10
380.92097139431672
20
-424.70538491524934
30
0
11
380.92097139431672
21
-468.12463884098918
31
0
0
LINE
5
276
100
AcDbEntity
8
0
100
AcDbLine
10
411.28052226965247
20
-286.43547878736138
30
0
11
411.28052226965247
21
-308.55125973257009
31
0
0
LINE
5
277
100
AcDbEntity
8
0
100
AcDbLine
10
411.28021171884063
20
-328.75626803918527
30
0
11
411.28021171884063
21
-372.48515980457216
31
0
0
LINE
5
278
100
AcDbEntity
8
0
100
AcDbLine
10
401.13655253149324
20
-361.06285958146549
30
0
11
401.13655253149324
21
-404.48211350720555
31
0
0
LINE
5
279
100
AcDbEntity
8
0
100
AcDbLine
10
218.62581307200708
20
-328.90002282152523
30
0
11
218.62581307200708
21
-372.62891458691206
31
0
0
LINE
5
280
100
AcDbEntity
8
0
100
AcDbLine
10
360.3014326623221
20
-279.83966835294564
30
0
11
360.3014326623221
21
-374.44574136861632
31
0
0
LINE
5
281
100
AcDbEntity
8
0
100
AcDbLine
10
407.84503666165074
20
-361.06285958146549
30
0
11
407.84503666165074
21
-404.48211350720555
31
0
0
LINE
5
282
100
AcDbEntity
8
0
100
AcDbLine
10
414.71448962924109
20
-361.06285958146549
30
0
11
414.71448962924109
21
-404.48211350720555
31
0
0
LINE
5
283
100
AcDbEntity
8
0
100
AcDbLine
10
437.70370358325101
20
-456.53856208164427
30
0
11
437.70370358325101
21
-478.65434302685298
31
0
0
LINE
5
284
100
AcDbEntity
8
0
100
AcDbLine
10
404.56727636038119
20
-456.43980218649131
30
0
11
404.56727636038119
21
-478.5556179185599
31
0
0
LINE
5
285
100
AcDbEntity
8
0
100
AcDbLine
10
414.71448962924109
20
-424.70538491524934
30
0
11
414.71448962924109
21
-468.12463884098918
31
0
0
LINE
5
286
100
AcDbEntity
8
0
100
AcDbLine
10
424.59949449603187
20
-456.53856208164427
30
0
11
424.59949449603187
21
-478.65434302685298
31
0
0
LINE
5
287
100
AcDbEntity
8
0
100
AcDbLine
10
431.0441829644156
20
-456.53856208164427
30
0
11
431.0441829644156
21
-478.65434302685298
31
0
0
LINE
5
288
100
AcDbEntity
8
0
100
AcDbLine
10
225.06573976127711
20
-392.78289057010727
30
0
11
225.06573976127711
21
-436.51178233549416
31
0
0
LINE
5
289
100
AcDbEntity
8
0
100
AcDbLine
10
407.84503666165074
20
-424.70538491524934
30
0
11
407.84503666165074
21
-468.12463884098918
31
0
0
LINE
5
290
100
AcDbEntity
8
0
100
AcDbLine
10
218.65041559742824
20
-286.57923356970139
30
0
11
218.65041559742824
21
-308.6950145149101
31
0
0
LINE
5
291
100
AcDbEntity
8
0
100
AcDbLine
10
171.73878250004665
20
-392.75488714791697
30
0
11
171.73878250004665
21
-436.48377891330381
31
0
0
LINE
5
292
100
AcDbEntity
8
0
100
AcDbLine
10
198.87671375975123
20
-392.78289057010727
30
0
11
198.87671375975123
21
-436.51178233549416
31
0
0
LINE
5
293
100
AcDbEntity
8
0
100
AcDbLine
10
198.8867203970193
20
-456.68231686398428
30
0
11
198.8867203970193
21
-478.798097809193
31
0
0
LINE
5
294
100
AcDbEntity
8
0
100
AcDbLine
10
198.87667925410551
20
-328.90002282152523
30
0
11
198.87667925410551
21
-372.62891458691206
31
0
0
LINE
5
295
100
AcDbEntity
8
0
100
AcDbLine
10
148.76820159474266
20
-297.5877440947292
30
0
11
148.76820159474266
21
-341.00699802046927
31
0
0
LINE
5
296
100
AcDbEntity
8
0
100
AcDbLine
10
186.86479101966765
20
-478.70058737032548
30
0
11
120.21432667825225
21
-478.70058737032548
31
0
0
LINE
5
297
100
AcDbEntity
8
0
100
AcDbLine
10
185.56747212547384
20
-392.78289057010727
30
0
11
185.56747212547384
21
-436.51178233549416
31
0
0
LINE
5
298
100
AcDbEntity
8
0
100
AcDbLine
10
192.43675256483544
20
-392.78289057010727
30
0
11
192.43675256483544
21
-436.51178233549416
31
0
0
LINE
5
299
100
AcDbEntity
8
0
100
AcDbLine
10
182.13236607957549
20
-297.5877440947292
30
0
11
182.13236607957549
21
-341.00699802046927
31
0
0
LINE
5
300
100
AcDbEntity
8
0
100
AcDbLine
10
178.85919502919091
20
-392.58763192569234
30
0
11
178.85919502919091
21
-436.31659326479877
31
0
0
LINE
5
301
100
AcDbEntity
8
0
100
AcDbLine
10
171.72881036842432
20
-286.5650753177369
30
0
11
171.72881036842432
21
-308.6808562629455
31
0
0
LINE
5
302
100
AcDbEntity
8
0
100
AcDbLine
10
165.06932425523462
20
-286.5650753177369
30
0
11
165.06932425523462
21
-308.6808562629455
31
0
0
LINE
5
303
100
AcDbEntity
8
0
100
AcDbLine
10
158.62463578685083
20
-286.5650753177369
30
0
11
158.62463578685083
21
-308.6808562629455
31
0
0
LINE
5
304
100
AcDbEntity
8
0
100
AcDbLine
10
145.3349933593606
20
-392.75488714791697
30
0
11
145.3349933593606
21
-436.48377891330381
31
0
0
LINE
5
305
100
AcDbEntity
8
0
100
AcDbLine
10
225.09506956016628
20
-456.68231686398428
30
0
11
225.09506956016628
21
-478.798097809193
31
0
0
LINE
5
306
100
AcDbEntity
8
0
100
AcDbLine
10
505.91940105166555
20
-286.23209802083818
30
0
11
535.20192192892375
21
-286.39576692505108
31
0
0
LINE
5
307
100
AcDbEntity
8
0
100
AcDbLine
10
411.2802462244864
20
-392.63913578776726
30
0
11
411.2802462244864
21
-436.36802755315415
31
0
0
LINE
5
308
100
AcDbEntity
8
0
100
AcDbLine
10
365.40143266232212
20
-286.39578059188517
30
0
11
450.29450316732698
21
-286.39576692505108
31
0
0
LINE
5
309
100
AcDbEntity
8
0
100
AcDbLine
10
421.15458884673978
20
-424.70538491524934
30
0
11
421.15458884673978
21
-468.12463884098918
31
0
0
LINE
5
310
100
AcDbEntity
8
0
100
AcDbLine
10
365.40143266232212
20
-279.83966835294564
30
0
11
365.40143266232212
21
-286.39578059188517
31
0
0
LINE
5
311
100
AcDbEntity
8
0
100
AcDbLine
10
283.06113520046904
20
-478.70058737032548
30
0
11
186.86479101966765
21
-478.70058737032548
31
0
0
LINE
5
312
100
AcDbEntity
8
0
100
AcDbLine
10
437.68400085952669
20
-392.63913578776726
30
0
11
437.68400085952669
21
-436.36802755315415
31
0
0
LINE
5
313
100
AcDbEntity
8
0
100
AcDbLine
10
201.88194847087181
20
-424.84913969758935
30
0
11
201.88194847087181
21
-468.26839362332919
31
0
0
LINE
5
314
100
AcDbEntity
8
0
100
AcDbLine
10
168.30322788075341
20
-297.5877440947292
30
0
11
168.30322788075341
21
-341.00699802046927
31
0
0
LINE
5
315
100
AcDbEntity
8
0
100
AcDbLine
10
155.20830081224145
20
-297.5877440947292
30
0
11
155.20830081224145
21
-341.00699802046927
31
0
0
CIRCLE
5
316
100
AcDbEntity
8
0
100
AcDbCircle
10
21.142763934371022
20
-470.85833703566971
30
0
40
2.7500000000000262
0
CIRCLE
5
317
100
AcDbEntity
8
0
100
AcDbCircle
10
121.89276393437103
20
-468.37479622869353
30
0
40
2.75
0
CIRCLE
5
318
100
AcDbEntity
8
0
100
AcDbCircle
10
473.72037469785568
20
-468.32483205364463
30
0
40
2.7500000000000115
0
CIRCLE
5
319
100
AcDbEntity
8
0
100
AcDbCircle
10
574.47037469785573
20
-470.84129124666839
30
0
40
2.7499999999999929
0
LINE
5
320
100
AcDbEntity
8
0
100
AcDbLine
10
230.24751790983305
20
-279.85489514541672
30
0
11
235.33896652215878
21
-279.85489514541672
31
0
0
LINE
5
321
100
AcDbEntity
8
0
100
AcDbLine
10
365.40143266232212
20
-279.83966835294564
30
0
11
360.3014326623221
21
-279.83966835294564
31
0
0
SPLINE
5
322
100
AcDbEntity
8
0
100
AcDbSpline
70
12
71
2
41
1
41
3.0000000000001457
41
1
72
6
73
3
74
0
42
0.000000001
43
0.0000000001
44
0.0000000001
40
0
40
0
40
0
40
4.623555227469101
40
4.623555227469101
40
4.623555227469101
10
274.88577256961554
20
-389.83069411749807
30
0
10
297.82019959224021
20
-393.70508426140901
30
0
10
320.75462661486512
20
-389.83069411749807
30
0
0
SPLINE
5
323
100
AcDbEntity
8
0
100
AcDbSpline
70
12
71
2
41
1
41
3.0000000000000959
41
1
72
6
73
3
74
0
42
0.000000001
43
0.0000000001
44
0.0000000001
40
0
40
0
40
0
40
4.3850252344256644
40
4.3850252344256644
40
4.3850252344256644
10
320.75462661486512
20
-389.83069411749807
30
0
10
360.3014326623221
20
-380.44574136861632
30
0
10
360.3014326623221
20
-374.44574136861632
30
0
0
SPLINE
5
324
100
AcDbEntity
8
0
100
AcDbSpline
70
12
71
2
41
1
41
3.0000000000000853
41
1
72
6
73
3
74
0
42
0.000000001
43
0.0000000001
44
0.0000000001
40
0
40
0
40
0
40
4.385025234425644
40
4.385025234425644
40
4.385025234425644
10
235.33896652215878
20
-374.44574136861632
30
0
10
235.33896652215878
20
-380.44574136861632
30
0
10
274.88577256961554
20
-389.83069411749807
30
0
0
ENDSEC
0
SECTION
2
OBJECTS
0
DICTIONARY
5
C
100
AcDbDictionary
3
ACAD_GROUP
350
D
3
ACAD_MLINESTYLE
350
17
0
DICTIONARY
5
D
100
AcDbDictionary
0
DICTIONARY
5
1A
330
C
100
AcDbDictionary
0
DICTIONARY
5
17
100
AcDbDictionary
0
ENDSEC
0
EOF
