0
SECTION
2
HEADER
9
$INSUNITS
70
4
9
$ACADVER
1
AC1014
9
$HANDSEED
5
FFFF
0
ENDSEC
0
SECTION
2
TABLES
0
TABLE
2
VPORT
5
8
100
AcDbSymbolTable
0
ENDTAB
0
TABLE
2
LTYPE
5
5
100
AcDbSymbolTable
0
LTYPE
5
14
100
AcDbSymbolTableRecord
100
AcDbLinetypeTableRecord
2
BYBLOCK
70
0
0
LTYPE
5
15
100
AcDbSymbolTableRecord
100
AcDbLinetypeTableRecord
2
BYLAYER
70
0
0
ENDTAB
0
TABLE
2
LAYER
5
2
100
AcDbSymbolTable
70
2
0
LAYER
5
50
100
AcDbSymbolTableRecord
100
AcDbLayerTableRecord
2
0
70
0
6
CONTINUOUS
0
ENDTAB
0
TABLE
2
STYLE
5
3
100
AcDbSymbolTable
70
1
0
STYLE
5
11
100
AcDbSymbolTableRecord
100
AcDbTextStyleTableRecord
2
STANDARD
70
0
0
ENDTAB
0
TABLE
2
VIEW
5
6
100
AcDbSymbolTable
70
0
0
ENDTAB
0
TABLE
2
UCS
5
7
100
AcDbSymbolTable
70
0
0
ENDTAB
0
TABLE
2
APPID
5
9
100
AcDbSymbolTable
70
2
0
APPID
5
12
100
AcDbSymbolTableRecord
100
AcDbRegAppTableRecord
2
ACAD
70
0
0
ENDTAB
0
TABLE
2
DIMSTYLE
5
A
100
AcDbSymbolTable
70
1
0
ENDTAB
0
TABLE
2
BLOCK_RECORD
5
1
100
AcDbSymbolTable
70
1
0
BLOCK_RECORD
5
1F
100
AcDbSymbolTableRecord
100
AcDbBlockTableRecord
2
*MODEL_SPACE
0
BLOCK_RECORD
5
1B
100
AcDbSymbolTableRecord
100
AcDbBlockTableRecord
2
*PAPER_SPACE
0
ENDTAB
0
ENDSEC
0
SECTION
2
BLOCKS
0
BLOCK
5
20
100
AcDbEntity
100
AcDbBlockBegin
2
*MODEL_SPACE
0
ENDBLK
5
21
100
AcDbEntity
100
AcDbBlockEnd
0
BLOCK
5
1C
100
AcDbEntity
100
AcDbBlockBegin
2
*PAPER_SPACE
0
ENDBLK
5
1D
100
AcDbEntity
100
AcDbBlockEnd
0
ENDSEC
0
SECTION
2
ENTITIES
0
SPLINE
5
100
100
AcDbEntity
8
0
100
AcDbSpline
70
1064
71
3
72
8
73
4
74
0
42
0.000000001
43
0.0000000001
44
0.0000000001
40
0
40
0
40
0
40
0
40
1
40
1
40
1
40
1
10
57.391211845356992
20
-4.8154735210924304
30
0
10
27.409779038332704
20
-4.8154735210924349
30
0
10
3.2732858219452687
20
-28.951958105900783
30
0
10
3.2732858219452687
20
-58.933402781346345
30
0
0
LINE
5
101
100
AcDbEntity
8
0
100
AcDbLine
10
248.81011478735488
20
-114.16557710995961
30
0
11
248.77475983943825
21
-84.1906461203763
31
0
0
LINE
5
102
100
AcDbEntity
8
0
100
AcDbLine
10
251.8152853602715
20
-114.20093205787629
30
0
11
248.81011478735488
21
-114.16557710995961
31
0
0
LINE
5
103
100
AcDbEntity
8
0
100
AcDbLine
10
251.8152853602715
20
-144.11947957600245
30
0
11
251.8152853602715
21
-114.20093205787629
31
0
0
LINE
5
104
100
AcDbEntity
8
0
100
AcDbLine
10
248.77475983943825
20
-144.15263778704298
30
0
11
251.8152853602715
21
-144.11947957600245
31
0
0
LINE
5
105
100
AcDbEntity
8
0
100
AcDbLine
10
248.77475983943816
20
-174.06292588243775
30
0
11
248.77475983943825
21
-144.15263778704298
31
0
0
LINE
5
106
100
AcDbEntity
8
0
100
AcDbLine
10
251.8152853602715
20
-174.06292588243775
30
0
11
248.77475983943816
21
-174.06292588243775
31
0
0
LINE
5
107
100
AcDbEntity
8
0
100
AcDbLine
10
251.8152853602715
20
-199.0876042704929
30
0
11
251.8152853602715
21
-174.06292588243775
31
0
0
CIRCLE
5
108
100
AcDbEntity
8
0
100
AcDbCircle
10
165.27973392231877
20
-185.9101905241705
30
0
40
2.7499999999999858
0
LINE
5
109
100
AcDbEntity
8
0
100
AcDbLine
10
3.2732858219452687
20
-58.933402781346345
30
0
11
3.2732858219452687
21
-80.086692793578806
31
0
0
LINE
5
110
100
AcDbEntity
8
0
100
AcDbLine
10
3.2732858219453043
20
-114.09557732250185
30
0
11
3.2732858219453043
21
-144.01947957600245
31
0
0
LINE
5
111
100
AcDbEntity
8
0
100
AcDbLine
10
6.2232531308479899
20
-114.09557732250185
30
0
11
3.2732858219453043
21
-114.09557732250185
31
0
0
LINE
5
112
100
AcDbEntity
8
0
100
AcDbLine
10
3.2732858219452687
20
-80.086692793578806
30
0
11
3.2732858219453043
21
-84.195911383615822
31
0
0
CIRCLE
5
113
100
AcDbEntity
8
0
100
AcDbCircle
10
89.808837259897984
20
-185.9101905241705
30
0
40
2.750000000000012
0
LINE
5
114
100
AcDbEntity
8
0
100
AcDbLine
10
3.2732858219453043
20
-144.01947957600245
30
0
11
6.2431014469452428
21
-144.05263778704298
31
0
0
LINE
5
115
100
AcDbEntity
8
0
100
AcDbLine
10
3.2732858219453043
20
-84.195911383615822
30
0
11
6.223253130848061
21
-84.195911383615837
31
0
0
CIRCLE
5
116
100
AcDbEntity
8
0
100
AcDbCircle
10
85.563533918360491
20
-99.068738180322583
30
0
40
2.7500000000000044
0
CIRCLE
5
117
100
AcDbEntity
8
0
100
AcDbCircle
10
169.52503726385629
20
-99.068738180322583
30
0
40
2.749999999999988
0
ELLIPSE
5
118
100
AcDbEntity
8
0
100
AcDbEllipse
10
161.34360717283442
20
-106.40628710057256
30
0
11
0
21
6.2461951347437505
31
0.0
40
0.99999995471809988
41
0
42
6.2831853071795862
0
LINE
5
119
100
AcDbEntity
8
0
100
AcDbLine
10
6.2431014469452428
20
-144.05263778704298
30
0
11
6.172391551111911
21
-173.99221598660444
31
0
0
LINE
5
120
100
AcDbEntity
8
0
100
AcDbLine
10
6.172391551111911
20
-173.99221598660444
30
0
11
3.2732858219452332
21
-173.99221598660444
31
0
0
ELLIPSE
5
121
100
AcDbEntity
8
0
100
AcDbEllipse
10
127.54428559110838
20
-177.23452697532676
30
0
11
0
21
6.2461951347437505
31
0.0
40
0.99999995471809988
41
0
42
6.2831853071795862
0
ELLIPSE
5
122
100
AcDbEntity
8
0
100
AcDbEllipse
10
93.744964009382343
20
-106.40628710057256
30
0
11
0
21
6.2461951347437505
31
0.0
40
0.99999995471809988
41
0
42
6.2831853071795862
0
ELLIPSE
5
123
100
AcDbEntity
8
0
100
AcDbEllipse
10
127.54428559110838
20
-133.88364633855173
30
0
11
35.978080287895835
21
0
31
0.0
40
0.99999992138558214
41
-1.5707963267948966
42
4.7123889803846897
0
LINE
5
124
100
AcDbEntity
8
0
100
AcDbLine
10
3.2732858219452332
20
-173.99221598660444
30
0
11
3.2732858219452332
21
-199.0876042704929
31
0
0
LINE
5
125
100
AcDbEntity
8
0
100
AcDbLine
10
248.77475983943825
20
-84.1906461203763
30
0
11
251.8152853602715
21
-84.1906461203763
31
0
0
LINE
5
126
100
AcDbEntity
8
0
100
AcDbLine
10
251.8152853602715
20
-84.1906461203763
30
0
11
251.8152853602715
21
-80.086692793578806
31
0
0
LINE
5
127
100
AcDbEntity
8
0
100
AcDbLine
10
251.8152853602715
20
-80.086692793578806
30
0
11
251.8152853602715
21
-58.933402781346345
31
0
0
SPLINE
5
128
100
AcDbEntity
8
0
100
AcDbSpline
70
1064
71
3
72
8
73
4
74
0
42
0.000000001
43
0.0000000001
44
0.0000000001
40
0
40
0
40
0
40
0
40
1
40
1
40
1
40
1
10
251.8152853602715
20
-58.933402781346345
30
0
10
251.8152853602715
20
-28.951958105900779
30
0
10
227.67880077546317
20
-4.815473521092426
30
0
10
197.69733020528037
20
-4.8154735210924349
30
0
0
LINE
5
129
100
AcDbEntity
8
0
100
AcDbLine
10
3.2732858219452332
20
-199.0876042704929
30
0
11
251.8152853602715
21
-199.0876042704929
31
0
0
LINE
5
130
100
AcDbEntity
8
0
100
AcDbLine
10
6.223253130848061
20
-84.195911383615837
30
0
11
6.2232531308479899
21
-114.09557732250185
31
0
0
LINE
5
131
100
AcDbEntity
8
0
100
AcDbLine
10
60.049525591394669
20
-7.9267089377590967
30
0
11
60.049525591394669
21
-4.8232329781809202
31
0
0
LINE
5
132
100
AcDbEntity
8
0
100
AcDbLine
10
195.00344032711212
20
-4.8077140640039318
30
0
11
195.00344032711212
21
-7.9267089377591464
31
0
0
LINE
5
133
100
AcDbEntity
8
0
100
AcDbLine
10
60.049525591394669
20
-4.8232329781809202
30
0
11
57.391211845356992
21
-4.8154735210924304
31
0
0
LINE
5
134
100
AcDbEntity
8
0
100
AcDbLine
10
197.69733020528037
20
-4.8154735210924349
30
0
11
195.00344032711212
21
-4.8077140640039318
31
0
0
LINE
5
135
100
AcDbEntity
8
0
100
AcDbLine
10
60.049525591394669
20
-7.9267089377590967
30
0
11
65.049525591394669
21
-7.9267089377590967
31
0
0
LINE
5
136
100
AcDbEntity
8
0
100
AcDbLine
10
195.00344032711212
20
-7.9267089377591464
30
0
11
190
21
-7.9267089377591438
31
0
0
ARC
5
137
100
AcDbEntity
8
0
100
AcDbCircle
10
127.52476279569734
20
5.970212844453644
30
0
40
64.00218510921971
100
AcDbArc
50
192.54063656615975
51
347.45936343384017
0
ENDSEC
0
SECTION
2
OBJECTS
0
DICTIONARY
5
C
100
AcDbDictionary
3
ACAD_GROUP
350
D
3
ACAD_MLINESTYLE
350
17
0
DICTIONARY
5
D
100
AcDbDictionary
0
DICTIONARY
5
1A
330
C
100
AcDbDictionary
0
DICTIONARY
5
17
100
AcDbDictionary
0
ENDSEC
0
EOF
