0
SECTION
2
HEADER
9
$INSUNITS
70
4
9
$ACADVER
1
AC1014
9
$HANDSEED
5
FFFF
0
ENDSEC
0
SECTION
2
TABLES
0
TABLE
2
VPORT
5
8
100
AcDbSymbolTable
0
ENDTAB
0
TABLE
2
LTYPE
5
5
100
AcDbSymbolTable
0
LTYPE
5
14
100
AcDbSymbolTableRecord
100
AcDbLinetypeTableRecord
2
BYBLOCK
70
0
0
LTYPE
5
15
100
AcDbSymbolTableRecord
100
AcDbLinetypeTableRecord
2
BYLAYER
70
0
0
ENDTAB
0
TABLE
2
LAYER
5
2
100
AcDbSymbolTable
70
2
0
LAYER
5
50
100
AcDbSymbolTableRecord
100
AcDbLayerTableRecord
2
0
70
0
6
CONTINUOUS
0
ENDTAB
0
TABLE
2
STYLE
5
3
100
AcDbSymbolTable
70
1
0
STYLE
5
11
100
AcDbSymbolTableRecord
100
AcDbTextStyleTableRecord
2
STANDARD
70
0
0
ENDTAB
0
TABLE
2
VIEW
5
6
100
AcDbSymbolTable
70
0
0
ENDTAB
0
TABLE
2
UCS
5
7
100
AcDbSymbolTable
70
0
0
ENDTAB
0
TABLE
2
APPID
5
9
100
AcDbSymbolTable
70
2
0
APPID
5
12
100
AcDbSymbolTableRecord
100
AcDbRegAppTableRecord
2
ACAD
70
0
0
ENDTAB
0
TABLE
2
DIMSTYLE
5
A
100
AcDbSymbolTable
70
1
0
ENDTAB
0
TABLE
2
BLOCK_RECORD
5
1
100
AcDbSymbolTable
70
1
0
BLOCK_RECORD
5
1F
100
AcDbSymbolTableRecord
100
AcDbBlockTableRecord
2
*MODEL_SPACE
0
BLOCK_RECORD
5
1B
100
AcDbSymbolTableRecord
100
AcDbBlockTableRecord
2
*PAPER_SPACE
0
ENDTAB
0
ENDSEC
0
SECTION
2
BLOCKS
0
BLOCK
5
20
100
AcDbEntity
100
AcDbBlockBegin
2
*MODEL_SPACE
0
ENDBLK
5
21
100
AcDbEntity
100
AcDbBlockEnd
0
BLOCK
5
1C
100
AcDbEntity
100
AcDbBlockBegin
2
*PAPER_SPACE
0
ENDBLK
5
1D
100
AcDbEntity
100
AcDbBlockEnd
0
ENDSEC
0
SECTION
2
ENTITIES
0
LWPOLYLINE
5
100
100
AcDbEntity
8
0
100
AcDbPolyline
90
4
70
1
43
0.0
10
400.47228562803025
20
-145.82100053671698
42
-1.6038211448459321
10
391.4514991972959
20
-129.90190175225854
10
397.07113612220417
20
-126.0587832591181
42
-0.40723249024703484
10
408.6492210415733
20
-137.66124466059046
0
LWPOLYLINE
5
101
100
AcDbEntity
8
0
100
AcDbPolyline
90
3
70
1
43
0.0
10
410.8528065593942
20
-189.41451210856326
10
414.88461315056719
20
-182.00776726943252
42
1.6496741961214276
10
397.11370031662887
20
-172.82937651161362
42
0.43158142632038382
0
LWPOLYLINE
5
102
100
AcDbEntity
8
0
100
AcDbPolyline
90
6
70
1
43
0.0
10
395.9628031857178
20
-51.177663828577984
42
-1.6038211448459267
10
400.84064662977892
20
-33.542501870900942
10
414.22300367940306
20
-36.054878330912658
10
513.93935385028726
20
-29.857133738634051
42
-1.6496741961214287
10
520.01518447780643
20
-48.913169056620696
10
511.92690719448751
20
-51.299610777837508
0
LWPOLYLINE
5
103
100
AcDbEntity
8
0
100
AcDbPolyline
90
6
70
1
43
0.0
10
395.9628031857178
20
-26.177663828578019
42
-1.6038211448459267
10
400.84064662977892
20
-8.5425018709009706
10
414.22300367940306
20
-11.05487833091269
10
513.93935385028715
20
-4.8571337386340758
42
-1.6496741961214287
10
520.01518447780643
20
-23.913169056620731
10
511.92690719448751
20
-26.299610777837543
0
CIRCLE
5
104
100
AcDbEntity
8
0
100
AcDbCircle
10
555.1179760761554
20
-26.676810203373606
30
0
40
5.164176928764368
0
ELLIPSE
5
105
100
AcDbEntity
8
0
100
AcDbEllipse
10
409.05460101701658
20
-171.90222910255613
30
0
11
-1.769331895624715
21
-2.6231423826569786
31
0.0
40
0.99999991442543912
41
0
42
6.2831853071795862
0
CIRCLE
5
106
100
AcDbEntity
8
0
100
AcDbCircle
10
622.71660444401175
20
-26.676817899687446
30
0
40
5.1641867779953579
0
CIRCLE
5
107
100
AcDbEntity
8
0
100
AcDbCircle
10
588.91190747537905
20
-97.505056374660541
30
0
40
5.1641706008368482
0
ELLIPSE
5
108
100
AcDbEntity
8
0
100
AcDbEllipse
10
523.03843792911061
20
-12.645033377249405
30
0
11
-3.1059483483604722
21
-0.60373518522870495
31
0.0
40
0.99999991442543912
41
0
42
6.2831853071795862
0
SPLINE
5
109
100
AcDbEntity
8
0
100
AcDbSpline
70
1064
71
3
72
8
73
4
74
0
42
0.000000001
43
0.0000000001
44
0.0000000001
40
0
40
0
40
0
40
0
40
1
40
1
40
1
40
1
10
588.84880065593711
20
-2.8181946876259065
30
0
10
606.8035727792444
20
-2.8100981733798003
30
0
10
624.75339039428104
20
-6.3019947768747127
30
0
10
641.39570505445988
20
-13.040495868569618
30
0
0
SPLINE
5
110
100
AcDbEntity
8
0
100
AcDbSpline
70
1064
71
3
72
8
73
4
74
0
42
0.000000001
43
0.0000000001
44
0.0000000001
40
0
40
0
40
0
40
0
40
1
40
1
40
1
40
1
10
536.42803826044224
20
-13.040505044098509
30
0
10
553.03138127119189
20
-6.3177823067314396
30
0
10
570.93607295446429
20
-2.8262739384958624
30
0
10
588.84880065593711
20
-2.8181946876259065
30
0
0
ELLIPSE
5
111
100
AcDbEntity
8
0
100
AcDbEllipse
10
588.91189037354377
20
-54.15352070276559
30
0
11
-1.2429397555732547e-07
21
35.978086609595891
31
0.0
40
0.99999970093485346
41
0
42
6.2831853071795862
0
ELLIPSE
5
112
100
AcDbEntity
8
0
100
AcDbEllipse
10
523.03843792911061
20
-37.645033377249376
30
0
11
-3.1059483483604722
21
-0.60373518522870495
31
0.0
40
0.99999991442543912
41
0
42
6.2831853071795862
0
LINE
5
113
100
AcDbEntity
8
0
100
AcDbLine
10
641.39570505445988
20
-13.040495868569653
30
0
11
641.39570557685761
21
-113.84918300630343
31
0
0
LINE
5
114
100
AcDbEntity
8
0
100
AcDbLine
10
536.42803826044224
20
-13.040505044098509
30
0
11
536.42803878319808
21
-113.91830955153857
31
0
0
LINE
5
115
100
AcDbEntity
8
0
100
AcDbLine
10
641.39570557685761
20
-113.84918300630343
30
0
11
536.42803878319808
21
-113.91830955153857
31
0
0
LWPOLYLINE
5
116
100
AcDbEntity
8
0
100
AcDbPolyline
90
7
70
1
43
0.0
10
558.90659252817909
20
-150.31464660515542
10
565.68440987845815
20
-159.69917767687664
42
-0.19105310211383797
10
566.75786969915646
20
-166.44681938786067
10
559.58613899957868
20
-171.44181832347928
10
540.94163606736947
20
-175.9547051049646
42
-0.22942815840804284
10
533.99626716719581
20
-171.00852879818777
10
530.89613229454778
20
-165.34600992494535
42
-0.87514807896898672
0
LWPOLYLINE
5
117
100
AcDbEntity
8
0
100
AcDbPolyline
90
4
70
1
43
0.0
10
568.46019697828126
20
-161.43730037594275
10
576.81155039382406
20
-170.89551700080705
10
597.87403628736524
20
-167.67251446166256
42
0.67413823328712608
10
581.90438640869309
20
-150.16984943221405
42
0.28718626426084803
0
CIRCLE
5
118
100
AcDbEntity
8
0
100
AcDbCircle
10
540.94720411481114
20
-164.97809348205206
30
0
40
3.1640811628104708
0
ARC
5
119
100
AcDbEntity
8
0
100
AcDbCircle
10
390.97166941171486
20
-161.65055017803465
30
0
40
0.50000000000002121
100
AcDbArc
50
141.54680234471738
51
271.49102658224041
0
LINE
5
120
100
AcDbEntity
8
0
100
AcDbLine
10
452.64942066778826
20
-196.6717352584717
30
0
11
465.51060541355378
21
-195.51798388175422
31
0
0
LINE
5
121
100
AcDbEntity
8
0
100
AcDbLine
10
466.29475767066907
20
-184.84729405623335
30
0
11
422.72930951396677
21
-145.60706210492577
31
0
0
ARC
5
122
100
AcDbEntity
8
0
100
AcDbCircle
10
411.47686040421615
20
-172.96420913386865
30
0
40
18.712608136714618
100
AcDbArc
50
54.428043925604058
51
97.990741880654923
0
ARC
5
123
100
AcDbEntity
8
0
100
AcDbCircle
10
421.2446081639701
20
-180.28319347133166
30
0
40
36.42978403452905
100
AcDbArc
50
95.249696632350876
51
130.83023389209993
0
ARC
5
124
100
AcDbEntity
8
0
100
AcDbCircle
10
416.49953681444117
20
-166.90809274861078
30
0
40
10.879379320219613
100
AcDbArc
50
9.0120250879286239
51
57.391107997500015
0
ARC
5
125
100
AcDbEntity
8
0
100
AcDbCircle
10
411.68671722775173
20
-168.63958295322445
30
0
40
14.481758898931474
100
AcDbArc
50
101.19314038619925
51
131.41786179019081
0
ARC
5
126
100
AcDbEntity
8
0
100
AcDbCircle
10
451.66928632435258
20
-171.89838510929692
30
0
40
25.631858551646548
100
AcDbArc
50
215.73908800064555
51
253.69327036800024
0
ARC
5
127
100
AcDbEntity
8
0
100
AcDbCircle
10
448.28437046526341
20
-173.35330199739448
30
0
40
22.048942027400784
100
AcDbArc
50
179.00875502617095
51
217.80846477239987
0
ARC
5
128
100
AcDbEntity
8
0
100
AcDbCircle
10
372.57361877110867
20
-162.07355296055059
30
0
40
54.760543536600103
100
AcDbArc
50
348.52048460259982
51
356.72291258859576
0
ARC
5
129
100
AcDbEntity
8
0
100
AcDbCircle
10
462.46605906581385
20
-190.39243142438045
30
0
40
5.9615880230864802
100
AcDbArc
50
300.71004893758476
51
344.6516381724
0
ARC
5
130
100
AcDbEntity
8
0
100
AcDbCircle
10
418.49086538565973
20
-150.31268559209792
30
0
40
6.3330326844529852
100
AcDbArc
50
47.990037979216396
51
95.249696632299319
0
ARC
5
131
100
AcDbEntity
8
0
100
AcDbCircle
10
461.75015266440562
20
-189.89282483303265
30
0
40
6.7904944464566928
100
AcDbArc
50
-17.815418921186556
51
47.990031736699677
0
ARC
5
132
100
AcDbEntity
8
0
100
AcDbCircle
10
449.3382136827575
20
-159.76093035915196
30
0
40
37.059031716264201
100
AcDbArc
50
262.45531758745938
51
275.12618813110009
0
LINE
5
133
100
AcDbEntity
8
0
100
AcDbLine
10
397.42609106810158
20
-152.71859102761277
30
0
11
390.58011121176537
21
-161.33961260222191
31
0
0
ARC
5
134
100
AcDbEntity
8
0
100
AcDbCircle
10
390.52932285021893
20
-144.65630616661929
30
0
40
17.499999999999865
100
AcDbArc
50
271.49102658222114
51
311.41786179019101
0
CIRCLE
5
135
100
AcDbEntity
8
0
100
AcDbCircle
10
418.51397927500335
20
-150.32033326710206
30
0
40
2.6000000000000001
0
CIRCLE
5
136
100
AcDbEntity
8
0
100
AcDbCircle
10
461.75015266440562
20
-189.89282483303265
30
0
40
2.6000000000000001
0
CIRCLE
5
137
100
AcDbEntity
8
0
100
AcDbCircle
10
582.79673053782994
20
-35.711503167556209
30
0
40
2
0
CIRCLE
5
138
100
AcDbEntity
8
0
100
AcDbCircle
10
582.79673053782994
20
-35.711503167556209
30
0
40
10
0
ARC
5
139
100
AcDbEntity
8
0
100
AcDbCircle
10
501.29190472776907
20
-79.694648436294898
30
0
40
0.9999999999998237
100
AcDbArc
50
9.9999999999955076
51
65.752365433962865
0
LINE
5
140
100
AcDbEntity
8
0
100
AcDbLine
10
408.44459392119063
20
-55.880076274738997
30
0
11
400.56613189709304
21
-54.490890853403641
31
0
0
LINE
5
141
100
AcDbEntity
8
0
100
AcDbLine
10
453.33090724554279
20
-55.566860399462037
30
0
11
453.78239250747691
21
-53.006360241630318
31
0
0
LINE
5
142
100
AcDbEntity
8
0
100
AcDbLine
10
526.11866583902895
20
-84.752602978767982
30
0
11
524.64145420951058
21
-84.492130712267638
31
0
0
LINE
5
143
100
AcDbEntity
8
0
100
AcDbLine
10
526.03063963084617
20
-76.613668688170094
30
0
11
518.15217760674886
21
-75.224483266834753
31
0
0
LINE
5
144
100
AcDbEntity
8
0
100
AcDbLine
10
393.96750114574985
20
-91.913585467866753
30
0
11
409.75316435786124
21
-85.923723300559715
31
0
0
ARC
5
145
100
AcDbEntity
8
0
100
AcDbCircle
10
456.47451317142128
20
-104.25238434429282
30
0
40
36.000000000004981
100
AcDbArc
50
28.682187453482076
51
131.31781254651781
0
LINE
5
146
100
AcDbEntity
8
0
100
AcDbLine
10
410.26442178282224
20
-85.488768926698796
30
0
11
421.89315599427198
21
-65.34721044475377
31
0
0
LINE
5
147
100
AcDbEntity
8
0
100
AcDbLine
10
475.44816307374538
20
-56.826620150302823
30
0
11
454.86568103579032
21
-53.197373237064021
31
0
0
LINE
5
148
100
AcDbEntity
8
0
100
AcDbLine
10
454.86568103579032
20
-53.197373237064021
30
0
11
454.41419577385631
21
-55.757873394895711
31
0
0
LINE
5
149
100
AcDbEntity
8
0
100
AcDbLine
10
454.41419577385631
20
-55.757873394895711
30
0
11
453.33090724554279
21
-55.566860399462037
31
0
0
LINE
5
150
100
AcDbEntity
8
0
100
AcDbLine
10
519.43200887950286
20
-114.03636330263325
30
0
11
521.16849065617214
21
-104.18828577251136
31
0
0
LINE
5
151
100
AcDbEntity
8
0
100
AcDbLine
10
522.64570228569039
20
-104.44875803901172
30
0
11
526.11866583902895
21
-84.752602978767982
31
0
0
LINE
5
152
100
AcDbEntity
8
0
100
AcDbLine
10
451.81277700145256
20
-52.659063886296522
30
0
11
408.44459392119063
21
-55.880076274738997
31
0
0
ARC
5
153
100
AcDbEntity
8
0
100
AcDbCircle
10
492.00507036441883
20
-75.511695789065016
30
0
40
0.99999999999996358
100
AcDbArc
50
65.752365433972116
51
170.0000000000052
0
LINE
5
154
100
AcDbEntity
8
0
100
AcDbLine
10
453.78239250747691
20
-53.006360241630318
30
0
11
451.81277700145256
21
-52.659063886296522
31
0
0
LINE
5
155
100
AcDbEntity
8
0
100
AcDbLine
10
476.0799663401246
20
-59.57813330356818
30
0
11
474.99667781181125
21
-59.387120308134485
31
0
0
LINE
5
156
100
AcDbEntity
8
0
100
AcDbLine
10
474.99667781181125
20
-59.387120308134485
30
0
11
475.44816307374538
21
-56.826620150302823
31
0
0
ARC
5
157
100
AcDbEntity
8
0
100
AcDbCircle
10
432.91660518368735
20
-65.092805129049637
30
0
40
1.0000000000000613
100
AcDbArc
50
-10.000000000002025
51
94.247634566022811
0
LINE
5
158
100
AcDbEntity
8
0
100
AcDbLine
10
422.68511407900996
20
-64.849957200964013
30
0
11
432.8425378646412
21
-64.095551885259852
31
0
0
LINE
5
159
100
AcDbEntity
8
0
100
AcDbLine
10
397.69973484623932
20
-62.108880611000728
30
0
11
394.22677129290088
21
-81.805035671244468
31
0
0
LINE
5
160
100
AcDbEntity
8
0
100
AcDbLine
10
399.17694647575763
20
-62.369352877501171
30
0
11
397.69973484623932
21
-62.108880611000728
31
0
0
LINE
5
161
100
AcDbEntity
8
0
100
AcDbLine
10
394.22677129290088
20
-81.805035671244468
30
0
11
395.70398292241913
21
-82.06550793774494
31
0
0
ARC
5
162
100
AcDbEntity
8
0
100
AcDbCircle
10
432.97971381922162
20
-76.252439237970037
30
0
40
0.99999999999984224
100
AcDbArc
50
169.99999999999946
51
254.11736893387368
0
LINE
5
163
100
AcDbEntity
8
0
100
AcDbLine
10
395.70398292241913
20
-82.06550793774494
30
0
11
393.96750114574985
21
-91.913585467866753
31
0
0
ARC
5
164
100
AcDbEntity
8
0
100
AcDbCircle
10
409.39839637903793
20
-84.988768926698839
30
0
40
0.99999999999997913
100
AcDbArc
50
290.77922501256847
51
329.99999999999829
0
LINE
5
165
100
AcDbEntity
8
0
100
AcDbLine
10
433.90141293669961
20
-65.266453306716613
30
0
11
431.99490606620952
21
-76.078791060303118
31
0
0
ARC
5
166
100
AcDbEntity
8
0
100
AcDbCircle
10
422.75918139805628
20
-65.847210444753742
30
0
40
0.99999999999992162
100
AcDbArc
50
94.247634566032772
51
149.99999999999761
0
ARC
5
167
100
AcDbEntity
8
0
100
AcDbCircle
10
507.30013724257623
20
-102.25148729926926
30
0
40
1.0000000000000551
100
AcDbArc
50
189.99999999999966
51
229.22077498742775
0
LINE
5
168
100
AcDbEntity
8
0
100
AcDbLine
10
502.2767124807811
20
-79.521000258628078
30
0
11
506.31532948956396
21
-102.42513547693619
31
0
0
LINE
5
169
100
AcDbEntity
8
0
100
AcDbLine
10
492.41575157494094
20
-74.599916789896895
30
0
11
501.70258593829135
21
-78.782869437126791
31
0
0
LINE
5
170
100
AcDbEntity
8
0
100
AcDbLine
10
489.11375574091659
20
-86.15038536498497
30
0
11
491.02026261140657
21
-75.338047611398167
31
0
0
LINE
5
171
100
AcDbEntity
8
0
100
AcDbLine
10
400.56613189709304
20
-54.490890853403641
30
0
11
399.17694647575763
21
-62.369352877501171
31
0
0
ARC
5
172
100
AcDbEntity
8
0
100
AcDbCircle
10
488.12894798790433
20
-85.976737187317966
30
0
40
0.99999999999998157
100
AcDbArc
50
265.88263106612698
51
349.99999999999642
0
LINE
5
173
100
AcDbEntity
8
0
100
AcDbLine
10
518.15217760674886
20
-75.224483266834753
30
0
11
478.50106710808302
21
-57.364929501070286
31
0
0
LINE
5
174
100
AcDbEntity
8
0
100
AcDbLine
10
478.50106710808302
20
-57.364929501070286
30
0
11
476.53145160205867
21
-57.017633145736433
31
0
0
LINE
5
175
100
AcDbEntity
8
0
100
AcDbLine
10
476.53145160205867
20
-57.017633145736433
30
0
11
476.0799663401246
21
-59.57813330356818
31
0
0
LINE
5
176
100
AcDbEntity
8
0
100
AcDbLine
10
506.64699116183391
20
-103.00871923019331
30
0
11
519.43200887950286
21
-114.03636330263325
31
0
0
LINE
5
177
100
AcDbEntity
8
0
100
AcDbLine
10
521.16849065617214
20
-104.18828577251136
30
0
11
522.64570228569039
21
-104.44875803901172
31
0
0
LINE
5
178
100
AcDbEntity
8
0
100
AcDbLine
10
524.64145420951058
20
-84.492130712267638
30
0
11
526.03063963084617
21
-76.613668688170094
31
0
0
LWPOLYLINE
5
179
100
AcDbEntity
8
0
100
AcDbPolyline
90
9
70
1
43
0.0
10
499.26476222331974
20
-178.33877865463901
10
494.80469415720199
20
-173.67157938055277
10
413.80682556860927
20
-88.912067221745446
10
416.76440352139969
20
-76.646028812897697
42
-0.28718626426085236
10
433.70542925900537
20
-81.196119709564073
10
526.94608219731504
20
-159.2132894903923
42
-0.19105310211383184
10
529.72938294594178
20
-165.45317903982783
10
524.09482389883442
20
-172.13415800542543
10
507.25363804573124
20
-181.31882434410645
42
-0.22942815840804937
0
LWPOLYLINE
5
180
100
AcDbEntity
8
0
100
AcDbPolyline
90
9
70
1
43
0.0
10
418.72338965259735
20
-96.227245716766248
10
423.18345771871515
20
-100.89444499085258
10
504.18132630730724
20
-185.65395714965911
10
501.22374835451683
20
-197.91999555850668
42
-0.28718626426084731
10
484.28272261691154
20
-193.36990466184051
10
391.04206967860227
20
-115.35273488101298
42
-0.19105310211383461
10
388.25876892997553
20
-109.11284533157733
10
393.89332797708289
20
-102.4318663659798
10
410.73451383018607
20
-93.247200027299115
42
-0.22942815840804295
0
CIRCLE
5
181
100
AcDbEntity
8
0
100
AcDbCircle
10
504.41806022785357
20
-170.71479057566825
30
0
40
3.1640811628104708
0
CIRCLE
5
182
100
AcDbEntity
8
0
100
AcDbCircle
10
413.57009164806362
20
-103.85123379573706
30
0
40
3.1640811628104712
0
LWPOLYLINE
5
183
100
AcDbEntity
8
0
100
AcDbPolyline
90
9
70
1
43
0.0
10
629.89737917058642
20
-152.35814214846923
10
623.48075094728392
20
-151.64973657088561
10
506.95041959175433
20
-138.7846096199217
10
501.33159823843414
20
-127.48718459500411
42
-0.28718626426084976
10
517.23391891678705
20
-120.08327500256806
10
638.80887305089186
20
-119.91395795321304
42
-0.19105310211383486
10
644.95192881109597
20
-122.90491943298585
10
644.93005666329623
20
-131.64467098570444
10
637.9327495466016
20
-149.50583919515591
42
-0.22942815840804576
0
CIRCLE
5
184
100
AcDbEntity
8
0
100
AcDbCircle
10
628.94442939713531
20
-143.20535233983159
30
0
40
3.1640811628104708
0
LWPOLYLINE
5
185
100
AcDbEntity
8
0
100
AcDbPolyline
90
7
70
1
43
0.0
10
565.60922815100685
20
-75.590176550623326
42
-0.22942815840804642
10
562.06745039819054
20
-67.833977767270767
10
562.21391427994058
20
-61.380025137310014
42
-0.87514807896898295
10
593.98736607385399
20
-62.367712765673957
10
595.16486254554616
20
-73.883863751528679
42
-0.19105310211383611
10
592.72068516472063
20
-80.264222799225337
10
584.01228472197636
20
-81.004153419558506
0
CIRCLE
5
186
100
AcDbEntity
8
0
100
AcDbCircle
10
571.10235603299725
20
-66.086936061426073
30
0
40
3.1640811628104704
0
LWPOLYLINE
5
187
100
AcDbEntity
8
0
100
AcDbPolyline
90
4
70
1
43
0.0
10
617.26902647371605
20
-64.963317691045518
42
-0.67413823328712685
10
597.25916565492912
20
-77.65104681777386
10
597.74259005895044
20
-56.348878894566035
10
608.50731242244728
20
-49.766803383681058
42
-0.28718626426085025
0
CIRCLE
5
188
100
AcDbEntity
8
0
100
AcDbCircle
10
631.18839272960952
20
-19.351611043123881
30
0
40
2.7499999999999858
0
CIRCLE
5
189
100
AcDbEntity
8
0
100
AcDbCircle
10
547.22692689381813
20
-19.351611188155285
30
0
40
2.75
0
CIRCLE
5
190
100
AcDbEntity
8
0
100
AcDbCircle
10
626.74797997555618
20
-106.19305556860154
30
0
40
2.7499999999999858
0
CIRCLE
5
191
100
AcDbEntity
8
0
100
AcDbCircle
10
551.2703117461549
20
-106.19305569379628
30
0
40
2.7499999999999893
0
CIRCLE
5
192
100
AcDbEntity
8
0
100
AcDbCircle
10
697.08372168019889
20
-154.5946805818262
30
0
40
49.880871757535573
0
CIRCLE
5
193
100
AcDbEntity
8
0
100
AcDbCircle
10
697.08372168019889
20
-154.5946805818262
30
0
40
35.979091632276962
0
CIRCLE
5
194
100
AcDbEntity
8
0
100
AcDbCircle
10
694.42287296444249
20
-53.069506757898573
30
0
40
49.862452878475231
0
CIRCLE
5
195
100
AcDbEntity
8
0
100
AcDbCircle
10
694.42287296444249
20
-53.069506757898573
30
0
40
40.452762837825517
0
LWPOLYLINE
5
196
100
AcDbEntity
8
0
100
AcDbPolyline
90
4
70
1
43
0.0
10
750.1713679328825
20
0
10
375
20
0
10
375
20
-207.9004540313943
10
750.1713679328825
20
-207.9004540313943
0
CIRCLE
5
197
100
AcDbEntity
8
0
100
AcDbCircle
10
728.22217053711279
20
-25.608435413224452
30
0
40
2.725000000000013
0
CIRCLE
5
198
100
AcDbEntity
8
0
100
AcDbCircle
10
660.6235295415139
20
-25.608439729011945
30
0
40
2.7250000000000036
0
CIRCLE
5
199
100
AcDbEntity
8
0
100
AcDbCircle
10
694.75614497876973
20
-96.586661564178144
30
0
40
2.7249999999999375
0
CIRCLE
5
200
100
AcDbEntity
8
0
100
AcDbCircle
10
663.30278013018244
20
-127.00533312959622
30
0
40
2.7249999999999375
0
CIRCLE
5
201
100
AcDbEntity
8
0
100
AcDbCircle
10
730.9014022442193
20
-127.00533312960125
30
0
40
2.7249999999999748
0
CIRCLE
5
202
100
AcDbEntity
8
0
100
AcDbCircle
10
697.43538909376116
20
-197.98358517531884
30
0
40
2.7249999999999375
0
LWPOLYLINE
5
203
100
AcDbEntity
8
0
100
AcDbPolyline
90
9
70
1
43
0.0
10
523.18264968498215
20
-200.28614271920705
10
644.75760381908617
20
-200.45545976856215
42
0.19105310211383678
10
650.90065957929039
20
-197.46449828878923
10
650.87878743149065
20
-188.7247467360707
10
643.88148031479591
20
-170.86357852661936
42
0.22942815840804517
10
635.84610993878084
20
-168.01127557330602
10
629.42948171547846
20
-168.71968115088964
10
512.89915035994954
20
-181.58480810185353
10
507.28032900662936
20
-192.88223312677104
42
0.28718626426084859
0
CIRCLE
5
204
100
AcDbEntity
8
0
100
AcDbCircle
10
634.89316016532973
20
-177.16406538194363
30
0
40
3.1640811628104708
0
ENDSEC
0
SECTION
2
OBJECTS
0
DICTIONARY
5
C
100
AcDbDictionary
3
ACAD_GROUP
350
D
3
ACAD_MLINESTYLE
350
17
0
DICTIONARY
5
D
100
AcDbDictionary
0
DICTIONARY
5
1A
330
C
100
AcDbDictionary
0
DICTIONARY
5
17
100
AcDbDictionary
0
ENDSEC
0
EOF
